G04 #@! TF.GenerationSoftware,KiCad,Pcbnew,(5.1.0)-1*
G04 #@! TF.CreationDate,2021-05-27T14:19:51-05:00*
G04 #@! TF.ProjectId,2014 Mazda CX-5 Head Unit Adapter,32303134-204d-4617-9a64-612043582d35,rev?*
G04 #@! TF.SameCoordinates,Original*
G04 #@! TF.FileFunction,Legend,Top*
G04 #@! TF.FilePolarity,Positive*
%FSLAX46Y46*%
G04 Gerber Fmt 4.6, Leading zero omitted, Abs format (unit mm)*
G04 Created by KiCad (PCBNEW (5.1.0)-1) date 2021-05-27 14:19:51*
%MOMM*%
%LPD*%
G04 APERTURE LIST*
%ADD10C,0.120000*%
%ADD11C,0.340000*%
%ADD12C,0.127000*%
%ADD13C,0.300000*%
%ADD14C,0.150000*%
G04 APERTURE END LIST*
D10*
X178340000Y-155960000D02*
X170840000Y-155960000D01*
X170840000Y-155960000D02*
X170840000Y-133460000D01*
X170840000Y-133460000D02*
X185840000Y-133460000D01*
X185840000Y-133460000D02*
X185840000Y-155960000D01*
X185840000Y-155960000D02*
X178340000Y-155960000D01*
X158190000Y-112700000D02*
X158190000Y-105200000D01*
X158190000Y-105200000D02*
X153190000Y-105200000D01*
X153190000Y-105200000D02*
X153190000Y-90200000D01*
X153190000Y-90200000D02*
X203190000Y-90200000D01*
X203190000Y-90200000D02*
X203190000Y-105200000D01*
X203190000Y-105200000D02*
X198190000Y-105200000D01*
X198190000Y-105200000D02*
X198190000Y-112700000D01*
X198190000Y-112700000D02*
X158190000Y-112700000D01*
D11*
X202270000Y-139200000D02*
G75*
G03X202270000Y-139200000I-170000J0D01*
G01*
D12*
X205600000Y-127900000D02*
X206400000Y-127900000D01*
X205600000Y-136900000D02*
X206400000Y-136900000D01*
X205600000Y-127900000D02*
X205600000Y-126200000D01*
X205600000Y-138600000D02*
X205600000Y-136900000D01*
X194600000Y-138600000D02*
X205600000Y-138600000D01*
X194600000Y-126200000D02*
X205600000Y-126200000D01*
X194600000Y-138600000D02*
X194600000Y-126200000D01*
D13*
X165170000Y-129490000D02*
G75*
G03X165170000Y-129490000I-150000J0D01*
G01*
D12*
X162820000Y-126425000D02*
X164330000Y-126425000D01*
X150330000Y-126425000D02*
X158240000Y-126425000D01*
X150330000Y-139555000D02*
X150330000Y-126425000D01*
X158240000Y-139555000D02*
X150330000Y-139555000D01*
X164330000Y-139555000D02*
X162820000Y-139555000D01*
X164330000Y-126425000D02*
X164330000Y-139555000D01*
D10*
X161333748Y-122090000D02*
X161856252Y-122090000D01*
X161333748Y-123510000D02*
X161856252Y-123510000D01*
D14*
X187577619Y-154236666D02*
X186863333Y-154236666D01*
X186720476Y-154189047D01*
X186625238Y-154093809D01*
X186577619Y-153950952D01*
X186577619Y-153855714D01*
X186577619Y-155236666D02*
X186577619Y-154665238D01*
X186577619Y-154950952D02*
X187577619Y-154950952D01*
X187434761Y-154855714D01*
X187339523Y-154760476D01*
X187291904Y-154665238D01*
X156236666Y-111412380D02*
X156236666Y-112126666D01*
X156189047Y-112269523D01*
X156093809Y-112364761D01*
X155950952Y-112412380D01*
X155855714Y-112412380D01*
X156665238Y-111507619D02*
X156712857Y-111460000D01*
X156808095Y-111412380D01*
X157046190Y-111412380D01*
X157141428Y-111460000D01*
X157189047Y-111507619D01*
X157236666Y-111602857D01*
X157236666Y-111698095D01*
X157189047Y-111840952D01*
X156617619Y-112412380D01*
X157236666Y-112412380D01*
X192546532Y-137642160D02*
X192546532Y-138356733D01*
X192498894Y-138499648D01*
X192403618Y-138594924D01*
X192260703Y-138642562D01*
X192165427Y-138642562D01*
X192927638Y-137642160D02*
X193546934Y-137642160D01*
X193213467Y-138023266D01*
X193356381Y-138023266D01*
X193451658Y-138070904D01*
X193499296Y-138118542D01*
X193546934Y-138213819D01*
X193546934Y-138452010D01*
X193499296Y-138547286D01*
X193451658Y-138594924D01*
X193356381Y-138642562D01*
X193070552Y-138642562D01*
X192975276Y-138594924D01*
X192927638Y-138547286D01*
X151056328Y-142451824D02*
X151056328Y-143166836D01*
X151008660Y-143309838D01*
X150913325Y-143405173D01*
X150770323Y-143452840D01*
X150674988Y-143452840D01*
X151962009Y-142785496D02*
X151962009Y-143452840D01*
X151723672Y-142404157D02*
X151485334Y-143119168D01*
X152105011Y-143119168D01*
X161428333Y-121602380D02*
X161095000Y-121126190D01*
X160856904Y-121602380D02*
X160856904Y-120602380D01*
X161237857Y-120602380D01*
X161333095Y-120650000D01*
X161380714Y-120697619D01*
X161428333Y-120792857D01*
X161428333Y-120935714D01*
X161380714Y-121030952D01*
X161333095Y-121078571D01*
X161237857Y-121126190D01*
X160856904Y-121126190D01*
X162380714Y-121602380D02*
X161809285Y-121602380D01*
X162095000Y-121602380D02*
X162095000Y-120602380D01*
X161999761Y-120745238D01*
X161904523Y-120840476D01*
X161809285Y-120888095D01*
M02*
