G04 #@! TF.GenerationSoftware,KiCad,Pcbnew,(5.1.0)-1*
G04 #@! TF.CreationDate,2021-05-27T14:19:51-05:00*
G04 #@! TF.ProjectId,2014 Mazda CX-5 Head Unit Adapter,32303134-204d-4617-9a64-612043582d35,rev?*
G04 #@! TF.SameCoordinates,Original*
G04 #@! TF.FileFunction,Profile,NP*
%FSLAX46Y46*%
G04 Gerber Fmt 4.6, Leading zero omitted, Abs format (unit mm)*
G04 Created by KiCad (PCBNEW (5.1.0)-1) date 2021-05-27 14:19:51*
%MOMM*%
%LPD*%
G04 APERTURE LIST*
%ADD10C,0.050000*%
%ADD11C,0.000100*%
G04 APERTURE END LIST*
D10*
X206600000Y-138400000D02*
X206600000Y-156100000D01*
X206600000Y-126400000D02*
X206600000Y-124100000D01*
X150000000Y-124100000D02*
X153300000Y-124100000D01*
X150000000Y-124100000D02*
X150000000Y-156100000D01*
X150000000Y-116500000D02*
X153300000Y-116500000D01*
X150000000Y-100000000D02*
X150000000Y-116500000D01*
X206600000Y-100000000D02*
X206600000Y-116500000D01*
X203300000Y-124100000D02*
X206600000Y-124100000D01*
X203300000Y-116500000D02*
X206600000Y-116500000D01*
X153300000Y-116500000D02*
G75*
G02X153300000Y-124100000I0J-3800000D01*
G01*
X203300000Y-116500000D02*
G75*
G03X203300000Y-124100000I0J-3800000D01*
G01*
X193900000Y-142050000D02*
G75*
G03X193900000Y-142050000I-1600000J0D01*
G01*
X165900000Y-142050000D02*
G75*
G03X165900000Y-142050000I-1600000J0D01*
G01*
X165900000Y-114050000D02*
G75*
G03X165900000Y-114050000I-1600000J0D01*
G01*
X193900000Y-114050000D02*
G75*
G03X193900000Y-114050000I-1600000J0D01*
G01*
X206600000Y-156100000D02*
X150000000Y-156100000D01*
X150000000Y-100000000D02*
X206600000Y-100000000D01*
D11*
X206600000Y-130400000D02*
X206600000Y-126400000D01*
X205400000Y-130400000D02*
X206600000Y-130400000D01*
X205400000Y-134400000D02*
X205400000Y-130400000D01*
X206600000Y-134400000D02*
X205400000Y-134400000D01*
X206600000Y-138400000D02*
X206600000Y-134400000D01*
M02*
