G04 #@! TF.GenerationSoftware,KiCad,Pcbnew,(5.1.0)-1*
G04 #@! TF.CreationDate,2021-05-27T14:19:51-05:00*
G04 #@! TF.ProjectId,2014 Mazda CX-5 Head Unit Adapter,32303134-204d-4617-9a64-612043582d35,rev?*
G04 #@! TF.SameCoordinates,Original*
G04 #@! TF.FileFunction,Soldermask,Bot*
G04 #@! TF.FilePolarity,Negative*
%FSLAX46Y46*%
G04 Gerber Fmt 4.6, Leading zero omitted, Abs format (unit mm)*
G04 Created by KiCad (PCBNEW (5.1.0)-1) date 2021-05-27 14:19:51*
%MOMM*%
%LPD*%
G04 APERTURE LIST*
%ADD10C,0.100000*%
G04 APERTURE END LIST*
D10*
G36*
X173248014Y-151516973D02*
G01*
X173351878Y-151548479D01*
X173395907Y-151572013D01*
X173447599Y-151599643D01*
X173447601Y-151599644D01*
X173447600Y-151599644D01*
X173531501Y-151668499D01*
X173600356Y-151752400D01*
X173651521Y-151848121D01*
X173683027Y-151951985D01*
X173691000Y-152032933D01*
X173691000Y-153687067D01*
X173683027Y-153768015D01*
X173651521Y-153871879D01*
X173647178Y-153880004D01*
X173600357Y-153967600D01*
X173531501Y-154051501D01*
X173447600Y-154120357D01*
X173379055Y-154156995D01*
X173351879Y-154171521D01*
X173248015Y-154203027D01*
X173140000Y-154213666D01*
X173031986Y-154203027D01*
X172928122Y-154171521D01*
X172900946Y-154156995D01*
X172832401Y-154120357D01*
X172748500Y-154051501D01*
X172679644Y-153967600D01*
X172632823Y-153880004D01*
X172628480Y-153871879D01*
X172596974Y-153768015D01*
X172589001Y-153687067D01*
X172589000Y-152032934D01*
X172596973Y-151951986D01*
X172628479Y-151848122D01*
X172679644Y-151752400D01*
X172748499Y-151668499D01*
X172832400Y-151599644D01*
X172832399Y-151599644D01*
X172832401Y-151599643D01*
X172884093Y-151572013D01*
X172928121Y-151548479D01*
X173031985Y-151516973D01*
X173140000Y-151506334D01*
X173248014Y-151516973D01*
X173248014Y-151516973D01*
G37*
G36*
X183648014Y-151516973D02*
G01*
X183751878Y-151548479D01*
X183795907Y-151572013D01*
X183847599Y-151599643D01*
X183847601Y-151599644D01*
X183847600Y-151599644D01*
X183931501Y-151668499D01*
X184000356Y-151752400D01*
X184051521Y-151848121D01*
X184083027Y-151951985D01*
X184091000Y-152032933D01*
X184091000Y-153687067D01*
X184083027Y-153768015D01*
X184051521Y-153871879D01*
X184047178Y-153880004D01*
X184000357Y-153967600D01*
X183931501Y-154051501D01*
X183847600Y-154120357D01*
X183779055Y-154156995D01*
X183751879Y-154171521D01*
X183648015Y-154203027D01*
X183540000Y-154213666D01*
X183431986Y-154203027D01*
X183328122Y-154171521D01*
X183300946Y-154156995D01*
X183232401Y-154120357D01*
X183148500Y-154051501D01*
X183079644Y-153967600D01*
X183032823Y-153880004D01*
X183028480Y-153871879D01*
X182996974Y-153768015D01*
X182989001Y-153687067D01*
X182989000Y-152032934D01*
X182996973Y-151951986D01*
X183028479Y-151848122D01*
X183079644Y-151752400D01*
X183148499Y-151668499D01*
X183232400Y-151599644D01*
X183232399Y-151599644D01*
X183232401Y-151599643D01*
X183284093Y-151572013D01*
X183328121Y-151548479D01*
X183431985Y-151516973D01*
X183540000Y-151506334D01*
X183648014Y-151516973D01*
X183648014Y-151516973D01*
G37*
G36*
X175964549Y-151731116D02*
G01*
X176075734Y-151753232D01*
X176285203Y-151839997D01*
X176473720Y-151965960D01*
X176634040Y-152126280D01*
X176760003Y-152314797D01*
X176846768Y-152524266D01*
X176891000Y-152746636D01*
X176891000Y-152973364D01*
X176846768Y-153195734D01*
X176760003Y-153405203D01*
X176634040Y-153593720D01*
X176473720Y-153754040D01*
X176285203Y-153880003D01*
X176075734Y-153966768D01*
X175964549Y-153988884D01*
X175853365Y-154011000D01*
X175626635Y-154011000D01*
X175515451Y-153988884D01*
X175404266Y-153966768D01*
X175194797Y-153880003D01*
X175006280Y-153754040D01*
X174845960Y-153593720D01*
X174719997Y-153405203D01*
X174633232Y-153195734D01*
X174589000Y-152973364D01*
X174589000Y-152746636D01*
X174633232Y-152524266D01*
X174719997Y-152314797D01*
X174845960Y-152126280D01*
X175006280Y-151965960D01*
X175194797Y-151839997D01*
X175404266Y-151753232D01*
X175515451Y-151731116D01*
X175626635Y-151709000D01*
X175853365Y-151709000D01*
X175964549Y-151731116D01*
X175964549Y-151731116D01*
G37*
G36*
X181164549Y-151731116D02*
G01*
X181275734Y-151753232D01*
X181485203Y-151839997D01*
X181673720Y-151965960D01*
X181834040Y-152126280D01*
X181960003Y-152314797D01*
X182046768Y-152524266D01*
X182091000Y-152746636D01*
X182091000Y-152973364D01*
X182046768Y-153195734D01*
X181960003Y-153405203D01*
X181834040Y-153593720D01*
X181673720Y-153754040D01*
X181485203Y-153880003D01*
X181275734Y-153966768D01*
X181164549Y-153988884D01*
X181053365Y-154011000D01*
X180826635Y-154011000D01*
X180715451Y-153988884D01*
X180604266Y-153966768D01*
X180394797Y-153880003D01*
X180206280Y-153754040D01*
X180045960Y-153593720D01*
X179919997Y-153405203D01*
X179833232Y-153195734D01*
X179789000Y-152973364D01*
X179789000Y-152746636D01*
X179833232Y-152524266D01*
X179919997Y-152314797D01*
X180045960Y-152126280D01*
X180206280Y-151965960D01*
X180394797Y-151839997D01*
X180604266Y-151753232D01*
X180715451Y-151731116D01*
X180826635Y-151709000D01*
X181053365Y-151709000D01*
X181164549Y-151731116D01*
X181164549Y-151731116D01*
G37*
G36*
X183648014Y-145416973D02*
G01*
X183751878Y-145448479D01*
X183795907Y-145472013D01*
X183847599Y-145499643D01*
X183847601Y-145499644D01*
X183847600Y-145499644D01*
X183931501Y-145568499D01*
X184000356Y-145652400D01*
X184051521Y-145748121D01*
X184083027Y-145851985D01*
X184091000Y-145932933D01*
X184091000Y-147787067D01*
X184083027Y-147868015D01*
X184051521Y-147971879D01*
X184051519Y-147971882D01*
X184000357Y-148067600D01*
X183931501Y-148151501D01*
X183847600Y-148220357D01*
X183779055Y-148256995D01*
X183751879Y-148271521D01*
X183648015Y-148303027D01*
X183540000Y-148313666D01*
X183431986Y-148303027D01*
X183328122Y-148271521D01*
X183300946Y-148256995D01*
X183232401Y-148220357D01*
X183148500Y-148151501D01*
X183079644Y-148067600D01*
X183028482Y-147971882D01*
X183028480Y-147971879D01*
X182996974Y-147868015D01*
X182989001Y-147787067D01*
X182989000Y-145932934D01*
X182996973Y-145851986D01*
X183028479Y-145748122D01*
X183079644Y-145652400D01*
X183148499Y-145568499D01*
X183232400Y-145499644D01*
X183232399Y-145499644D01*
X183232401Y-145499643D01*
X183284093Y-145472013D01*
X183328121Y-145448479D01*
X183431985Y-145416973D01*
X183540000Y-145406334D01*
X183648014Y-145416973D01*
X183648014Y-145416973D01*
G37*
G36*
X173248014Y-145416973D02*
G01*
X173351878Y-145448479D01*
X173395907Y-145472013D01*
X173447599Y-145499643D01*
X173447601Y-145499644D01*
X173447600Y-145499644D01*
X173531501Y-145568499D01*
X173600356Y-145652400D01*
X173651521Y-145748121D01*
X173683027Y-145851985D01*
X173691000Y-145932933D01*
X173691000Y-147787067D01*
X173683027Y-147868015D01*
X173651521Y-147971879D01*
X173651519Y-147971882D01*
X173600357Y-148067600D01*
X173531501Y-148151501D01*
X173447600Y-148220357D01*
X173379055Y-148256995D01*
X173351879Y-148271521D01*
X173248015Y-148303027D01*
X173140000Y-148313666D01*
X173031986Y-148303027D01*
X172928122Y-148271521D01*
X172900946Y-148256995D01*
X172832401Y-148220357D01*
X172748500Y-148151501D01*
X172679644Y-148067600D01*
X172628482Y-147971882D01*
X172628480Y-147971879D01*
X172596974Y-147868015D01*
X172589001Y-147787067D01*
X172589000Y-145932934D01*
X172596973Y-145851986D01*
X172628479Y-145748122D01*
X172679644Y-145652400D01*
X172748499Y-145568499D01*
X172832400Y-145499644D01*
X172832399Y-145499644D01*
X172832401Y-145499643D01*
X172884093Y-145472013D01*
X172928121Y-145448479D01*
X173031985Y-145416973D01*
X173140000Y-145406334D01*
X173248014Y-145416973D01*
X173248014Y-145416973D01*
G37*
G36*
X179748015Y-140916973D02*
G01*
X179851879Y-140948479D01*
X179879055Y-140963005D01*
X179947600Y-140999643D01*
X180031501Y-141068499D01*
X180100357Y-141152400D01*
X180127576Y-141203324D01*
X180151521Y-141248121D01*
X180183027Y-141351985D01*
X180193666Y-141460000D01*
X180183027Y-141568015D01*
X180151521Y-141671879D01*
X180151519Y-141671882D01*
X180100357Y-141767600D01*
X180031501Y-141851501D01*
X179947600Y-141920357D01*
X179879055Y-141956995D01*
X179851879Y-141971521D01*
X179748015Y-142003027D01*
X179667067Y-142011000D01*
X177012933Y-142011000D01*
X176931985Y-142003027D01*
X176828121Y-141971521D01*
X176800945Y-141956995D01*
X176732400Y-141920357D01*
X176648499Y-141851501D01*
X176579643Y-141767600D01*
X176528481Y-141671882D01*
X176528479Y-141671879D01*
X176496973Y-141568015D01*
X176486334Y-141460000D01*
X176496973Y-141351985D01*
X176528479Y-141248121D01*
X176552424Y-141203324D01*
X176579643Y-141152400D01*
X176648499Y-141068499D01*
X176732400Y-140999643D01*
X176800945Y-140963005D01*
X176828121Y-140948479D01*
X176931985Y-140916973D01*
X177012933Y-140909000D01*
X179667067Y-140909000D01*
X179748015Y-140916973D01*
X179748015Y-140916973D01*
G37*
G36*
X161108496Y-137916675D02*
G01*
X161419513Y-138045503D01*
X161419515Y-138045504D01*
X161699424Y-138232533D01*
X161937467Y-138470576D01*
X162124496Y-138750485D01*
X162124497Y-138750487D01*
X162253325Y-139061504D01*
X162319000Y-139391677D01*
X162319000Y-139728323D01*
X162253325Y-140058496D01*
X162124497Y-140369513D01*
X162124496Y-140369515D01*
X161937467Y-140649424D01*
X161699424Y-140887467D01*
X161419515Y-141074496D01*
X161419514Y-141074497D01*
X161419513Y-141074497D01*
X161108496Y-141203325D01*
X160778323Y-141269000D01*
X160441677Y-141269000D01*
X160111504Y-141203325D01*
X159800487Y-141074497D01*
X159800486Y-141074497D01*
X159800485Y-141074496D01*
X159520576Y-140887467D01*
X159282533Y-140649424D01*
X159095504Y-140369515D01*
X159095503Y-140369513D01*
X158966675Y-140058496D01*
X158901000Y-139728323D01*
X158901000Y-139391677D01*
X158966675Y-139061504D01*
X159095503Y-138750487D01*
X159095504Y-138750485D01*
X159282533Y-138470576D01*
X159520576Y-138232533D01*
X159800485Y-138045504D01*
X159800487Y-138045503D01*
X160111504Y-137916675D01*
X160441677Y-137851000D01*
X160778323Y-137851000D01*
X161108496Y-137916675D01*
X161108496Y-137916675D01*
G37*
G36*
X179559059Y-138537860D02*
G01*
X179695732Y-138594472D01*
X179818735Y-138676660D01*
X179923340Y-138781265D01*
X180005528Y-138904268D01*
X180062140Y-139040941D01*
X180091000Y-139186033D01*
X180091000Y-139333967D01*
X180062140Y-139479059D01*
X180005528Y-139615732D01*
X179923340Y-139738735D01*
X179818735Y-139843340D01*
X179695732Y-139925528D01*
X179695731Y-139925529D01*
X179695730Y-139925529D01*
X179559059Y-139982140D01*
X179413968Y-140011000D01*
X179266032Y-140011000D01*
X179120941Y-139982140D01*
X178984270Y-139925529D01*
X178984269Y-139925529D01*
X178984268Y-139925528D01*
X178861265Y-139843340D01*
X178756660Y-139738735D01*
X178674472Y-139615732D01*
X178617860Y-139479059D01*
X178589000Y-139333967D01*
X178589000Y-139186033D01*
X178617860Y-139040941D01*
X178674472Y-138904268D01*
X178756660Y-138781265D01*
X178861265Y-138676660D01*
X178984268Y-138594472D01*
X179120941Y-138537860D01*
X179266032Y-138509000D01*
X179413968Y-138509000D01*
X179559059Y-138537860D01*
X179559059Y-138537860D01*
G37*
G36*
X177559059Y-138537860D02*
G01*
X177695732Y-138594472D01*
X177818735Y-138676660D01*
X177923340Y-138781265D01*
X178005528Y-138904268D01*
X178062140Y-139040941D01*
X178091000Y-139186033D01*
X178091000Y-139333967D01*
X178062140Y-139479059D01*
X178005528Y-139615732D01*
X177923340Y-139738735D01*
X177818735Y-139843340D01*
X177695732Y-139925528D01*
X177695731Y-139925529D01*
X177695730Y-139925529D01*
X177559059Y-139982140D01*
X177413968Y-140011000D01*
X177266032Y-140011000D01*
X177120941Y-139982140D01*
X176984270Y-139925529D01*
X176984269Y-139925529D01*
X176984268Y-139925528D01*
X176861265Y-139843340D01*
X176756660Y-139738735D01*
X176674472Y-139615732D01*
X176617860Y-139479059D01*
X176589000Y-139333967D01*
X176589000Y-139186033D01*
X176617860Y-139040941D01*
X176674472Y-138904268D01*
X176756660Y-138781265D01*
X176861265Y-138676660D01*
X176984268Y-138594472D01*
X177120941Y-138537860D01*
X177266032Y-138509000D01*
X177413968Y-138509000D01*
X177559059Y-138537860D01*
X177559059Y-138537860D01*
G37*
G36*
X197892205Y-136705200D02*
G01*
X198025097Y-136745513D01*
X198147571Y-136810977D01*
X198254923Y-136899077D01*
X198343023Y-137006429D01*
X198408487Y-137128903D01*
X198448800Y-137261795D01*
X198462411Y-137400000D01*
X198448800Y-137538205D01*
X198408487Y-137671097D01*
X198343023Y-137793571D01*
X198254923Y-137900923D01*
X198147571Y-137989023D01*
X198025097Y-138054487D01*
X197892205Y-138094800D01*
X197788636Y-138105000D01*
X196411364Y-138105000D01*
X196307795Y-138094800D01*
X196174903Y-138054487D01*
X196052429Y-137989023D01*
X195945077Y-137900923D01*
X195856977Y-137793571D01*
X195791513Y-137671097D01*
X195751200Y-137538205D01*
X195737589Y-137400000D01*
X195751200Y-137261795D01*
X195791513Y-137128903D01*
X195856977Y-137006429D01*
X195945077Y-136899077D01*
X196052429Y-136810977D01*
X196174903Y-136745513D01*
X196307795Y-136705200D01*
X196411364Y-136695000D01*
X197788636Y-136695000D01*
X197892205Y-136705200D01*
X197892205Y-136705200D01*
G37*
G36*
X204789890Y-136774017D02*
G01*
X204879119Y-136810977D01*
X204908364Y-136823091D01*
X205014988Y-136894335D01*
X205105665Y-136985012D01*
X205171950Y-137084214D01*
X205176910Y-137091638D01*
X205225983Y-137210110D01*
X205229065Y-137225602D01*
X205251000Y-137335882D01*
X205251000Y-137464118D01*
X205225983Y-137589890D01*
X205176909Y-137708364D01*
X205105665Y-137814988D01*
X205014988Y-137905665D01*
X204908364Y-137976909D01*
X204908363Y-137976910D01*
X204908362Y-137976910D01*
X204789890Y-138025983D01*
X204664119Y-138051000D01*
X204535881Y-138051000D01*
X204410110Y-138025983D01*
X204291638Y-137976910D01*
X204291637Y-137976910D01*
X204291636Y-137976909D01*
X204185012Y-137905665D01*
X204094335Y-137814988D01*
X204023091Y-137708364D01*
X203974017Y-137589890D01*
X203949000Y-137464118D01*
X203949000Y-137335882D01*
X203970936Y-137225602D01*
X203974017Y-137210110D01*
X204023090Y-137091638D01*
X204028051Y-137084214D01*
X204094335Y-136985012D01*
X204185012Y-136894335D01*
X204291636Y-136823091D01*
X204320882Y-136810977D01*
X204410110Y-136774017D01*
X204535881Y-136749000D01*
X204664119Y-136749000D01*
X204789890Y-136774017D01*
X204789890Y-136774017D01*
G37*
G36*
X202289890Y-136774017D02*
G01*
X202379119Y-136810977D01*
X202408364Y-136823091D01*
X202514988Y-136894335D01*
X202605665Y-136985012D01*
X202671950Y-137084214D01*
X202676910Y-137091638D01*
X202725983Y-137210110D01*
X202729065Y-137225602D01*
X202751000Y-137335882D01*
X202751000Y-137464118D01*
X202725983Y-137589890D01*
X202676909Y-137708364D01*
X202605665Y-137814988D01*
X202514988Y-137905665D01*
X202408364Y-137976909D01*
X202408363Y-137976910D01*
X202408362Y-137976910D01*
X202289890Y-138025983D01*
X202164119Y-138051000D01*
X202035881Y-138051000D01*
X201910110Y-138025983D01*
X201791638Y-137976910D01*
X201791637Y-137976910D01*
X201791636Y-137976909D01*
X201685012Y-137905665D01*
X201594335Y-137814988D01*
X201523091Y-137708364D01*
X201474017Y-137589890D01*
X201449000Y-137464118D01*
X201449000Y-137335882D01*
X201470936Y-137225602D01*
X201474017Y-137210110D01*
X201523090Y-137091638D01*
X201528051Y-137084214D01*
X201594335Y-136985012D01*
X201685012Y-136894335D01*
X201791636Y-136823091D01*
X201820882Y-136810977D01*
X201910110Y-136774017D01*
X202035881Y-136749000D01*
X202164119Y-136749000D01*
X202289890Y-136774017D01*
X202289890Y-136774017D01*
G37*
G36*
X179559059Y-136537860D02*
G01*
X179695732Y-136594472D01*
X179818735Y-136676660D01*
X179923340Y-136781265D01*
X179951287Y-136823091D01*
X180005529Y-136904270D01*
X180062140Y-137040941D01*
X180091000Y-137186032D01*
X180091000Y-137333968D01*
X180065112Y-137464118D01*
X180062140Y-137479059D01*
X180005528Y-137615732D01*
X179923340Y-137738735D01*
X179818735Y-137843340D01*
X179695732Y-137925528D01*
X179695731Y-137925529D01*
X179695730Y-137925529D01*
X179559059Y-137982140D01*
X179413968Y-138011000D01*
X179266032Y-138011000D01*
X179120941Y-137982140D01*
X178984270Y-137925529D01*
X178984269Y-137925529D01*
X178984268Y-137925528D01*
X178861265Y-137843340D01*
X178756660Y-137738735D01*
X178674472Y-137615732D01*
X178617860Y-137479059D01*
X178614888Y-137464118D01*
X178589000Y-137333968D01*
X178589000Y-137186032D01*
X178617860Y-137040941D01*
X178674471Y-136904270D01*
X178728713Y-136823091D01*
X178756660Y-136781265D01*
X178861265Y-136676660D01*
X178984268Y-136594472D01*
X179120941Y-136537860D01*
X179266032Y-136509000D01*
X179413968Y-136509000D01*
X179559059Y-136537860D01*
X179559059Y-136537860D01*
G37*
G36*
X177559059Y-136537860D02*
G01*
X177695732Y-136594472D01*
X177818735Y-136676660D01*
X177923340Y-136781265D01*
X177951287Y-136823091D01*
X178005529Y-136904270D01*
X178062140Y-137040941D01*
X178091000Y-137186032D01*
X178091000Y-137333968D01*
X178065112Y-137464118D01*
X178062140Y-137479059D01*
X178005528Y-137615732D01*
X177923340Y-137738735D01*
X177818735Y-137843340D01*
X177695732Y-137925528D01*
X177695731Y-137925529D01*
X177695730Y-137925529D01*
X177559059Y-137982140D01*
X177413968Y-138011000D01*
X177266032Y-138011000D01*
X177120941Y-137982140D01*
X176984270Y-137925529D01*
X176984269Y-137925529D01*
X176984268Y-137925528D01*
X176861265Y-137843340D01*
X176756660Y-137738735D01*
X176674472Y-137615732D01*
X176617860Y-137479059D01*
X176614888Y-137464118D01*
X176589000Y-137333968D01*
X176589000Y-137186032D01*
X176617860Y-137040941D01*
X176674471Y-136904270D01*
X176728713Y-136823091D01*
X176756660Y-136781265D01*
X176861265Y-136676660D01*
X176984268Y-136594472D01*
X177120941Y-136537860D01*
X177266032Y-136509000D01*
X177413968Y-136509000D01*
X177559059Y-136537860D01*
X177559059Y-136537860D01*
G37*
G36*
X163469244Y-135739699D02*
G01*
X163543142Y-135754398D01*
X163682364Y-135812065D01*
X163807659Y-135895785D01*
X163914215Y-136002341D01*
X163997935Y-136127636D01*
X164055602Y-136266858D01*
X164055602Y-136266859D01*
X164076421Y-136371521D01*
X164085000Y-136414654D01*
X164085000Y-136565346D01*
X164055602Y-136713142D01*
X163997935Y-136852364D01*
X163914215Y-136977659D01*
X163807659Y-137084215D01*
X163682364Y-137167935D01*
X163543142Y-137225602D01*
X163469244Y-137240301D01*
X163395347Y-137255000D01*
X163244653Y-137255000D01*
X163170756Y-137240301D01*
X163096858Y-137225602D01*
X162957636Y-137167935D01*
X162832341Y-137084215D01*
X162725785Y-136977659D01*
X162642065Y-136852364D01*
X162584398Y-136713142D01*
X162555000Y-136565346D01*
X162555000Y-136414654D01*
X162563580Y-136371521D01*
X162584398Y-136266859D01*
X162584398Y-136266858D01*
X162642065Y-136127636D01*
X162725785Y-136002341D01*
X162832341Y-135895785D01*
X162957636Y-135812065D01*
X163096858Y-135754398D01*
X163170756Y-135739699D01*
X163244653Y-135725000D01*
X163395347Y-135725000D01*
X163469244Y-135739699D01*
X163469244Y-135739699D01*
G37*
G36*
X175698015Y-135316973D02*
G01*
X175801879Y-135348479D01*
X175829055Y-135363005D01*
X175897600Y-135399643D01*
X175981501Y-135468499D01*
X176050357Y-135552400D01*
X176086995Y-135620945D01*
X176101521Y-135648121D01*
X176133027Y-135751985D01*
X176143666Y-135860000D01*
X176133027Y-135968015D01*
X176101521Y-136071879D01*
X176101519Y-136071882D01*
X176050357Y-136167600D01*
X175981501Y-136251501D01*
X175897600Y-136320357D01*
X175829055Y-136356995D01*
X175801879Y-136371521D01*
X175698015Y-136403027D01*
X175617067Y-136411000D01*
X173662933Y-136411000D01*
X173581985Y-136403027D01*
X173478121Y-136371521D01*
X173450945Y-136356995D01*
X173382400Y-136320357D01*
X173298499Y-136251501D01*
X173229643Y-136167600D01*
X173178481Y-136071882D01*
X173178479Y-136071879D01*
X173146973Y-135968015D01*
X173136334Y-135860000D01*
X173146973Y-135751985D01*
X173178479Y-135648121D01*
X173193005Y-135620945D01*
X173229643Y-135552400D01*
X173298499Y-135468499D01*
X173382400Y-135399643D01*
X173450945Y-135363005D01*
X173478121Y-135348479D01*
X173581985Y-135316973D01*
X173662933Y-135309000D01*
X175617067Y-135309000D01*
X175698015Y-135316973D01*
X175698015Y-135316973D01*
G37*
G36*
X183098015Y-135316973D02*
G01*
X183201879Y-135348479D01*
X183229055Y-135363005D01*
X183297600Y-135399643D01*
X183381501Y-135468499D01*
X183450357Y-135552400D01*
X183486995Y-135620945D01*
X183501521Y-135648121D01*
X183533027Y-135751985D01*
X183543666Y-135860000D01*
X183533027Y-135968015D01*
X183501521Y-136071879D01*
X183501519Y-136071882D01*
X183450357Y-136167600D01*
X183381501Y-136251501D01*
X183297600Y-136320357D01*
X183229055Y-136356995D01*
X183201879Y-136371521D01*
X183098015Y-136403027D01*
X183017067Y-136411000D01*
X181062933Y-136411000D01*
X180981985Y-136403027D01*
X180878121Y-136371521D01*
X180850945Y-136356995D01*
X180782400Y-136320357D01*
X180698499Y-136251501D01*
X180629643Y-136167600D01*
X180578481Y-136071882D01*
X180578479Y-136071879D01*
X180546973Y-135968015D01*
X180536334Y-135860000D01*
X180546973Y-135751985D01*
X180578479Y-135648121D01*
X180593005Y-135620945D01*
X180629643Y-135552400D01*
X180698499Y-135468499D01*
X180782400Y-135399643D01*
X180850945Y-135363005D01*
X180878121Y-135348479D01*
X180981985Y-135316973D01*
X181062933Y-135309000D01*
X183017067Y-135309000D01*
X183098015Y-135316973D01*
X183098015Y-135316973D01*
G37*
G36*
X163469244Y-133239699D02*
G01*
X163543142Y-133254398D01*
X163682364Y-133312065D01*
X163807659Y-133395785D01*
X163914215Y-133502341D01*
X163997935Y-133627636D01*
X164055602Y-133766858D01*
X164085000Y-133914654D01*
X164085000Y-134065346D01*
X164055602Y-134213142D01*
X163997935Y-134352364D01*
X163914215Y-134477659D01*
X163807659Y-134584215D01*
X163682364Y-134667935D01*
X163543142Y-134725602D01*
X163469244Y-134740301D01*
X163395347Y-134755000D01*
X163244653Y-134755000D01*
X163170756Y-134740301D01*
X163096858Y-134725602D01*
X162957636Y-134667935D01*
X162832341Y-134584215D01*
X162725785Y-134477659D01*
X162642065Y-134352364D01*
X162584398Y-134213142D01*
X162555000Y-134065346D01*
X162555000Y-133914654D01*
X162584398Y-133766858D01*
X162642065Y-133627636D01*
X162725785Y-133502341D01*
X162832341Y-133395785D01*
X162957636Y-133312065D01*
X163096858Y-133254398D01*
X163170756Y-133239699D01*
X163244653Y-133225000D01*
X163395347Y-133225000D01*
X163469244Y-133239699D01*
X163469244Y-133239699D01*
G37*
G36*
X202238205Y-131051200D02*
G01*
X202371097Y-131091513D01*
X202493571Y-131156977D01*
X202600923Y-131245077D01*
X202689023Y-131352429D01*
X202754487Y-131474903D01*
X202794800Y-131607795D01*
X202805000Y-131711364D01*
X202805000Y-133088636D01*
X202794800Y-133192205D01*
X202754487Y-133325097D01*
X202689023Y-133447571D01*
X202600923Y-133554922D01*
X202493570Y-133643023D01*
X202371096Y-133708487D01*
X202238204Y-133748800D01*
X202100000Y-133762411D01*
X201961795Y-133748800D01*
X201828903Y-133708487D01*
X201706429Y-133643023D01*
X201599078Y-133554923D01*
X201510977Y-133447570D01*
X201445513Y-133325096D01*
X201405200Y-133192204D01*
X201395000Y-133088635D01*
X201395001Y-131711364D01*
X201405201Y-131607795D01*
X201445514Y-131474903D01*
X201510978Y-131352429D01*
X201599078Y-131245077D01*
X201706430Y-131156977D01*
X201828904Y-131091513D01*
X201961796Y-131051200D01*
X202100000Y-131037589D01*
X202238205Y-131051200D01*
X202238205Y-131051200D01*
G37*
G36*
X197289890Y-131774017D02*
G01*
X197408364Y-131823091D01*
X197514988Y-131894335D01*
X197605665Y-131985012D01*
X197659343Y-132065346D01*
X197676910Y-132091638D01*
X197725983Y-132210110D01*
X197751000Y-132335881D01*
X197751000Y-132464119D01*
X197725983Y-132589890D01*
X197693656Y-132667935D01*
X197676909Y-132708364D01*
X197605665Y-132814988D01*
X197514988Y-132905665D01*
X197408364Y-132976909D01*
X197408363Y-132976910D01*
X197408362Y-132976910D01*
X197289890Y-133025983D01*
X197164119Y-133051000D01*
X197035881Y-133051000D01*
X196910110Y-133025983D01*
X196791638Y-132976910D01*
X196791637Y-132976910D01*
X196791636Y-132976909D01*
X196685012Y-132905665D01*
X196594335Y-132814988D01*
X196523091Y-132708364D01*
X196506345Y-132667935D01*
X196474017Y-132589890D01*
X196449000Y-132464119D01*
X196449000Y-132335881D01*
X196474017Y-132210110D01*
X196523090Y-132091638D01*
X196540658Y-132065346D01*
X196594335Y-131985012D01*
X196685012Y-131894335D01*
X196791636Y-131823091D01*
X196910110Y-131774017D01*
X197035881Y-131749000D01*
X197164119Y-131749000D01*
X197289890Y-131774017D01*
X197289890Y-131774017D01*
G37*
G36*
X163469244Y-131239699D02*
G01*
X163543142Y-131254398D01*
X163682364Y-131312065D01*
X163807659Y-131395785D01*
X163914215Y-131502341D01*
X163997935Y-131627636D01*
X164048205Y-131749000D01*
X164055602Y-131766859D01*
X164080959Y-131894335D01*
X164085000Y-131914654D01*
X164085000Y-132065346D01*
X164055602Y-132213142D01*
X163997935Y-132352364D01*
X163914215Y-132477659D01*
X163807659Y-132584215D01*
X163682364Y-132667935D01*
X163543142Y-132725602D01*
X163469244Y-132740301D01*
X163395347Y-132755000D01*
X163244653Y-132755000D01*
X163170756Y-132740301D01*
X163096858Y-132725602D01*
X162957636Y-132667935D01*
X162832341Y-132584215D01*
X162725785Y-132477659D01*
X162642065Y-132352364D01*
X162584398Y-132213142D01*
X162555000Y-132065346D01*
X162555000Y-131914654D01*
X162559042Y-131894335D01*
X162584398Y-131766859D01*
X162591795Y-131749000D01*
X162642065Y-131627636D01*
X162725785Y-131502341D01*
X162832341Y-131395785D01*
X162957636Y-131312065D01*
X163096858Y-131254398D01*
X163170756Y-131239699D01*
X163244653Y-131225000D01*
X163395347Y-131225000D01*
X163469244Y-131239699D01*
X163469244Y-131239699D01*
G37*
G36*
X164085000Y-130255000D02*
G01*
X162555000Y-130255000D01*
X162555000Y-128725000D01*
X164085000Y-128725000D01*
X164085000Y-130255000D01*
X164085000Y-130255000D01*
G37*
G36*
X161108496Y-124776675D02*
G01*
X161419513Y-124905503D01*
X161419515Y-124905504D01*
X161699424Y-125092533D01*
X161937467Y-125330576D01*
X162124496Y-125610485D01*
X162124497Y-125610487D01*
X162253325Y-125921504D01*
X162319000Y-126251677D01*
X162319000Y-126588323D01*
X162253325Y-126918496D01*
X162181607Y-127091638D01*
X162124496Y-127229515D01*
X161937467Y-127509424D01*
X161699424Y-127747467D01*
X161419515Y-127934496D01*
X161419514Y-127934497D01*
X161419513Y-127934497D01*
X161108496Y-128063325D01*
X160778323Y-128129000D01*
X160441677Y-128129000D01*
X160111504Y-128063325D01*
X159800487Y-127934497D01*
X159800486Y-127934497D01*
X159800485Y-127934496D01*
X159520576Y-127747467D01*
X159282533Y-127509424D01*
X159095504Y-127229515D01*
X159038393Y-127091638D01*
X158966675Y-126918496D01*
X158901000Y-126588323D01*
X158901000Y-126251677D01*
X158966675Y-125921504D01*
X159095503Y-125610487D01*
X159095504Y-125610485D01*
X159282533Y-125330576D01*
X159520576Y-125092533D01*
X159800485Y-124905504D01*
X159800487Y-124905503D01*
X160111504Y-124776675D01*
X160441677Y-124711000D01*
X160778323Y-124711000D01*
X161108496Y-124776675D01*
X161108496Y-124776675D01*
G37*
G36*
X197892205Y-126705200D02*
G01*
X198025097Y-126745513D01*
X198147571Y-126810977D01*
X198254923Y-126899077D01*
X198343023Y-127006429D01*
X198408487Y-127128903D01*
X198448800Y-127261795D01*
X198462411Y-127400000D01*
X198448800Y-127538205D01*
X198408487Y-127671097D01*
X198343023Y-127793571D01*
X198254923Y-127900923D01*
X198147571Y-127989023D01*
X198025097Y-128054487D01*
X197892205Y-128094800D01*
X197788636Y-128105000D01*
X196411364Y-128105000D01*
X196307795Y-128094800D01*
X196174903Y-128054487D01*
X196052429Y-127989023D01*
X195945077Y-127900923D01*
X195856977Y-127793571D01*
X195791513Y-127671097D01*
X195751200Y-127538205D01*
X195737589Y-127400000D01*
X195751200Y-127261795D01*
X195791513Y-127128903D01*
X195856977Y-127006429D01*
X195945077Y-126899077D01*
X196052429Y-126810977D01*
X196174903Y-126745513D01*
X196307795Y-126705200D01*
X196411364Y-126695000D01*
X197788636Y-126695000D01*
X197892205Y-126705200D01*
X197892205Y-126705200D01*
G37*
G36*
X202289890Y-126774017D02*
G01*
X202379119Y-126810977D01*
X202408364Y-126823091D01*
X202514988Y-126894335D01*
X202605665Y-126985012D01*
X202676910Y-127091638D01*
X202725983Y-127210110D01*
X202751000Y-127335881D01*
X202751000Y-127464119D01*
X202741988Y-127509424D01*
X202725983Y-127589890D01*
X202676909Y-127708364D01*
X202605665Y-127814988D01*
X202514988Y-127905665D01*
X202408364Y-127976909D01*
X202408363Y-127976910D01*
X202408362Y-127976910D01*
X202289890Y-128025983D01*
X202164119Y-128051000D01*
X202035881Y-128051000D01*
X201910110Y-128025983D01*
X201791638Y-127976910D01*
X201791637Y-127976910D01*
X201791636Y-127976909D01*
X201685012Y-127905665D01*
X201594335Y-127814988D01*
X201523091Y-127708364D01*
X201474017Y-127589890D01*
X201458012Y-127509424D01*
X201449000Y-127464119D01*
X201449000Y-127335881D01*
X201474017Y-127210110D01*
X201523090Y-127091638D01*
X201594335Y-126985012D01*
X201685012Y-126894335D01*
X201791636Y-126823091D01*
X201820882Y-126810977D01*
X201910110Y-126774017D01*
X202035881Y-126749000D01*
X202164119Y-126749000D01*
X202289890Y-126774017D01*
X202289890Y-126774017D01*
G37*
G36*
X204789890Y-126774017D02*
G01*
X204879119Y-126810977D01*
X204908364Y-126823091D01*
X205014988Y-126894335D01*
X205105665Y-126985012D01*
X205176910Y-127091638D01*
X205225983Y-127210110D01*
X205251000Y-127335881D01*
X205251000Y-127464119D01*
X205241988Y-127509424D01*
X205225983Y-127589890D01*
X205176909Y-127708364D01*
X205105665Y-127814988D01*
X205014988Y-127905665D01*
X204908364Y-127976909D01*
X204908363Y-127976910D01*
X204908362Y-127976910D01*
X204789890Y-128025983D01*
X204664119Y-128051000D01*
X204535881Y-128051000D01*
X204410110Y-128025983D01*
X204291638Y-127976910D01*
X204291637Y-127976910D01*
X204291636Y-127976909D01*
X204185012Y-127905665D01*
X204094335Y-127814988D01*
X204023091Y-127708364D01*
X203974017Y-127589890D01*
X203958012Y-127509424D01*
X203949000Y-127464119D01*
X203949000Y-127335881D01*
X203974017Y-127210110D01*
X204023090Y-127091638D01*
X204094335Y-126985012D01*
X204185012Y-126894335D01*
X204291636Y-126823091D01*
X204320882Y-126810977D01*
X204410110Y-126774017D01*
X204535881Y-126749000D01*
X204664119Y-126749000D01*
X204789890Y-126774017D01*
X204789890Y-126774017D01*
G37*
G36*
X194103512Y-109803927D02*
G01*
X194252812Y-109833624D01*
X194416784Y-109901544D01*
X194564354Y-110000147D01*
X194689853Y-110125646D01*
X194788456Y-110273216D01*
X194856376Y-110437188D01*
X194891000Y-110611259D01*
X194891000Y-110788741D01*
X194856376Y-110962812D01*
X194788456Y-111126784D01*
X194689853Y-111274354D01*
X194564354Y-111399853D01*
X194416784Y-111498456D01*
X194252812Y-111566376D01*
X194103512Y-111596073D01*
X194078742Y-111601000D01*
X193901258Y-111601000D01*
X193876488Y-111596073D01*
X193727188Y-111566376D01*
X193563216Y-111498456D01*
X193415646Y-111399853D01*
X193290147Y-111274354D01*
X193191544Y-111126784D01*
X193123624Y-110962812D01*
X193089000Y-110788741D01*
X193089000Y-110611259D01*
X193123624Y-110437188D01*
X193191544Y-110273216D01*
X193290147Y-110125646D01*
X193415646Y-110000147D01*
X193563216Y-109901544D01*
X193727188Y-109833624D01*
X193876488Y-109803927D01*
X193901258Y-109799000D01*
X194078742Y-109799000D01*
X194103512Y-109803927D01*
X194103512Y-109803927D01*
G37*
G36*
X167703512Y-109803927D02*
G01*
X167852812Y-109833624D01*
X168016784Y-109901544D01*
X168164354Y-110000147D01*
X168289853Y-110125646D01*
X168388456Y-110273216D01*
X168456376Y-110437188D01*
X168491000Y-110611259D01*
X168491000Y-110788741D01*
X168456376Y-110962812D01*
X168388456Y-111126784D01*
X168289853Y-111274354D01*
X168164354Y-111399853D01*
X168016784Y-111498456D01*
X167852812Y-111566376D01*
X167703512Y-111596073D01*
X167678742Y-111601000D01*
X167501258Y-111601000D01*
X167476488Y-111596073D01*
X167327188Y-111566376D01*
X167163216Y-111498456D01*
X167015646Y-111399853D01*
X166890147Y-111274354D01*
X166791544Y-111126784D01*
X166723624Y-110962812D01*
X166689000Y-110788741D01*
X166689000Y-110611259D01*
X166723624Y-110437188D01*
X166791544Y-110273216D01*
X166890147Y-110125646D01*
X167015646Y-110000147D01*
X167163216Y-109901544D01*
X167327188Y-109833624D01*
X167476488Y-109803927D01*
X167501258Y-109799000D01*
X167678742Y-109799000D01*
X167703512Y-109803927D01*
X167703512Y-109803927D01*
G37*
G36*
X191903512Y-109803927D02*
G01*
X192052812Y-109833624D01*
X192216784Y-109901544D01*
X192364354Y-110000147D01*
X192489853Y-110125646D01*
X192588456Y-110273216D01*
X192656376Y-110437188D01*
X192691000Y-110611259D01*
X192691000Y-110788741D01*
X192656376Y-110962812D01*
X192588456Y-111126784D01*
X192489853Y-111274354D01*
X192364354Y-111399853D01*
X192216784Y-111498456D01*
X192052812Y-111566376D01*
X191903512Y-111596073D01*
X191878742Y-111601000D01*
X191701258Y-111601000D01*
X191676488Y-111596073D01*
X191527188Y-111566376D01*
X191363216Y-111498456D01*
X191215646Y-111399853D01*
X191090147Y-111274354D01*
X190991544Y-111126784D01*
X190923624Y-110962812D01*
X190889000Y-110788741D01*
X190889000Y-110611259D01*
X190923624Y-110437188D01*
X190991544Y-110273216D01*
X191090147Y-110125646D01*
X191215646Y-110000147D01*
X191363216Y-109901544D01*
X191527188Y-109833624D01*
X191676488Y-109803927D01*
X191701258Y-109799000D01*
X191878742Y-109799000D01*
X191903512Y-109803927D01*
X191903512Y-109803927D01*
G37*
G36*
X189703512Y-109803927D02*
G01*
X189852812Y-109833624D01*
X190016784Y-109901544D01*
X190164354Y-110000147D01*
X190289853Y-110125646D01*
X190388456Y-110273216D01*
X190456376Y-110437188D01*
X190491000Y-110611259D01*
X190491000Y-110788741D01*
X190456376Y-110962812D01*
X190388456Y-111126784D01*
X190289853Y-111274354D01*
X190164354Y-111399853D01*
X190016784Y-111498456D01*
X189852812Y-111566376D01*
X189703512Y-111596073D01*
X189678742Y-111601000D01*
X189501258Y-111601000D01*
X189476488Y-111596073D01*
X189327188Y-111566376D01*
X189163216Y-111498456D01*
X189015646Y-111399853D01*
X188890147Y-111274354D01*
X188791544Y-111126784D01*
X188723624Y-110962812D01*
X188689000Y-110788741D01*
X188689000Y-110611259D01*
X188723624Y-110437188D01*
X188791544Y-110273216D01*
X188890147Y-110125646D01*
X189015646Y-110000147D01*
X189163216Y-109901544D01*
X189327188Y-109833624D01*
X189476488Y-109803927D01*
X189501258Y-109799000D01*
X189678742Y-109799000D01*
X189703512Y-109803927D01*
X189703512Y-109803927D01*
G37*
G36*
X187503512Y-109803927D02*
G01*
X187652812Y-109833624D01*
X187816784Y-109901544D01*
X187964354Y-110000147D01*
X188089853Y-110125646D01*
X188188456Y-110273216D01*
X188256376Y-110437188D01*
X188291000Y-110611259D01*
X188291000Y-110788741D01*
X188256376Y-110962812D01*
X188188456Y-111126784D01*
X188089853Y-111274354D01*
X187964354Y-111399853D01*
X187816784Y-111498456D01*
X187652812Y-111566376D01*
X187503512Y-111596073D01*
X187478742Y-111601000D01*
X187301258Y-111601000D01*
X187276488Y-111596073D01*
X187127188Y-111566376D01*
X186963216Y-111498456D01*
X186815646Y-111399853D01*
X186690147Y-111274354D01*
X186591544Y-111126784D01*
X186523624Y-110962812D01*
X186489000Y-110788741D01*
X186489000Y-110611259D01*
X186523624Y-110437188D01*
X186591544Y-110273216D01*
X186690147Y-110125646D01*
X186815646Y-110000147D01*
X186963216Y-109901544D01*
X187127188Y-109833624D01*
X187276488Y-109803927D01*
X187301258Y-109799000D01*
X187478742Y-109799000D01*
X187503512Y-109803927D01*
X187503512Y-109803927D01*
G37*
G36*
X172103512Y-109803927D02*
G01*
X172252812Y-109833624D01*
X172416784Y-109901544D01*
X172564354Y-110000147D01*
X172689853Y-110125646D01*
X172788456Y-110273216D01*
X172856376Y-110437188D01*
X172891000Y-110611259D01*
X172891000Y-110788741D01*
X172856376Y-110962812D01*
X172788456Y-111126784D01*
X172689853Y-111274354D01*
X172564354Y-111399853D01*
X172416784Y-111498456D01*
X172252812Y-111566376D01*
X172103512Y-111596073D01*
X172078742Y-111601000D01*
X171901258Y-111601000D01*
X171876488Y-111596073D01*
X171727188Y-111566376D01*
X171563216Y-111498456D01*
X171415646Y-111399853D01*
X171290147Y-111274354D01*
X171191544Y-111126784D01*
X171123624Y-110962812D01*
X171089000Y-110788741D01*
X171089000Y-110611259D01*
X171123624Y-110437188D01*
X171191544Y-110273216D01*
X171290147Y-110125646D01*
X171415646Y-110000147D01*
X171563216Y-109901544D01*
X171727188Y-109833624D01*
X171876488Y-109803927D01*
X171901258Y-109799000D01*
X172078742Y-109799000D01*
X172103512Y-109803927D01*
X172103512Y-109803927D01*
G37*
G36*
X169903512Y-109803927D02*
G01*
X170052812Y-109833624D01*
X170216784Y-109901544D01*
X170364354Y-110000147D01*
X170489853Y-110125646D01*
X170588456Y-110273216D01*
X170656376Y-110437188D01*
X170691000Y-110611259D01*
X170691000Y-110788741D01*
X170656376Y-110962812D01*
X170588456Y-111126784D01*
X170489853Y-111274354D01*
X170364354Y-111399853D01*
X170216784Y-111498456D01*
X170052812Y-111566376D01*
X169903512Y-111596073D01*
X169878742Y-111601000D01*
X169701258Y-111601000D01*
X169676488Y-111596073D01*
X169527188Y-111566376D01*
X169363216Y-111498456D01*
X169215646Y-111399853D01*
X169090147Y-111274354D01*
X168991544Y-111126784D01*
X168923624Y-110962812D01*
X168889000Y-110788741D01*
X168889000Y-110611259D01*
X168923624Y-110437188D01*
X168991544Y-110273216D01*
X169090147Y-110125646D01*
X169215646Y-110000147D01*
X169363216Y-109901544D01*
X169527188Y-109833624D01*
X169676488Y-109803927D01*
X169701258Y-109799000D01*
X169878742Y-109799000D01*
X169903512Y-109803927D01*
X169903512Y-109803927D01*
G37*
G36*
X165503512Y-109803927D02*
G01*
X165652812Y-109833624D01*
X165816784Y-109901544D01*
X165964354Y-110000147D01*
X166089853Y-110125646D01*
X166188456Y-110273216D01*
X166256376Y-110437188D01*
X166291000Y-110611259D01*
X166291000Y-110788741D01*
X166256376Y-110962812D01*
X166188456Y-111126784D01*
X166089853Y-111274354D01*
X165964354Y-111399853D01*
X165816784Y-111498456D01*
X165652812Y-111566376D01*
X165503512Y-111596073D01*
X165478742Y-111601000D01*
X165301258Y-111601000D01*
X165276488Y-111596073D01*
X165127188Y-111566376D01*
X164963216Y-111498456D01*
X164815646Y-111399853D01*
X164690147Y-111274354D01*
X164591544Y-111126784D01*
X164523624Y-110962812D01*
X164489000Y-110788741D01*
X164489000Y-110611259D01*
X164523624Y-110437188D01*
X164591544Y-110273216D01*
X164690147Y-110125646D01*
X164815646Y-110000147D01*
X164963216Y-109901544D01*
X165127188Y-109833624D01*
X165276488Y-109803927D01*
X165301258Y-109799000D01*
X165478742Y-109799000D01*
X165503512Y-109803927D01*
X165503512Y-109803927D01*
G37*
G36*
X163303512Y-109803927D02*
G01*
X163452812Y-109833624D01*
X163616784Y-109901544D01*
X163764354Y-110000147D01*
X163889853Y-110125646D01*
X163988456Y-110273216D01*
X164056376Y-110437188D01*
X164091000Y-110611259D01*
X164091000Y-110788741D01*
X164056376Y-110962812D01*
X163988456Y-111126784D01*
X163889853Y-111274354D01*
X163764354Y-111399853D01*
X163616784Y-111498456D01*
X163452812Y-111566376D01*
X163303512Y-111596073D01*
X163278742Y-111601000D01*
X163101258Y-111601000D01*
X163076488Y-111596073D01*
X162927188Y-111566376D01*
X162763216Y-111498456D01*
X162615646Y-111399853D01*
X162490147Y-111274354D01*
X162391544Y-111126784D01*
X162323624Y-110962812D01*
X162289000Y-110788741D01*
X162289000Y-110611259D01*
X162323624Y-110437188D01*
X162391544Y-110273216D01*
X162490147Y-110125646D01*
X162615646Y-110000147D01*
X162763216Y-109901544D01*
X162927188Y-109833624D01*
X163076488Y-109803927D01*
X163101258Y-109799000D01*
X163278742Y-109799000D01*
X163303512Y-109803927D01*
X163303512Y-109803927D01*
G37*
G36*
X185303512Y-106803927D02*
G01*
X185452812Y-106833624D01*
X185616784Y-106901544D01*
X185764354Y-107000147D01*
X185889853Y-107125646D01*
X185988456Y-107273216D01*
X186056376Y-107437188D01*
X186091000Y-107611259D01*
X186091000Y-107788741D01*
X186056376Y-107962812D01*
X185988456Y-108126784D01*
X185889853Y-108274354D01*
X185764354Y-108399853D01*
X185616784Y-108498456D01*
X185452812Y-108566376D01*
X185303512Y-108596073D01*
X185278742Y-108601000D01*
X185101258Y-108601000D01*
X185076488Y-108596073D01*
X184927188Y-108566376D01*
X184763216Y-108498456D01*
X184615646Y-108399853D01*
X184490147Y-108274354D01*
X184391544Y-108126784D01*
X184323624Y-107962812D01*
X184289000Y-107788741D01*
X184289000Y-107611259D01*
X184323624Y-107437188D01*
X184391544Y-107273216D01*
X184490147Y-107125646D01*
X184615646Y-107000147D01*
X184763216Y-106901544D01*
X184927188Y-106833624D01*
X185076488Y-106803927D01*
X185101258Y-106799000D01*
X185278742Y-106799000D01*
X185303512Y-106803927D01*
X185303512Y-106803927D01*
G37*
G36*
X180903512Y-106803927D02*
G01*
X181052812Y-106833624D01*
X181216784Y-106901544D01*
X181364354Y-107000147D01*
X181489853Y-107125646D01*
X181588456Y-107273216D01*
X181656376Y-107437188D01*
X181691000Y-107611259D01*
X181691000Y-107788741D01*
X181656376Y-107962812D01*
X181588456Y-108126784D01*
X181489853Y-108274354D01*
X181364354Y-108399853D01*
X181216784Y-108498456D01*
X181052812Y-108566376D01*
X180903512Y-108596073D01*
X180878742Y-108601000D01*
X180701258Y-108601000D01*
X180676488Y-108596073D01*
X180527188Y-108566376D01*
X180363216Y-108498456D01*
X180215646Y-108399853D01*
X180090147Y-108274354D01*
X179991544Y-108126784D01*
X179923624Y-107962812D01*
X179889000Y-107788741D01*
X179889000Y-107611259D01*
X179923624Y-107437188D01*
X179991544Y-107273216D01*
X180090147Y-107125646D01*
X180215646Y-107000147D01*
X180363216Y-106901544D01*
X180527188Y-106833624D01*
X180676488Y-106803927D01*
X180701258Y-106799000D01*
X180878742Y-106799000D01*
X180903512Y-106803927D01*
X180903512Y-106803927D01*
G37*
G36*
X178703512Y-106803927D02*
G01*
X178852812Y-106833624D01*
X179016784Y-106901544D01*
X179164354Y-107000147D01*
X179289853Y-107125646D01*
X179388456Y-107273216D01*
X179456376Y-107437188D01*
X179491000Y-107611259D01*
X179491000Y-107788741D01*
X179456376Y-107962812D01*
X179388456Y-108126784D01*
X179289853Y-108274354D01*
X179164354Y-108399853D01*
X179016784Y-108498456D01*
X178852812Y-108566376D01*
X178703512Y-108596073D01*
X178678742Y-108601000D01*
X178501258Y-108601000D01*
X178476488Y-108596073D01*
X178327188Y-108566376D01*
X178163216Y-108498456D01*
X178015646Y-108399853D01*
X177890147Y-108274354D01*
X177791544Y-108126784D01*
X177723624Y-107962812D01*
X177689000Y-107788741D01*
X177689000Y-107611259D01*
X177723624Y-107437188D01*
X177791544Y-107273216D01*
X177890147Y-107125646D01*
X178015646Y-107000147D01*
X178163216Y-106901544D01*
X178327188Y-106833624D01*
X178476488Y-106803927D01*
X178501258Y-106799000D01*
X178678742Y-106799000D01*
X178703512Y-106803927D01*
X178703512Y-106803927D01*
G37*
G36*
X189703512Y-106803927D02*
G01*
X189852812Y-106833624D01*
X190016784Y-106901544D01*
X190164354Y-107000147D01*
X190289853Y-107125646D01*
X190388456Y-107273216D01*
X190456376Y-107437188D01*
X190491000Y-107611259D01*
X190491000Y-107788741D01*
X190456376Y-107962812D01*
X190388456Y-108126784D01*
X190289853Y-108274354D01*
X190164354Y-108399853D01*
X190016784Y-108498456D01*
X189852812Y-108566376D01*
X189703512Y-108596073D01*
X189678742Y-108601000D01*
X189501258Y-108601000D01*
X189476488Y-108596073D01*
X189327188Y-108566376D01*
X189163216Y-108498456D01*
X189015646Y-108399853D01*
X188890147Y-108274354D01*
X188791544Y-108126784D01*
X188723624Y-107962812D01*
X188689000Y-107788741D01*
X188689000Y-107611259D01*
X188723624Y-107437188D01*
X188791544Y-107273216D01*
X188890147Y-107125646D01*
X189015646Y-107000147D01*
X189163216Y-106901544D01*
X189327188Y-106833624D01*
X189476488Y-106803927D01*
X189501258Y-106799000D01*
X189678742Y-106799000D01*
X189703512Y-106803927D01*
X189703512Y-106803927D01*
G37*
G36*
X176503512Y-106803927D02*
G01*
X176652812Y-106833624D01*
X176816784Y-106901544D01*
X176964354Y-107000147D01*
X177089853Y-107125646D01*
X177188456Y-107273216D01*
X177256376Y-107437188D01*
X177291000Y-107611259D01*
X177291000Y-107788741D01*
X177256376Y-107962812D01*
X177188456Y-108126784D01*
X177089853Y-108274354D01*
X176964354Y-108399853D01*
X176816784Y-108498456D01*
X176652812Y-108566376D01*
X176503512Y-108596073D01*
X176478742Y-108601000D01*
X176301258Y-108601000D01*
X176276488Y-108596073D01*
X176127188Y-108566376D01*
X175963216Y-108498456D01*
X175815646Y-108399853D01*
X175690147Y-108274354D01*
X175591544Y-108126784D01*
X175523624Y-107962812D01*
X175489000Y-107788741D01*
X175489000Y-107611259D01*
X175523624Y-107437188D01*
X175591544Y-107273216D01*
X175690147Y-107125646D01*
X175815646Y-107000147D01*
X175963216Y-106901544D01*
X176127188Y-106833624D01*
X176276488Y-106803927D01*
X176301258Y-106799000D01*
X176478742Y-106799000D01*
X176503512Y-106803927D01*
X176503512Y-106803927D01*
G37*
G36*
X174303512Y-106803927D02*
G01*
X174452812Y-106833624D01*
X174616784Y-106901544D01*
X174764354Y-107000147D01*
X174889853Y-107125646D01*
X174988456Y-107273216D01*
X175056376Y-107437188D01*
X175091000Y-107611259D01*
X175091000Y-107788741D01*
X175056376Y-107962812D01*
X174988456Y-108126784D01*
X174889853Y-108274354D01*
X174764354Y-108399853D01*
X174616784Y-108498456D01*
X174452812Y-108566376D01*
X174303512Y-108596073D01*
X174278742Y-108601000D01*
X174101258Y-108601000D01*
X174076488Y-108596073D01*
X173927188Y-108566376D01*
X173763216Y-108498456D01*
X173615646Y-108399853D01*
X173490147Y-108274354D01*
X173391544Y-108126784D01*
X173323624Y-107962812D01*
X173289000Y-107788741D01*
X173289000Y-107611259D01*
X173323624Y-107437188D01*
X173391544Y-107273216D01*
X173490147Y-107125646D01*
X173615646Y-107000147D01*
X173763216Y-106901544D01*
X173927188Y-106833624D01*
X174076488Y-106803927D01*
X174101258Y-106799000D01*
X174278742Y-106799000D01*
X174303512Y-106803927D01*
X174303512Y-106803927D01*
G37*
G36*
X172103512Y-106803927D02*
G01*
X172252812Y-106833624D01*
X172416784Y-106901544D01*
X172564354Y-107000147D01*
X172689853Y-107125646D01*
X172788456Y-107273216D01*
X172856376Y-107437188D01*
X172891000Y-107611259D01*
X172891000Y-107788741D01*
X172856376Y-107962812D01*
X172788456Y-108126784D01*
X172689853Y-108274354D01*
X172564354Y-108399853D01*
X172416784Y-108498456D01*
X172252812Y-108566376D01*
X172103512Y-108596073D01*
X172078742Y-108601000D01*
X171901258Y-108601000D01*
X171876488Y-108596073D01*
X171727188Y-108566376D01*
X171563216Y-108498456D01*
X171415646Y-108399853D01*
X171290147Y-108274354D01*
X171191544Y-108126784D01*
X171123624Y-107962812D01*
X171089000Y-107788741D01*
X171089000Y-107611259D01*
X171123624Y-107437188D01*
X171191544Y-107273216D01*
X171290147Y-107125646D01*
X171415646Y-107000147D01*
X171563216Y-106901544D01*
X171727188Y-106833624D01*
X171876488Y-106803927D01*
X171901258Y-106799000D01*
X172078742Y-106799000D01*
X172103512Y-106803927D01*
X172103512Y-106803927D01*
G37*
G36*
X169903512Y-106803927D02*
G01*
X170052812Y-106833624D01*
X170216784Y-106901544D01*
X170364354Y-107000147D01*
X170489853Y-107125646D01*
X170588456Y-107273216D01*
X170656376Y-107437188D01*
X170691000Y-107611259D01*
X170691000Y-107788741D01*
X170656376Y-107962812D01*
X170588456Y-108126784D01*
X170489853Y-108274354D01*
X170364354Y-108399853D01*
X170216784Y-108498456D01*
X170052812Y-108566376D01*
X169903512Y-108596073D01*
X169878742Y-108601000D01*
X169701258Y-108601000D01*
X169676488Y-108596073D01*
X169527188Y-108566376D01*
X169363216Y-108498456D01*
X169215646Y-108399853D01*
X169090147Y-108274354D01*
X168991544Y-108126784D01*
X168923624Y-107962812D01*
X168889000Y-107788741D01*
X168889000Y-107611259D01*
X168923624Y-107437188D01*
X168991544Y-107273216D01*
X169090147Y-107125646D01*
X169215646Y-107000147D01*
X169363216Y-106901544D01*
X169527188Y-106833624D01*
X169676488Y-106803927D01*
X169701258Y-106799000D01*
X169878742Y-106799000D01*
X169903512Y-106803927D01*
X169903512Y-106803927D01*
G37*
G36*
X167703512Y-106803927D02*
G01*
X167852812Y-106833624D01*
X168016784Y-106901544D01*
X168164354Y-107000147D01*
X168289853Y-107125646D01*
X168388456Y-107273216D01*
X168456376Y-107437188D01*
X168491000Y-107611259D01*
X168491000Y-107788741D01*
X168456376Y-107962812D01*
X168388456Y-108126784D01*
X168289853Y-108274354D01*
X168164354Y-108399853D01*
X168016784Y-108498456D01*
X167852812Y-108566376D01*
X167703512Y-108596073D01*
X167678742Y-108601000D01*
X167501258Y-108601000D01*
X167476488Y-108596073D01*
X167327188Y-108566376D01*
X167163216Y-108498456D01*
X167015646Y-108399853D01*
X166890147Y-108274354D01*
X166791544Y-108126784D01*
X166723624Y-107962812D01*
X166689000Y-107788741D01*
X166689000Y-107611259D01*
X166723624Y-107437188D01*
X166791544Y-107273216D01*
X166890147Y-107125646D01*
X167015646Y-107000147D01*
X167163216Y-106901544D01*
X167327188Y-106833624D01*
X167476488Y-106803927D01*
X167501258Y-106799000D01*
X167678742Y-106799000D01*
X167703512Y-106803927D01*
X167703512Y-106803927D01*
G37*
G36*
X183103512Y-106803927D02*
G01*
X183252812Y-106833624D01*
X183416784Y-106901544D01*
X183564354Y-107000147D01*
X183689853Y-107125646D01*
X183788456Y-107273216D01*
X183856376Y-107437188D01*
X183891000Y-107611259D01*
X183891000Y-107788741D01*
X183856376Y-107962812D01*
X183788456Y-108126784D01*
X183689853Y-108274354D01*
X183564354Y-108399853D01*
X183416784Y-108498456D01*
X183252812Y-108566376D01*
X183103512Y-108596073D01*
X183078742Y-108601000D01*
X182901258Y-108601000D01*
X182876488Y-108596073D01*
X182727188Y-108566376D01*
X182563216Y-108498456D01*
X182415646Y-108399853D01*
X182290147Y-108274354D01*
X182191544Y-108126784D01*
X182123624Y-107962812D01*
X182089000Y-107788741D01*
X182089000Y-107611259D01*
X182123624Y-107437188D01*
X182191544Y-107273216D01*
X182290147Y-107125646D01*
X182415646Y-107000147D01*
X182563216Y-106901544D01*
X182727188Y-106833624D01*
X182876488Y-106803927D01*
X182901258Y-106799000D01*
X183078742Y-106799000D01*
X183103512Y-106803927D01*
X183103512Y-106803927D01*
G37*
G36*
X163303512Y-106803927D02*
G01*
X163452812Y-106833624D01*
X163616784Y-106901544D01*
X163764354Y-107000147D01*
X163889853Y-107125646D01*
X163988456Y-107273216D01*
X164056376Y-107437188D01*
X164091000Y-107611259D01*
X164091000Y-107788741D01*
X164056376Y-107962812D01*
X163988456Y-108126784D01*
X163889853Y-108274354D01*
X163764354Y-108399853D01*
X163616784Y-108498456D01*
X163452812Y-108566376D01*
X163303512Y-108596073D01*
X163278742Y-108601000D01*
X163101258Y-108601000D01*
X163076488Y-108596073D01*
X162927188Y-108566376D01*
X162763216Y-108498456D01*
X162615646Y-108399853D01*
X162490147Y-108274354D01*
X162391544Y-108126784D01*
X162323624Y-107962812D01*
X162289000Y-107788741D01*
X162289000Y-107611259D01*
X162323624Y-107437188D01*
X162391544Y-107273216D01*
X162490147Y-107125646D01*
X162615646Y-107000147D01*
X162763216Y-106901544D01*
X162927188Y-106833624D01*
X163076488Y-106803927D01*
X163101258Y-106799000D01*
X163278742Y-106799000D01*
X163303512Y-106803927D01*
X163303512Y-106803927D01*
G37*
G36*
X187503512Y-106803927D02*
G01*
X187652812Y-106833624D01*
X187816784Y-106901544D01*
X187964354Y-107000147D01*
X188089853Y-107125646D01*
X188188456Y-107273216D01*
X188256376Y-107437188D01*
X188291000Y-107611259D01*
X188291000Y-107788741D01*
X188256376Y-107962812D01*
X188188456Y-108126784D01*
X188089853Y-108274354D01*
X187964354Y-108399853D01*
X187816784Y-108498456D01*
X187652812Y-108566376D01*
X187503512Y-108596073D01*
X187478742Y-108601000D01*
X187301258Y-108601000D01*
X187276488Y-108596073D01*
X187127188Y-108566376D01*
X186963216Y-108498456D01*
X186815646Y-108399853D01*
X186690147Y-108274354D01*
X186591544Y-108126784D01*
X186523624Y-107962812D01*
X186489000Y-107788741D01*
X186489000Y-107611259D01*
X186523624Y-107437188D01*
X186591544Y-107273216D01*
X186690147Y-107125646D01*
X186815646Y-107000147D01*
X186963216Y-106901544D01*
X187127188Y-106833624D01*
X187276488Y-106803927D01*
X187301258Y-106799000D01*
X187478742Y-106799000D01*
X187503512Y-106803927D01*
X187503512Y-106803927D01*
G37*
G36*
X194103512Y-106803927D02*
G01*
X194252812Y-106833624D01*
X194416784Y-106901544D01*
X194564354Y-107000147D01*
X194689853Y-107125646D01*
X194788456Y-107273216D01*
X194856376Y-107437188D01*
X194891000Y-107611259D01*
X194891000Y-107788741D01*
X194856376Y-107962812D01*
X194788456Y-108126784D01*
X194689853Y-108274354D01*
X194564354Y-108399853D01*
X194416784Y-108498456D01*
X194252812Y-108566376D01*
X194103512Y-108596073D01*
X194078742Y-108601000D01*
X193901258Y-108601000D01*
X193876488Y-108596073D01*
X193727188Y-108566376D01*
X193563216Y-108498456D01*
X193415646Y-108399853D01*
X193290147Y-108274354D01*
X193191544Y-108126784D01*
X193123624Y-107962812D01*
X193089000Y-107788741D01*
X193089000Y-107611259D01*
X193123624Y-107437188D01*
X193191544Y-107273216D01*
X193290147Y-107125646D01*
X193415646Y-107000147D01*
X193563216Y-106901544D01*
X193727188Y-106833624D01*
X193876488Y-106803927D01*
X193901258Y-106799000D01*
X194078742Y-106799000D01*
X194103512Y-106803927D01*
X194103512Y-106803927D01*
G37*
G36*
X191903512Y-106803927D02*
G01*
X192052812Y-106833624D01*
X192216784Y-106901544D01*
X192364354Y-107000147D01*
X192489853Y-107125646D01*
X192588456Y-107273216D01*
X192656376Y-107437188D01*
X192691000Y-107611259D01*
X192691000Y-107788741D01*
X192656376Y-107962812D01*
X192588456Y-108126784D01*
X192489853Y-108274354D01*
X192364354Y-108399853D01*
X192216784Y-108498456D01*
X192052812Y-108566376D01*
X191903512Y-108596073D01*
X191878742Y-108601000D01*
X191701258Y-108601000D01*
X191676488Y-108596073D01*
X191527188Y-108566376D01*
X191363216Y-108498456D01*
X191215646Y-108399853D01*
X191090147Y-108274354D01*
X190991544Y-108126784D01*
X190923624Y-107962812D01*
X190889000Y-107788741D01*
X190889000Y-107611259D01*
X190923624Y-107437188D01*
X190991544Y-107273216D01*
X191090147Y-107125646D01*
X191215646Y-107000147D01*
X191363216Y-106901544D01*
X191527188Y-106833624D01*
X191676488Y-106803927D01*
X191701258Y-106799000D01*
X191878742Y-106799000D01*
X191903512Y-106803927D01*
X191903512Y-106803927D01*
G37*
G36*
X165503512Y-106803927D02*
G01*
X165652812Y-106833624D01*
X165816784Y-106901544D01*
X165964354Y-107000147D01*
X166089853Y-107125646D01*
X166188456Y-107273216D01*
X166256376Y-107437188D01*
X166291000Y-107611259D01*
X166291000Y-107788741D01*
X166256376Y-107962812D01*
X166188456Y-108126784D01*
X166089853Y-108274354D01*
X165964354Y-108399853D01*
X165816784Y-108498456D01*
X165652812Y-108566376D01*
X165503512Y-108596073D01*
X165478742Y-108601000D01*
X165301258Y-108601000D01*
X165276488Y-108596073D01*
X165127188Y-108566376D01*
X164963216Y-108498456D01*
X164815646Y-108399853D01*
X164690147Y-108274354D01*
X164591544Y-108126784D01*
X164523624Y-107962812D01*
X164489000Y-107788741D01*
X164489000Y-107611259D01*
X164523624Y-107437188D01*
X164591544Y-107273216D01*
X164690147Y-107125646D01*
X164815646Y-107000147D01*
X164963216Y-106901544D01*
X165127188Y-106833624D01*
X165276488Y-106803927D01*
X165301258Y-106799000D01*
X165478742Y-106799000D01*
X165503512Y-106803927D01*
X165503512Y-106803927D01*
G37*
G36*
X200165331Y-97818211D02*
G01*
X200493092Y-97953974D01*
X200788070Y-98151072D01*
X201038928Y-98401930D01*
X201236026Y-98696908D01*
X201371789Y-99024669D01*
X201441000Y-99372616D01*
X201441000Y-99727384D01*
X201371789Y-100075331D01*
X201236026Y-100403092D01*
X201038928Y-100698070D01*
X200788070Y-100948928D01*
X200493092Y-101146026D01*
X200165331Y-101281789D01*
X199817384Y-101351000D01*
X199462616Y-101351000D01*
X199114669Y-101281789D01*
X198786908Y-101146026D01*
X198491930Y-100948928D01*
X198241072Y-100698070D01*
X198043974Y-100403092D01*
X197908211Y-100075331D01*
X197839000Y-99727384D01*
X197839000Y-99372616D01*
X197908211Y-99024669D01*
X198043974Y-98696908D01*
X198241072Y-98401930D01*
X198491930Y-98151072D01*
X198786908Y-97953974D01*
X199114669Y-97818211D01*
X199462616Y-97749000D01*
X199817384Y-97749000D01*
X200165331Y-97818211D01*
X200165331Y-97818211D01*
G37*
G36*
X158065331Y-97818211D02*
G01*
X158393092Y-97953974D01*
X158688070Y-98151072D01*
X158938928Y-98401930D01*
X159136026Y-98696908D01*
X159271789Y-99024669D01*
X159341000Y-99372616D01*
X159341000Y-99727384D01*
X159271789Y-100075331D01*
X159136026Y-100403092D01*
X158938928Y-100698070D01*
X158688070Y-100948928D01*
X158393092Y-101146026D01*
X158065331Y-101281789D01*
X157717384Y-101351000D01*
X157362616Y-101351000D01*
X157014669Y-101281789D01*
X156686908Y-101146026D01*
X156391930Y-100948928D01*
X156141072Y-100698070D01*
X155943974Y-100403092D01*
X155808211Y-100075331D01*
X155739000Y-99727384D01*
X155739000Y-99372616D01*
X155808211Y-99024669D01*
X155943974Y-98696908D01*
X156141072Y-98401930D01*
X156391930Y-98151072D01*
X156686908Y-97953974D01*
X157014669Y-97818211D01*
X157362616Y-97749000D01*
X157717384Y-97749000D01*
X158065331Y-97818211D01*
X158065331Y-97818211D01*
G37*
M02*
