M48
INCH,TZ
T1C0.0157
T2C0.0315
T3C0.0362
T4C0.0394
T5C0.0472
T6C0.0866
T7C0.0906
T8C0.1378
%
G90
G05
T1
X65079Y-48346
T3
X64299Y-50980
X64299Y-51965
X64299Y-52752
X64299Y-53736
T4
X69819Y-54039
X69819Y-54827
X70606Y-54039
X70606Y-54827
T5
X64248Y-42402
X64248Y-43583
X65114Y-42402
X65114Y-43583
X65980Y-42402
X65980Y-43583
X66846Y-42402
X66846Y-43583
X67713Y-42402
X67713Y-43583
X68579Y-42402
X69445Y-42402
X70311Y-42402
X71177Y-42402
X72043Y-42402
X72909Y-42402
X73776Y-42402
X73776Y-43583
X74642Y-42402
X74642Y-43583
X75508Y-42402
X75508Y-43583
X76374Y-42402
X76374Y-43583
T6
X69189Y-60181
X71236Y-60181
T7
X63232Y-49772
X63232Y-54945
T8
X62024Y-39193
X78598Y-39193
T2
G00X77736Y-50157
M15
G01X77461Y-50157
M16
G05
G00X77736Y-54094
M15
G01X77461Y-54094
M16
G05
G00X79567Y-52264
M15
G01X79567Y-51988
M16
G05
T4
G00X68165Y-58173
M15
G01X68165Y-57465
M16
G05
G00X68165Y-60496
M15
G01X68165Y-59866
M16
G05
G00X68382Y-53488
M15
G01X69130Y-53488
M16
G05
G00X69701Y-55693
M15
G01X70724Y-55693
M16
G05
G00X71295Y-53488
M15
G01X72043Y-53488
M16
G05
G00X72260Y-58173
M15
G01X72260Y-57465
M16
G05
G00X72260Y-60496
M15
G01X72260Y-59866
M16
G05
T0
M30
