G04 #@! TF.GenerationSoftware,KiCad,Pcbnew,(5.1.0)-1*
G04 #@! TF.CreationDate,2021-05-27T14:19:51-05:00*
G04 #@! TF.ProjectId,2014 Mazda CX-5 Head Unit Adapter,32303134-204d-4617-9a64-612043582d35,rev?*
G04 #@! TF.SameCoordinates,Original*
G04 #@! TF.FileFunction,Copper,L2,Bot*
G04 #@! TF.FilePolarity,Positive*
%FSLAX46Y46*%
G04 Gerber Fmt 4.6, Leading zero omitted, Abs format (unit mm)*
G04 Created by KiCad (PCBNEW (5.1.0)-1) date 2021-05-27 14:19:51*
%MOMM*%
%LPD*%
G04 APERTURE LIST*
%ADD10C,1.400000*%
%ADD11O,3.600000X1.000000*%
%ADD12O,2.900000X1.000000*%
%ADD13O,1.000000X2.800000*%
%ADD14O,1.000000X2.600000*%
%ADD15C,2.200000*%
%ADD16C,1.700000*%
%ADD17C,3.500000*%
%ADD18O,2.616000X1.308000*%
%ADD19O,1.308000X2.616000*%
%ADD20C,3.316000*%
%ADD21C,1.428000*%
%ADD22R,1.428000X1.428000*%
%ADD23C,0.800000*%
%ADD24C,0.200000*%
%ADD25C,0.254000*%
G04 APERTURE END LIST*
D10*
X177340000Y-139260000D03*
X177340000Y-137260000D03*
X179340000Y-137260000D03*
X179340000Y-139260000D03*
D11*
X178340000Y-141460000D03*
D12*
X182040000Y-135860000D03*
X174640000Y-135860000D03*
D13*
X173140000Y-146860000D03*
X183540000Y-146860000D03*
D14*
X183540000Y-152860000D03*
X173140000Y-152860000D03*
D15*
X175740000Y-152860000D03*
X180940000Y-152860000D03*
D16*
X163190000Y-110700000D03*
X165390000Y-110700000D03*
D17*
X157540000Y-99550000D03*
X199640000Y-99550000D03*
D16*
X163190000Y-107700000D03*
X165390000Y-107700000D03*
X167590000Y-107700000D03*
X167590000Y-110700000D03*
X169790000Y-107700000D03*
X169790000Y-110700000D03*
X171990000Y-107700000D03*
X171990000Y-110700000D03*
X174190000Y-107700000D03*
X176390000Y-107700000D03*
X178590000Y-107700000D03*
X180790000Y-107700000D03*
X182990000Y-107700000D03*
X185190000Y-107700000D03*
X187390000Y-107700000D03*
X187390000Y-110700000D03*
X189590000Y-107700000D03*
X189590000Y-110700000D03*
X191790000Y-107700000D03*
X191790000Y-110700000D03*
X193990000Y-107700000D03*
X193990000Y-110700000D03*
D18*
X197100000Y-137400000D03*
X197100000Y-127400000D03*
D19*
X202100000Y-132400000D03*
D20*
X160610000Y-139560000D03*
X160610000Y-126420000D03*
D21*
X163320000Y-136490000D03*
X163320000Y-133990000D03*
X163320000Y-131990000D03*
D22*
X163320000Y-129490000D03*
D23*
X165300000Y-122800000D03*
D24*
X176890000Y-139260000D02*
X177340000Y-139260000D01*
X163320000Y-131990000D02*
X170590000Y-139260000D01*
X170590000Y-139260000D02*
X176890000Y-139260000D01*
X178890000Y-139710000D02*
X179340000Y-139260000D01*
X178370002Y-139710000D02*
X178890000Y-139710000D01*
X164683603Y-133990000D02*
X170403603Y-139710000D01*
X163320000Y-133990000D02*
X164683603Y-133990000D01*
X170403603Y-139710000D02*
X176309998Y-139710000D01*
X176309998Y-139710000D02*
X176859999Y-140260001D01*
X176859999Y-140260001D02*
X177820001Y-140260001D01*
X177820001Y-140260001D02*
X178370002Y-139710000D01*
D25*
G36*
X155426440Y-100679721D02*
G01*
X155687450Y-101070349D01*
X156019651Y-101402550D01*
X156410279Y-101663560D01*
X156844321Y-101843346D01*
X157305098Y-101935000D01*
X157774902Y-101935000D01*
X158235679Y-101843346D01*
X158669721Y-101663560D01*
X159060349Y-101402550D01*
X159392550Y-101070349D01*
X159653560Y-100679721D01*
X159654687Y-100677000D01*
X197525313Y-100677000D01*
X197526440Y-100679721D01*
X197787450Y-101070349D01*
X198119651Y-101402550D01*
X198510279Y-101663560D01*
X198944321Y-101843346D01*
X199405098Y-101935000D01*
X199874902Y-101935000D01*
X200335679Y-101843346D01*
X200769721Y-101663560D01*
X201160349Y-101402550D01*
X201492550Y-101070349D01*
X201753560Y-100679721D01*
X201754687Y-100677000D01*
X204793766Y-100677000D01*
X204970189Y-100694376D01*
X205133850Y-100744022D01*
X205284672Y-100824638D01*
X205416870Y-100933130D01*
X205525362Y-101065328D01*
X205605978Y-101216150D01*
X205655624Y-101379811D01*
X205673000Y-101556234D01*
X205673000Y-115840000D01*
X203267581Y-115840000D01*
X203265287Y-115840226D01*
X203242341Y-115840386D01*
X203212522Y-115843520D01*
X203182539Y-115843520D01*
X203173374Y-115844483D01*
X202436366Y-115927152D01*
X202377877Y-115939585D01*
X202319174Y-115951208D01*
X202310371Y-115953933D01*
X201603457Y-116178180D01*
X201548485Y-116201741D01*
X201493170Y-116224540D01*
X201485064Y-116228923D01*
X200835168Y-116586206D01*
X200785822Y-116619994D01*
X200735985Y-116653105D01*
X200728885Y-116658980D01*
X200160764Y-117135690D01*
X200118920Y-117178420D01*
X200076464Y-117220580D01*
X200070640Y-117227721D01*
X199605933Y-117805702D01*
X199573195Y-117855732D01*
X199539728Y-117905348D01*
X199535402Y-117913484D01*
X199191807Y-118570719D01*
X199169401Y-118626177D01*
X199146217Y-118681328D01*
X199143554Y-118690150D01*
X198934161Y-119401606D01*
X198922963Y-119460307D01*
X198910923Y-119518963D01*
X198910024Y-119528134D01*
X198842809Y-120266712D01*
X198843227Y-120326529D01*
X198842809Y-120386346D01*
X198843709Y-120395517D01*
X198921230Y-121133085D01*
X198933250Y-121191641D01*
X198944466Y-121250442D01*
X198947130Y-121259263D01*
X199166436Y-121967726D01*
X199189616Y-122022869D01*
X199212025Y-122078334D01*
X199216352Y-122086471D01*
X199569089Y-122738845D01*
X199602534Y-122788429D01*
X199635294Y-122838492D01*
X199641118Y-122845633D01*
X200113851Y-123417069D01*
X200156287Y-123459209D01*
X200198150Y-123501959D01*
X200205251Y-123507832D01*
X200779973Y-123976564D01*
X200829766Y-124009646D01*
X200879155Y-124043464D01*
X200887261Y-124047847D01*
X201542082Y-124396020D01*
X201597350Y-124418800D01*
X201652368Y-124442381D01*
X201661172Y-124445106D01*
X202371147Y-124659461D01*
X202429832Y-124671081D01*
X202488340Y-124683517D01*
X202497503Y-124684480D01*
X202497505Y-124684480D01*
X203235595Y-124756850D01*
X203235598Y-124756850D01*
X203267581Y-124760000D01*
X205673000Y-124760000D01*
X205673000Y-126782916D01*
X205559287Y-126612733D01*
X205387267Y-126440713D01*
X205184992Y-126305557D01*
X204960236Y-126212460D01*
X204721637Y-126165000D01*
X204478363Y-126165000D01*
X204239764Y-126212460D01*
X204015008Y-126305557D01*
X203812733Y-126440713D01*
X203640713Y-126612733D01*
X203505557Y-126815008D01*
X203412460Y-127039764D01*
X203365000Y-127278363D01*
X203365000Y-127521637D01*
X203412460Y-127760236D01*
X203505557Y-127984992D01*
X203640713Y-128187267D01*
X203812733Y-128359287D01*
X204015008Y-128494443D01*
X204239764Y-128587540D01*
X204478363Y-128635000D01*
X204721637Y-128635000D01*
X204960236Y-128587540D01*
X205184992Y-128494443D01*
X205387267Y-128359287D01*
X205559287Y-128187267D01*
X205673000Y-128017084D01*
X205673000Y-129764950D01*
X205431191Y-129764950D01*
X205400000Y-129761878D01*
X205368809Y-129764950D01*
X205275509Y-129774139D01*
X205155801Y-129810452D01*
X205045478Y-129869421D01*
X204948780Y-129948780D01*
X204869421Y-130045478D01*
X204810452Y-130155801D01*
X204774139Y-130275509D01*
X204761878Y-130400000D01*
X204764951Y-130431201D01*
X204764950Y-134368809D01*
X204761878Y-134400000D01*
X204774139Y-134524491D01*
X204810452Y-134644199D01*
X204869421Y-134754522D01*
X204947727Y-134849937D01*
X204948780Y-134851220D01*
X205045478Y-134930579D01*
X205155801Y-134989548D01*
X205275509Y-135025861D01*
X205400000Y-135038122D01*
X205431191Y-135035050D01*
X205673000Y-135035050D01*
X205673000Y-136782916D01*
X205559287Y-136612733D01*
X205387267Y-136440713D01*
X205184992Y-136305557D01*
X204960236Y-136212460D01*
X204721637Y-136165000D01*
X204478363Y-136165000D01*
X204239764Y-136212460D01*
X204015008Y-136305557D01*
X203812733Y-136440713D01*
X203640713Y-136612733D01*
X203505557Y-136815008D01*
X203412460Y-137039764D01*
X203365000Y-137278363D01*
X203365000Y-137521637D01*
X203412460Y-137760236D01*
X203505557Y-137984992D01*
X203640713Y-138187267D01*
X203812733Y-138359287D01*
X204015008Y-138494443D01*
X204239764Y-138587540D01*
X204478363Y-138635000D01*
X204721637Y-138635000D01*
X204960236Y-138587540D01*
X205184992Y-138494443D01*
X205387267Y-138359287D01*
X205559287Y-138187267D01*
X205673000Y-138017084D01*
X205673000Y-154543766D01*
X205655624Y-154720189D01*
X205605978Y-154883850D01*
X205525362Y-155034672D01*
X205416870Y-155166870D01*
X205284672Y-155275362D01*
X205133850Y-155355978D01*
X204970189Y-155405624D01*
X204793766Y-155423000D01*
X190306234Y-155423000D01*
X190129811Y-155405624D01*
X189966150Y-155355978D01*
X189815328Y-155275362D01*
X189683130Y-155166870D01*
X189574638Y-155034672D01*
X189494022Y-154883850D01*
X189444376Y-154720189D01*
X189427000Y-154543766D01*
X189427000Y-142081834D01*
X190020222Y-142081834D01*
X190069823Y-142524039D01*
X190204371Y-142948188D01*
X190418741Y-143338125D01*
X190704768Y-143678998D01*
X191051556Y-143957823D01*
X191445897Y-144163979D01*
X191872771Y-144289615D01*
X192315917Y-144329944D01*
X192758458Y-144283432D01*
X193183536Y-144151848D01*
X193574960Y-143940206D01*
X193917821Y-143656566D01*
X194199060Y-143311733D01*
X194407965Y-142918840D01*
X194536578Y-142492854D01*
X194580000Y-142050000D01*
X194579111Y-141986339D01*
X194523341Y-141544869D01*
X194382884Y-141122640D01*
X194163090Y-140735734D01*
X193872333Y-140398888D01*
X193521685Y-140124932D01*
X193124504Y-139924302D01*
X192695918Y-139804638D01*
X192252251Y-139770500D01*
X191810403Y-139823187D01*
X191387204Y-139960693D01*
X190998773Y-140177780D01*
X190659905Y-140466179D01*
X190383508Y-140814905D01*
X190180110Y-141210676D01*
X190057457Y-141638416D01*
X190020222Y-142081834D01*
X189427000Y-142081834D01*
X189427000Y-137400000D01*
X195150764Y-137400000D01*
X195175652Y-137652688D01*
X195249358Y-137895665D01*
X195369051Y-138119595D01*
X195530130Y-138315870D01*
X195726405Y-138476949D01*
X195950335Y-138596642D01*
X196193312Y-138670348D01*
X196382686Y-138689000D01*
X197817314Y-138689000D01*
X198006688Y-138670348D01*
X198249665Y-138596642D01*
X198473595Y-138476949D01*
X198669870Y-138315870D01*
X198830949Y-138119595D01*
X198950642Y-137895665D01*
X199024348Y-137652688D01*
X199049236Y-137400000D01*
X199037256Y-137278363D01*
X200865000Y-137278363D01*
X200865000Y-137521637D01*
X200912460Y-137760236D01*
X201005557Y-137984992D01*
X201140713Y-138187267D01*
X201312733Y-138359287D01*
X201515008Y-138494443D01*
X201739764Y-138587540D01*
X201978363Y-138635000D01*
X202221637Y-138635000D01*
X202460236Y-138587540D01*
X202684992Y-138494443D01*
X202887267Y-138359287D01*
X203059287Y-138187267D01*
X203194443Y-137984992D01*
X203287540Y-137760236D01*
X203335000Y-137521637D01*
X203335000Y-137278363D01*
X203287540Y-137039764D01*
X203194443Y-136815008D01*
X203059287Y-136612733D01*
X202887267Y-136440713D01*
X202684992Y-136305557D01*
X202460236Y-136212460D01*
X202221637Y-136165000D01*
X201978363Y-136165000D01*
X201739764Y-136212460D01*
X201515008Y-136305557D01*
X201312733Y-136440713D01*
X201140713Y-136612733D01*
X201005557Y-136815008D01*
X200912460Y-137039764D01*
X200865000Y-137278363D01*
X199037256Y-137278363D01*
X199024348Y-137147312D01*
X198950642Y-136904335D01*
X198830949Y-136680405D01*
X198669870Y-136484130D01*
X198473595Y-136323051D01*
X198249665Y-136203358D01*
X198006688Y-136129652D01*
X197817314Y-136111000D01*
X196382686Y-136111000D01*
X196193312Y-136129652D01*
X195950335Y-136203358D01*
X195726405Y-136323051D01*
X195530130Y-136484130D01*
X195369051Y-136680405D01*
X195249358Y-136904335D01*
X195175652Y-137147312D01*
X195150764Y-137400000D01*
X189427000Y-137400000D01*
X189427000Y-132550000D01*
X189426388Y-132537552D01*
X189407173Y-132342462D01*
X189402317Y-132318044D01*
X189390281Y-132278363D01*
X195865000Y-132278363D01*
X195865000Y-132521637D01*
X195912460Y-132760236D01*
X196005557Y-132984992D01*
X196140713Y-133187267D01*
X196312733Y-133359287D01*
X196515008Y-133494443D01*
X196739764Y-133587540D01*
X196978363Y-133635000D01*
X197221637Y-133635000D01*
X197460236Y-133587540D01*
X197684992Y-133494443D01*
X197887267Y-133359287D01*
X198059287Y-133187267D01*
X198194443Y-132984992D01*
X198287540Y-132760236D01*
X198333933Y-132527000D01*
X200811000Y-132527000D01*
X200811000Y-133181000D01*
X200860544Y-133430031D01*
X200957720Y-133664612D01*
X201098793Y-133875727D01*
X201278342Y-134055264D01*
X201489467Y-134196323D01*
X201724054Y-134293483D01*
X201773901Y-134301068D01*
X201973000Y-134177092D01*
X201973000Y-132527000D01*
X202227000Y-132527000D01*
X202227000Y-134177092D01*
X202426099Y-134301068D01*
X202475946Y-134293483D01*
X202710533Y-134196323D01*
X202921658Y-134055264D01*
X203101207Y-133875727D01*
X203242280Y-133664612D01*
X203339456Y-133430031D01*
X203389000Y-133181000D01*
X203389000Y-132527000D01*
X202227000Y-132527000D01*
X201973000Y-132527000D01*
X200811000Y-132527000D01*
X198333933Y-132527000D01*
X198335000Y-132521637D01*
X198335000Y-132278363D01*
X198287540Y-132039764D01*
X198194443Y-131815008D01*
X198063475Y-131619000D01*
X200811000Y-131619000D01*
X200811000Y-132273000D01*
X201973000Y-132273000D01*
X201973000Y-130622908D01*
X202227000Y-130622908D01*
X202227000Y-132273000D01*
X203389000Y-132273000D01*
X203389000Y-131619000D01*
X203339456Y-131369969D01*
X203242280Y-131135388D01*
X203101207Y-130924273D01*
X202921658Y-130744736D01*
X202710533Y-130603677D01*
X202475946Y-130506517D01*
X202426099Y-130498932D01*
X202227000Y-130622908D01*
X201973000Y-130622908D01*
X201773901Y-130498932D01*
X201724054Y-130506517D01*
X201489467Y-130603677D01*
X201278342Y-130744736D01*
X201098793Y-130924273D01*
X200957720Y-131135388D01*
X200860544Y-131369969D01*
X200811000Y-131619000D01*
X198063475Y-131619000D01*
X198059287Y-131612733D01*
X197887267Y-131440713D01*
X197684992Y-131305557D01*
X197460236Y-131212460D01*
X197221637Y-131165000D01*
X196978363Y-131165000D01*
X196739764Y-131212460D01*
X196515008Y-131305557D01*
X196312733Y-131440713D01*
X196140713Y-131612733D01*
X196005557Y-131815008D01*
X195912460Y-132039764D01*
X195865000Y-132278363D01*
X189390281Y-132278363D01*
X189345412Y-132130451D01*
X189335884Y-132107450D01*
X189243474Y-131934563D01*
X189229642Y-131913862D01*
X189105279Y-131762325D01*
X189087675Y-131744721D01*
X188936138Y-131620358D01*
X188915437Y-131606526D01*
X188742550Y-131514116D01*
X188719549Y-131504588D01*
X188531956Y-131447683D01*
X188507538Y-131442827D01*
X188312448Y-131423612D01*
X188300000Y-131423000D01*
X172806234Y-131423000D01*
X172629811Y-131405624D01*
X172466150Y-131355978D01*
X172315328Y-131275362D01*
X172183130Y-131166870D01*
X172074638Y-131034672D01*
X171994022Y-130883850D01*
X171944376Y-130720189D01*
X171927000Y-130543766D01*
X171927000Y-127400000D01*
X195150764Y-127400000D01*
X195175652Y-127652688D01*
X195249358Y-127895665D01*
X195369051Y-128119595D01*
X195530130Y-128315870D01*
X195726405Y-128476949D01*
X195950335Y-128596642D01*
X196193312Y-128670348D01*
X196382686Y-128689000D01*
X197817314Y-128689000D01*
X198006688Y-128670348D01*
X198249665Y-128596642D01*
X198473595Y-128476949D01*
X198669870Y-128315870D01*
X198830949Y-128119595D01*
X198950642Y-127895665D01*
X199024348Y-127652688D01*
X199049236Y-127400000D01*
X199037256Y-127278363D01*
X200865000Y-127278363D01*
X200865000Y-127521637D01*
X200912460Y-127760236D01*
X201005557Y-127984992D01*
X201140713Y-128187267D01*
X201312733Y-128359287D01*
X201515008Y-128494443D01*
X201739764Y-128587540D01*
X201978363Y-128635000D01*
X202221637Y-128635000D01*
X202460236Y-128587540D01*
X202684992Y-128494443D01*
X202887267Y-128359287D01*
X203059287Y-128187267D01*
X203194443Y-127984992D01*
X203287540Y-127760236D01*
X203335000Y-127521637D01*
X203335000Y-127278363D01*
X203287540Y-127039764D01*
X203194443Y-126815008D01*
X203059287Y-126612733D01*
X202887267Y-126440713D01*
X202684992Y-126305557D01*
X202460236Y-126212460D01*
X202221637Y-126165000D01*
X201978363Y-126165000D01*
X201739764Y-126212460D01*
X201515008Y-126305557D01*
X201312733Y-126440713D01*
X201140713Y-126612733D01*
X201005557Y-126815008D01*
X200912460Y-127039764D01*
X200865000Y-127278363D01*
X199037256Y-127278363D01*
X199024348Y-127147312D01*
X198950642Y-126904335D01*
X198830949Y-126680405D01*
X198669870Y-126484130D01*
X198473595Y-126323051D01*
X198249665Y-126203358D01*
X198006688Y-126129652D01*
X197817314Y-126111000D01*
X196382686Y-126111000D01*
X196193312Y-126129652D01*
X195950335Y-126203358D01*
X195726405Y-126323051D01*
X195530130Y-126484130D01*
X195369051Y-126680405D01*
X195249358Y-126904335D01*
X195175652Y-127147312D01*
X195150764Y-127400000D01*
X171927000Y-127400000D01*
X171927000Y-120050000D01*
X171926388Y-120037552D01*
X171907173Y-119842462D01*
X171902317Y-119818044D01*
X171845412Y-119630451D01*
X171835884Y-119607450D01*
X171743474Y-119434563D01*
X171729642Y-119413862D01*
X171605279Y-119262325D01*
X171587675Y-119244721D01*
X171436138Y-119120358D01*
X171415437Y-119106526D01*
X171242550Y-119014116D01*
X171219549Y-119004588D01*
X171031956Y-118947683D01*
X171007538Y-118942827D01*
X170812448Y-118923612D01*
X170800000Y-118923000D01*
X157523559Y-118923000D01*
X157433564Y-118632274D01*
X157410384Y-118577131D01*
X157387975Y-118521666D01*
X157383648Y-118513529D01*
X157030911Y-117861155D01*
X156997466Y-117811571D01*
X156964706Y-117761508D01*
X156958881Y-117754367D01*
X156486149Y-117182931D01*
X156443713Y-117140791D01*
X156401850Y-117098041D01*
X156394749Y-117092168D01*
X155820027Y-116623436D01*
X155770219Y-116590343D01*
X155720845Y-116556536D01*
X155712739Y-116552153D01*
X155057918Y-116203979D01*
X155002603Y-116181180D01*
X154947631Y-116157619D01*
X154938828Y-116154894D01*
X154228852Y-115940539D01*
X154170175Y-115928921D01*
X154111660Y-115916483D01*
X154102497Y-115915520D01*
X154102495Y-115915520D01*
X153364404Y-115843150D01*
X153364402Y-115843150D01*
X153332419Y-115840000D01*
X150927000Y-115840000D01*
X150927000Y-110553740D01*
X161705000Y-110553740D01*
X161705000Y-110846260D01*
X161762068Y-111133158D01*
X161874010Y-111403411D01*
X162036525Y-111646632D01*
X162243368Y-111853475D01*
X162486589Y-112015990D01*
X162756842Y-112127932D01*
X163001049Y-112176508D01*
X162998773Y-112177780D01*
X162659905Y-112466179D01*
X162383508Y-112814905D01*
X162180110Y-113210676D01*
X162057457Y-113638416D01*
X162020222Y-114081834D01*
X162069823Y-114524039D01*
X162204371Y-114948188D01*
X162418741Y-115338125D01*
X162704768Y-115678998D01*
X163051556Y-115957823D01*
X163445897Y-116163979D01*
X163872771Y-116289615D01*
X164315917Y-116329944D01*
X164758458Y-116283432D01*
X165183536Y-116151848D01*
X165574960Y-115940206D01*
X165917821Y-115656566D01*
X166199060Y-115311733D01*
X166407965Y-114918840D01*
X166536578Y-114492854D01*
X166580000Y-114050000D01*
X166579111Y-113986339D01*
X166523341Y-113544869D01*
X166382884Y-113122640D01*
X166163090Y-112735734D01*
X165872333Y-112398888D01*
X165585924Y-112175121D01*
X165823158Y-112127932D01*
X166093411Y-112015990D01*
X166336632Y-111853475D01*
X166490000Y-111700107D01*
X166643368Y-111853475D01*
X166886589Y-112015990D01*
X167156842Y-112127932D01*
X167443740Y-112185000D01*
X167736260Y-112185000D01*
X168023158Y-112127932D01*
X168293411Y-112015990D01*
X168536632Y-111853475D01*
X168690000Y-111700107D01*
X168843368Y-111853475D01*
X169086589Y-112015990D01*
X169356842Y-112127932D01*
X169643740Y-112185000D01*
X169936260Y-112185000D01*
X170223158Y-112127932D01*
X170493411Y-112015990D01*
X170736632Y-111853475D01*
X170890000Y-111700107D01*
X171043368Y-111853475D01*
X171286589Y-112015990D01*
X171556842Y-112127932D01*
X171843740Y-112185000D01*
X172136260Y-112185000D01*
X172423158Y-112127932D01*
X172693411Y-112015990D01*
X172936632Y-111853475D01*
X173143475Y-111646632D01*
X173305990Y-111403411D01*
X173417932Y-111133158D01*
X173475000Y-110846260D01*
X173475000Y-110553740D01*
X185905000Y-110553740D01*
X185905000Y-110846260D01*
X185962068Y-111133158D01*
X186074010Y-111403411D01*
X186236525Y-111646632D01*
X186443368Y-111853475D01*
X186686589Y-112015990D01*
X186956842Y-112127932D01*
X187243740Y-112185000D01*
X187536260Y-112185000D01*
X187823158Y-112127932D01*
X188093411Y-112015990D01*
X188336632Y-111853475D01*
X188490000Y-111700107D01*
X188643368Y-111853475D01*
X188886589Y-112015990D01*
X189156842Y-112127932D01*
X189443740Y-112185000D01*
X189736260Y-112185000D01*
X190023158Y-112127932D01*
X190293411Y-112015990D01*
X190536632Y-111853475D01*
X190690000Y-111700107D01*
X190843368Y-111853475D01*
X191086589Y-112015990D01*
X191202417Y-112063967D01*
X190998773Y-112177780D01*
X190659905Y-112466179D01*
X190383508Y-112814905D01*
X190180110Y-113210676D01*
X190057457Y-113638416D01*
X190020222Y-114081834D01*
X190069823Y-114524039D01*
X190204371Y-114948188D01*
X190418741Y-115338125D01*
X190704768Y-115678998D01*
X191051556Y-115957823D01*
X191445897Y-116163979D01*
X191872771Y-116289615D01*
X192315917Y-116329944D01*
X192758458Y-116283432D01*
X193183536Y-116151848D01*
X193574960Y-115940206D01*
X193917821Y-115656566D01*
X194199060Y-115311733D01*
X194407965Y-114918840D01*
X194536578Y-114492854D01*
X194580000Y-114050000D01*
X194579111Y-113986339D01*
X194523341Y-113544869D01*
X194382884Y-113122640D01*
X194163090Y-112735734D01*
X193872333Y-112398888D01*
X193521685Y-112124932D01*
X193394518Y-112060695D01*
X193556842Y-112127932D01*
X193843740Y-112185000D01*
X194136260Y-112185000D01*
X194423158Y-112127932D01*
X194693411Y-112015990D01*
X194936632Y-111853475D01*
X195143475Y-111646632D01*
X195305990Y-111403411D01*
X195417932Y-111133158D01*
X195475000Y-110846260D01*
X195475000Y-110553740D01*
X195417932Y-110266842D01*
X195305990Y-109996589D01*
X195143475Y-109753368D01*
X194936632Y-109546525D01*
X194693411Y-109384010D01*
X194423158Y-109272068D01*
X194136260Y-109215000D01*
X193843740Y-109215000D01*
X193556842Y-109272068D01*
X193286589Y-109384010D01*
X193043368Y-109546525D01*
X192890000Y-109699893D01*
X192736632Y-109546525D01*
X192493411Y-109384010D01*
X192223158Y-109272068D01*
X191936260Y-109215000D01*
X191643740Y-109215000D01*
X191356842Y-109272068D01*
X191086589Y-109384010D01*
X190843368Y-109546525D01*
X190690000Y-109699893D01*
X190536632Y-109546525D01*
X190293411Y-109384010D01*
X190023158Y-109272068D01*
X189736260Y-109215000D01*
X189443740Y-109215000D01*
X189156842Y-109272068D01*
X188886589Y-109384010D01*
X188643368Y-109546525D01*
X188490000Y-109699893D01*
X188336632Y-109546525D01*
X188093411Y-109384010D01*
X187823158Y-109272068D01*
X187536260Y-109215000D01*
X187243740Y-109215000D01*
X186956842Y-109272068D01*
X186686589Y-109384010D01*
X186443368Y-109546525D01*
X186236525Y-109753368D01*
X186074010Y-109996589D01*
X185962068Y-110266842D01*
X185905000Y-110553740D01*
X173475000Y-110553740D01*
X173417932Y-110266842D01*
X173305990Y-109996589D01*
X173143475Y-109753368D01*
X172936632Y-109546525D01*
X172693411Y-109384010D01*
X172423158Y-109272068D01*
X172136260Y-109215000D01*
X171843740Y-109215000D01*
X171556842Y-109272068D01*
X171286589Y-109384010D01*
X171043368Y-109546525D01*
X170890000Y-109699893D01*
X170736632Y-109546525D01*
X170493411Y-109384010D01*
X170223158Y-109272068D01*
X169936260Y-109215000D01*
X169643740Y-109215000D01*
X169356842Y-109272068D01*
X169086589Y-109384010D01*
X168843368Y-109546525D01*
X168690000Y-109699893D01*
X168536632Y-109546525D01*
X168293411Y-109384010D01*
X168023158Y-109272068D01*
X167736260Y-109215000D01*
X167443740Y-109215000D01*
X167156842Y-109272068D01*
X166886589Y-109384010D01*
X166643368Y-109546525D01*
X166490000Y-109699893D01*
X166336632Y-109546525D01*
X166093411Y-109384010D01*
X165823158Y-109272068D01*
X165536260Y-109215000D01*
X165243740Y-109215000D01*
X164956842Y-109272068D01*
X164686589Y-109384010D01*
X164443368Y-109546525D01*
X164290000Y-109699893D01*
X164136632Y-109546525D01*
X163893411Y-109384010D01*
X163623158Y-109272068D01*
X163336260Y-109215000D01*
X163043740Y-109215000D01*
X162756842Y-109272068D01*
X162486589Y-109384010D01*
X162243368Y-109546525D01*
X162036525Y-109753368D01*
X161874010Y-109996589D01*
X161762068Y-110266842D01*
X161705000Y-110553740D01*
X150927000Y-110553740D01*
X150927000Y-107553740D01*
X161705000Y-107553740D01*
X161705000Y-107846260D01*
X161762068Y-108133158D01*
X161874010Y-108403411D01*
X162036525Y-108646632D01*
X162243368Y-108853475D01*
X162486589Y-109015990D01*
X162756842Y-109127932D01*
X163043740Y-109185000D01*
X163336260Y-109185000D01*
X163623158Y-109127932D01*
X163893411Y-109015990D01*
X164136632Y-108853475D01*
X164290000Y-108700107D01*
X164443368Y-108853475D01*
X164686589Y-109015990D01*
X164956842Y-109127932D01*
X165243740Y-109185000D01*
X165536260Y-109185000D01*
X165823158Y-109127932D01*
X166093411Y-109015990D01*
X166336632Y-108853475D01*
X166490000Y-108700107D01*
X166643368Y-108853475D01*
X166886589Y-109015990D01*
X167156842Y-109127932D01*
X167443740Y-109185000D01*
X167736260Y-109185000D01*
X168023158Y-109127932D01*
X168293411Y-109015990D01*
X168536632Y-108853475D01*
X168690000Y-108700107D01*
X168843368Y-108853475D01*
X169086589Y-109015990D01*
X169356842Y-109127932D01*
X169643740Y-109185000D01*
X169936260Y-109185000D01*
X170223158Y-109127932D01*
X170493411Y-109015990D01*
X170736632Y-108853475D01*
X170890000Y-108700107D01*
X171043368Y-108853475D01*
X171286589Y-109015990D01*
X171556842Y-109127932D01*
X171843740Y-109185000D01*
X172136260Y-109185000D01*
X172423158Y-109127932D01*
X172693411Y-109015990D01*
X172936632Y-108853475D01*
X173090000Y-108700107D01*
X173243368Y-108853475D01*
X173486589Y-109015990D01*
X173756842Y-109127932D01*
X174043740Y-109185000D01*
X174336260Y-109185000D01*
X174623158Y-109127932D01*
X174893411Y-109015990D01*
X175136632Y-108853475D01*
X175290000Y-108700107D01*
X175443368Y-108853475D01*
X175686589Y-109015990D01*
X175956842Y-109127932D01*
X176243740Y-109185000D01*
X176536260Y-109185000D01*
X176823158Y-109127932D01*
X177093411Y-109015990D01*
X177336632Y-108853475D01*
X177490000Y-108700107D01*
X177643368Y-108853475D01*
X177886589Y-109015990D01*
X178156842Y-109127932D01*
X178443740Y-109185000D01*
X178736260Y-109185000D01*
X179023158Y-109127932D01*
X179293411Y-109015990D01*
X179536632Y-108853475D01*
X179690000Y-108700107D01*
X179843368Y-108853475D01*
X180086589Y-109015990D01*
X180356842Y-109127932D01*
X180643740Y-109185000D01*
X180936260Y-109185000D01*
X181223158Y-109127932D01*
X181493411Y-109015990D01*
X181736632Y-108853475D01*
X181890000Y-108700107D01*
X182043368Y-108853475D01*
X182286589Y-109015990D01*
X182556842Y-109127932D01*
X182843740Y-109185000D01*
X183136260Y-109185000D01*
X183423158Y-109127932D01*
X183693411Y-109015990D01*
X183936632Y-108853475D01*
X184090000Y-108700107D01*
X184243368Y-108853475D01*
X184486589Y-109015990D01*
X184756842Y-109127932D01*
X185043740Y-109185000D01*
X185336260Y-109185000D01*
X185623158Y-109127932D01*
X185893411Y-109015990D01*
X186136632Y-108853475D01*
X186261710Y-108728397D01*
X186541208Y-108728397D01*
X186618843Y-108977472D01*
X186882883Y-109103371D01*
X187166411Y-109175339D01*
X187458531Y-109190611D01*
X187748019Y-109148599D01*
X188023747Y-109050919D01*
X188161157Y-108977472D01*
X188238792Y-108728397D01*
X187390000Y-107879605D01*
X186541208Y-108728397D01*
X186261710Y-108728397D01*
X186343475Y-108646632D01*
X186503988Y-108406407D01*
X187210395Y-107700000D01*
X187569605Y-107700000D01*
X188276012Y-108406407D01*
X188436525Y-108646632D01*
X188643368Y-108853475D01*
X188886589Y-109015990D01*
X189156842Y-109127932D01*
X189443740Y-109185000D01*
X189736260Y-109185000D01*
X190023158Y-109127932D01*
X190293411Y-109015990D01*
X190536632Y-108853475D01*
X190690000Y-108700107D01*
X190843368Y-108853475D01*
X191086589Y-109015990D01*
X191356842Y-109127932D01*
X191643740Y-109185000D01*
X191936260Y-109185000D01*
X192223158Y-109127932D01*
X192493411Y-109015990D01*
X192736632Y-108853475D01*
X192890000Y-108700107D01*
X193043368Y-108853475D01*
X193286589Y-109015990D01*
X193556842Y-109127932D01*
X193843740Y-109185000D01*
X194136260Y-109185000D01*
X194423158Y-109127932D01*
X194693411Y-109015990D01*
X194936632Y-108853475D01*
X195143475Y-108646632D01*
X195305990Y-108403411D01*
X195417932Y-108133158D01*
X195475000Y-107846260D01*
X195475000Y-107553740D01*
X195417932Y-107266842D01*
X195305990Y-106996589D01*
X195143475Y-106753368D01*
X194936632Y-106546525D01*
X194693411Y-106384010D01*
X194423158Y-106272068D01*
X194136260Y-106215000D01*
X193843740Y-106215000D01*
X193556842Y-106272068D01*
X193286589Y-106384010D01*
X193043368Y-106546525D01*
X192890000Y-106699893D01*
X192736632Y-106546525D01*
X192493411Y-106384010D01*
X192223158Y-106272068D01*
X191936260Y-106215000D01*
X191643740Y-106215000D01*
X191356842Y-106272068D01*
X191086589Y-106384010D01*
X190843368Y-106546525D01*
X190690000Y-106699893D01*
X190536632Y-106546525D01*
X190293411Y-106384010D01*
X190023158Y-106272068D01*
X189736260Y-106215000D01*
X189443740Y-106215000D01*
X189156842Y-106272068D01*
X188886589Y-106384010D01*
X188643368Y-106546525D01*
X188436525Y-106753368D01*
X188276012Y-106993593D01*
X187569605Y-107700000D01*
X187210395Y-107700000D01*
X186503988Y-106993593D01*
X186343475Y-106753368D01*
X186261710Y-106671603D01*
X186541208Y-106671603D01*
X187390000Y-107520395D01*
X188238792Y-106671603D01*
X188161157Y-106422528D01*
X187897117Y-106296629D01*
X187613589Y-106224661D01*
X187321469Y-106209389D01*
X187031981Y-106251401D01*
X186756253Y-106349081D01*
X186618843Y-106422528D01*
X186541208Y-106671603D01*
X186261710Y-106671603D01*
X186136632Y-106546525D01*
X185893411Y-106384010D01*
X185623158Y-106272068D01*
X185336260Y-106215000D01*
X185043740Y-106215000D01*
X184756842Y-106272068D01*
X184486589Y-106384010D01*
X184243368Y-106546525D01*
X184090000Y-106699893D01*
X183936632Y-106546525D01*
X183693411Y-106384010D01*
X183423158Y-106272068D01*
X183136260Y-106215000D01*
X182843740Y-106215000D01*
X182556842Y-106272068D01*
X182286589Y-106384010D01*
X182043368Y-106546525D01*
X181890000Y-106699893D01*
X181736632Y-106546525D01*
X181493411Y-106384010D01*
X181223158Y-106272068D01*
X180936260Y-106215000D01*
X180643740Y-106215000D01*
X180356842Y-106272068D01*
X180086589Y-106384010D01*
X179843368Y-106546525D01*
X179690000Y-106699893D01*
X179536632Y-106546525D01*
X179293411Y-106384010D01*
X179023158Y-106272068D01*
X178736260Y-106215000D01*
X178443740Y-106215000D01*
X178156842Y-106272068D01*
X177886589Y-106384010D01*
X177643368Y-106546525D01*
X177490000Y-106699893D01*
X177336632Y-106546525D01*
X177093411Y-106384010D01*
X176823158Y-106272068D01*
X176536260Y-106215000D01*
X176243740Y-106215000D01*
X175956842Y-106272068D01*
X175686589Y-106384010D01*
X175443368Y-106546525D01*
X175290000Y-106699893D01*
X175136632Y-106546525D01*
X174893411Y-106384010D01*
X174623158Y-106272068D01*
X174336260Y-106215000D01*
X174043740Y-106215000D01*
X173756842Y-106272068D01*
X173486589Y-106384010D01*
X173243368Y-106546525D01*
X173090000Y-106699893D01*
X172936632Y-106546525D01*
X172693411Y-106384010D01*
X172423158Y-106272068D01*
X172136260Y-106215000D01*
X171843740Y-106215000D01*
X171556842Y-106272068D01*
X171286589Y-106384010D01*
X171043368Y-106546525D01*
X170890000Y-106699893D01*
X170736632Y-106546525D01*
X170493411Y-106384010D01*
X170223158Y-106272068D01*
X169936260Y-106215000D01*
X169643740Y-106215000D01*
X169356842Y-106272068D01*
X169086589Y-106384010D01*
X168843368Y-106546525D01*
X168690000Y-106699893D01*
X168536632Y-106546525D01*
X168293411Y-106384010D01*
X168023158Y-106272068D01*
X167736260Y-106215000D01*
X167443740Y-106215000D01*
X167156842Y-106272068D01*
X166886589Y-106384010D01*
X166643368Y-106546525D01*
X166490000Y-106699893D01*
X166336632Y-106546525D01*
X166093411Y-106384010D01*
X165823158Y-106272068D01*
X165536260Y-106215000D01*
X165243740Y-106215000D01*
X164956842Y-106272068D01*
X164686589Y-106384010D01*
X164443368Y-106546525D01*
X164290000Y-106699893D01*
X164136632Y-106546525D01*
X163893411Y-106384010D01*
X163623158Y-106272068D01*
X163336260Y-106215000D01*
X163043740Y-106215000D01*
X162756842Y-106272068D01*
X162486589Y-106384010D01*
X162243368Y-106546525D01*
X162036525Y-106753368D01*
X161874010Y-106996589D01*
X161762068Y-107266842D01*
X161705000Y-107553740D01*
X150927000Y-107553740D01*
X150927000Y-101556234D01*
X150944376Y-101379811D01*
X150994022Y-101216150D01*
X151074638Y-101065328D01*
X151183130Y-100933130D01*
X151315328Y-100824638D01*
X151466150Y-100744022D01*
X151629811Y-100694376D01*
X151806234Y-100677000D01*
X155425313Y-100677000D01*
X155426440Y-100679721D01*
X155426440Y-100679721D01*
G37*
X155426440Y-100679721D02*
X155687450Y-101070349D01*
X156019651Y-101402550D01*
X156410279Y-101663560D01*
X156844321Y-101843346D01*
X157305098Y-101935000D01*
X157774902Y-101935000D01*
X158235679Y-101843346D01*
X158669721Y-101663560D01*
X159060349Y-101402550D01*
X159392550Y-101070349D01*
X159653560Y-100679721D01*
X159654687Y-100677000D01*
X197525313Y-100677000D01*
X197526440Y-100679721D01*
X197787450Y-101070349D01*
X198119651Y-101402550D01*
X198510279Y-101663560D01*
X198944321Y-101843346D01*
X199405098Y-101935000D01*
X199874902Y-101935000D01*
X200335679Y-101843346D01*
X200769721Y-101663560D01*
X201160349Y-101402550D01*
X201492550Y-101070349D01*
X201753560Y-100679721D01*
X201754687Y-100677000D01*
X204793766Y-100677000D01*
X204970189Y-100694376D01*
X205133850Y-100744022D01*
X205284672Y-100824638D01*
X205416870Y-100933130D01*
X205525362Y-101065328D01*
X205605978Y-101216150D01*
X205655624Y-101379811D01*
X205673000Y-101556234D01*
X205673000Y-115840000D01*
X203267581Y-115840000D01*
X203265287Y-115840226D01*
X203242341Y-115840386D01*
X203212522Y-115843520D01*
X203182539Y-115843520D01*
X203173374Y-115844483D01*
X202436366Y-115927152D01*
X202377877Y-115939585D01*
X202319174Y-115951208D01*
X202310371Y-115953933D01*
X201603457Y-116178180D01*
X201548485Y-116201741D01*
X201493170Y-116224540D01*
X201485064Y-116228923D01*
X200835168Y-116586206D01*
X200785822Y-116619994D01*
X200735985Y-116653105D01*
X200728885Y-116658980D01*
X200160764Y-117135690D01*
X200118920Y-117178420D01*
X200076464Y-117220580D01*
X200070640Y-117227721D01*
X199605933Y-117805702D01*
X199573195Y-117855732D01*
X199539728Y-117905348D01*
X199535402Y-117913484D01*
X199191807Y-118570719D01*
X199169401Y-118626177D01*
X199146217Y-118681328D01*
X199143554Y-118690150D01*
X198934161Y-119401606D01*
X198922963Y-119460307D01*
X198910923Y-119518963D01*
X198910024Y-119528134D01*
X198842809Y-120266712D01*
X198843227Y-120326529D01*
X198842809Y-120386346D01*
X198843709Y-120395517D01*
X198921230Y-121133085D01*
X198933250Y-121191641D01*
X198944466Y-121250442D01*
X198947130Y-121259263D01*
X199166436Y-121967726D01*
X199189616Y-122022869D01*
X199212025Y-122078334D01*
X199216352Y-122086471D01*
X199569089Y-122738845D01*
X199602534Y-122788429D01*
X199635294Y-122838492D01*
X199641118Y-122845633D01*
X200113851Y-123417069D01*
X200156287Y-123459209D01*
X200198150Y-123501959D01*
X200205251Y-123507832D01*
X200779973Y-123976564D01*
X200829766Y-124009646D01*
X200879155Y-124043464D01*
X200887261Y-124047847D01*
X201542082Y-124396020D01*
X201597350Y-124418800D01*
X201652368Y-124442381D01*
X201661172Y-124445106D01*
X202371147Y-124659461D01*
X202429832Y-124671081D01*
X202488340Y-124683517D01*
X202497503Y-124684480D01*
X202497505Y-124684480D01*
X203235595Y-124756850D01*
X203235598Y-124756850D01*
X203267581Y-124760000D01*
X205673000Y-124760000D01*
X205673000Y-126782916D01*
X205559287Y-126612733D01*
X205387267Y-126440713D01*
X205184992Y-126305557D01*
X204960236Y-126212460D01*
X204721637Y-126165000D01*
X204478363Y-126165000D01*
X204239764Y-126212460D01*
X204015008Y-126305557D01*
X203812733Y-126440713D01*
X203640713Y-126612733D01*
X203505557Y-126815008D01*
X203412460Y-127039764D01*
X203365000Y-127278363D01*
X203365000Y-127521637D01*
X203412460Y-127760236D01*
X203505557Y-127984992D01*
X203640713Y-128187267D01*
X203812733Y-128359287D01*
X204015008Y-128494443D01*
X204239764Y-128587540D01*
X204478363Y-128635000D01*
X204721637Y-128635000D01*
X204960236Y-128587540D01*
X205184992Y-128494443D01*
X205387267Y-128359287D01*
X205559287Y-128187267D01*
X205673000Y-128017084D01*
X205673000Y-129764950D01*
X205431191Y-129764950D01*
X205400000Y-129761878D01*
X205368809Y-129764950D01*
X205275509Y-129774139D01*
X205155801Y-129810452D01*
X205045478Y-129869421D01*
X204948780Y-129948780D01*
X204869421Y-130045478D01*
X204810452Y-130155801D01*
X204774139Y-130275509D01*
X204761878Y-130400000D01*
X204764951Y-130431201D01*
X204764950Y-134368809D01*
X204761878Y-134400000D01*
X204774139Y-134524491D01*
X204810452Y-134644199D01*
X204869421Y-134754522D01*
X204947727Y-134849937D01*
X204948780Y-134851220D01*
X205045478Y-134930579D01*
X205155801Y-134989548D01*
X205275509Y-135025861D01*
X205400000Y-135038122D01*
X205431191Y-135035050D01*
X205673000Y-135035050D01*
X205673000Y-136782916D01*
X205559287Y-136612733D01*
X205387267Y-136440713D01*
X205184992Y-136305557D01*
X204960236Y-136212460D01*
X204721637Y-136165000D01*
X204478363Y-136165000D01*
X204239764Y-136212460D01*
X204015008Y-136305557D01*
X203812733Y-136440713D01*
X203640713Y-136612733D01*
X203505557Y-136815008D01*
X203412460Y-137039764D01*
X203365000Y-137278363D01*
X203365000Y-137521637D01*
X203412460Y-137760236D01*
X203505557Y-137984992D01*
X203640713Y-138187267D01*
X203812733Y-138359287D01*
X204015008Y-138494443D01*
X204239764Y-138587540D01*
X204478363Y-138635000D01*
X204721637Y-138635000D01*
X204960236Y-138587540D01*
X205184992Y-138494443D01*
X205387267Y-138359287D01*
X205559287Y-138187267D01*
X205673000Y-138017084D01*
X205673000Y-154543766D01*
X205655624Y-154720189D01*
X205605978Y-154883850D01*
X205525362Y-155034672D01*
X205416870Y-155166870D01*
X205284672Y-155275362D01*
X205133850Y-155355978D01*
X204970189Y-155405624D01*
X204793766Y-155423000D01*
X190306234Y-155423000D01*
X190129811Y-155405624D01*
X189966150Y-155355978D01*
X189815328Y-155275362D01*
X189683130Y-155166870D01*
X189574638Y-155034672D01*
X189494022Y-154883850D01*
X189444376Y-154720189D01*
X189427000Y-154543766D01*
X189427000Y-142081834D01*
X190020222Y-142081834D01*
X190069823Y-142524039D01*
X190204371Y-142948188D01*
X190418741Y-143338125D01*
X190704768Y-143678998D01*
X191051556Y-143957823D01*
X191445897Y-144163979D01*
X191872771Y-144289615D01*
X192315917Y-144329944D01*
X192758458Y-144283432D01*
X193183536Y-144151848D01*
X193574960Y-143940206D01*
X193917821Y-143656566D01*
X194199060Y-143311733D01*
X194407965Y-142918840D01*
X194536578Y-142492854D01*
X194580000Y-142050000D01*
X194579111Y-141986339D01*
X194523341Y-141544869D01*
X194382884Y-141122640D01*
X194163090Y-140735734D01*
X193872333Y-140398888D01*
X193521685Y-140124932D01*
X193124504Y-139924302D01*
X192695918Y-139804638D01*
X192252251Y-139770500D01*
X191810403Y-139823187D01*
X191387204Y-139960693D01*
X190998773Y-140177780D01*
X190659905Y-140466179D01*
X190383508Y-140814905D01*
X190180110Y-141210676D01*
X190057457Y-141638416D01*
X190020222Y-142081834D01*
X189427000Y-142081834D01*
X189427000Y-137400000D01*
X195150764Y-137400000D01*
X195175652Y-137652688D01*
X195249358Y-137895665D01*
X195369051Y-138119595D01*
X195530130Y-138315870D01*
X195726405Y-138476949D01*
X195950335Y-138596642D01*
X196193312Y-138670348D01*
X196382686Y-138689000D01*
X197817314Y-138689000D01*
X198006688Y-138670348D01*
X198249665Y-138596642D01*
X198473595Y-138476949D01*
X198669870Y-138315870D01*
X198830949Y-138119595D01*
X198950642Y-137895665D01*
X199024348Y-137652688D01*
X199049236Y-137400000D01*
X199037256Y-137278363D01*
X200865000Y-137278363D01*
X200865000Y-137521637D01*
X200912460Y-137760236D01*
X201005557Y-137984992D01*
X201140713Y-138187267D01*
X201312733Y-138359287D01*
X201515008Y-138494443D01*
X201739764Y-138587540D01*
X201978363Y-138635000D01*
X202221637Y-138635000D01*
X202460236Y-138587540D01*
X202684992Y-138494443D01*
X202887267Y-138359287D01*
X203059287Y-138187267D01*
X203194443Y-137984992D01*
X203287540Y-137760236D01*
X203335000Y-137521637D01*
X203335000Y-137278363D01*
X203287540Y-137039764D01*
X203194443Y-136815008D01*
X203059287Y-136612733D01*
X202887267Y-136440713D01*
X202684992Y-136305557D01*
X202460236Y-136212460D01*
X202221637Y-136165000D01*
X201978363Y-136165000D01*
X201739764Y-136212460D01*
X201515008Y-136305557D01*
X201312733Y-136440713D01*
X201140713Y-136612733D01*
X201005557Y-136815008D01*
X200912460Y-137039764D01*
X200865000Y-137278363D01*
X199037256Y-137278363D01*
X199024348Y-137147312D01*
X198950642Y-136904335D01*
X198830949Y-136680405D01*
X198669870Y-136484130D01*
X198473595Y-136323051D01*
X198249665Y-136203358D01*
X198006688Y-136129652D01*
X197817314Y-136111000D01*
X196382686Y-136111000D01*
X196193312Y-136129652D01*
X195950335Y-136203358D01*
X195726405Y-136323051D01*
X195530130Y-136484130D01*
X195369051Y-136680405D01*
X195249358Y-136904335D01*
X195175652Y-137147312D01*
X195150764Y-137400000D01*
X189427000Y-137400000D01*
X189427000Y-132550000D01*
X189426388Y-132537552D01*
X189407173Y-132342462D01*
X189402317Y-132318044D01*
X189390281Y-132278363D01*
X195865000Y-132278363D01*
X195865000Y-132521637D01*
X195912460Y-132760236D01*
X196005557Y-132984992D01*
X196140713Y-133187267D01*
X196312733Y-133359287D01*
X196515008Y-133494443D01*
X196739764Y-133587540D01*
X196978363Y-133635000D01*
X197221637Y-133635000D01*
X197460236Y-133587540D01*
X197684992Y-133494443D01*
X197887267Y-133359287D01*
X198059287Y-133187267D01*
X198194443Y-132984992D01*
X198287540Y-132760236D01*
X198333933Y-132527000D01*
X200811000Y-132527000D01*
X200811000Y-133181000D01*
X200860544Y-133430031D01*
X200957720Y-133664612D01*
X201098793Y-133875727D01*
X201278342Y-134055264D01*
X201489467Y-134196323D01*
X201724054Y-134293483D01*
X201773901Y-134301068D01*
X201973000Y-134177092D01*
X201973000Y-132527000D01*
X202227000Y-132527000D01*
X202227000Y-134177092D01*
X202426099Y-134301068D01*
X202475946Y-134293483D01*
X202710533Y-134196323D01*
X202921658Y-134055264D01*
X203101207Y-133875727D01*
X203242280Y-133664612D01*
X203339456Y-133430031D01*
X203389000Y-133181000D01*
X203389000Y-132527000D01*
X202227000Y-132527000D01*
X201973000Y-132527000D01*
X200811000Y-132527000D01*
X198333933Y-132527000D01*
X198335000Y-132521637D01*
X198335000Y-132278363D01*
X198287540Y-132039764D01*
X198194443Y-131815008D01*
X198063475Y-131619000D01*
X200811000Y-131619000D01*
X200811000Y-132273000D01*
X201973000Y-132273000D01*
X201973000Y-130622908D01*
X202227000Y-130622908D01*
X202227000Y-132273000D01*
X203389000Y-132273000D01*
X203389000Y-131619000D01*
X203339456Y-131369969D01*
X203242280Y-131135388D01*
X203101207Y-130924273D01*
X202921658Y-130744736D01*
X202710533Y-130603677D01*
X202475946Y-130506517D01*
X202426099Y-130498932D01*
X202227000Y-130622908D01*
X201973000Y-130622908D01*
X201773901Y-130498932D01*
X201724054Y-130506517D01*
X201489467Y-130603677D01*
X201278342Y-130744736D01*
X201098793Y-130924273D01*
X200957720Y-131135388D01*
X200860544Y-131369969D01*
X200811000Y-131619000D01*
X198063475Y-131619000D01*
X198059287Y-131612733D01*
X197887267Y-131440713D01*
X197684992Y-131305557D01*
X197460236Y-131212460D01*
X197221637Y-131165000D01*
X196978363Y-131165000D01*
X196739764Y-131212460D01*
X196515008Y-131305557D01*
X196312733Y-131440713D01*
X196140713Y-131612733D01*
X196005557Y-131815008D01*
X195912460Y-132039764D01*
X195865000Y-132278363D01*
X189390281Y-132278363D01*
X189345412Y-132130451D01*
X189335884Y-132107450D01*
X189243474Y-131934563D01*
X189229642Y-131913862D01*
X189105279Y-131762325D01*
X189087675Y-131744721D01*
X188936138Y-131620358D01*
X188915437Y-131606526D01*
X188742550Y-131514116D01*
X188719549Y-131504588D01*
X188531956Y-131447683D01*
X188507538Y-131442827D01*
X188312448Y-131423612D01*
X188300000Y-131423000D01*
X172806234Y-131423000D01*
X172629811Y-131405624D01*
X172466150Y-131355978D01*
X172315328Y-131275362D01*
X172183130Y-131166870D01*
X172074638Y-131034672D01*
X171994022Y-130883850D01*
X171944376Y-130720189D01*
X171927000Y-130543766D01*
X171927000Y-127400000D01*
X195150764Y-127400000D01*
X195175652Y-127652688D01*
X195249358Y-127895665D01*
X195369051Y-128119595D01*
X195530130Y-128315870D01*
X195726405Y-128476949D01*
X195950335Y-128596642D01*
X196193312Y-128670348D01*
X196382686Y-128689000D01*
X197817314Y-128689000D01*
X198006688Y-128670348D01*
X198249665Y-128596642D01*
X198473595Y-128476949D01*
X198669870Y-128315870D01*
X198830949Y-128119595D01*
X198950642Y-127895665D01*
X199024348Y-127652688D01*
X199049236Y-127400000D01*
X199037256Y-127278363D01*
X200865000Y-127278363D01*
X200865000Y-127521637D01*
X200912460Y-127760236D01*
X201005557Y-127984992D01*
X201140713Y-128187267D01*
X201312733Y-128359287D01*
X201515008Y-128494443D01*
X201739764Y-128587540D01*
X201978363Y-128635000D01*
X202221637Y-128635000D01*
X202460236Y-128587540D01*
X202684992Y-128494443D01*
X202887267Y-128359287D01*
X203059287Y-128187267D01*
X203194443Y-127984992D01*
X203287540Y-127760236D01*
X203335000Y-127521637D01*
X203335000Y-127278363D01*
X203287540Y-127039764D01*
X203194443Y-126815008D01*
X203059287Y-126612733D01*
X202887267Y-126440713D01*
X202684992Y-126305557D01*
X202460236Y-126212460D01*
X202221637Y-126165000D01*
X201978363Y-126165000D01*
X201739764Y-126212460D01*
X201515008Y-126305557D01*
X201312733Y-126440713D01*
X201140713Y-126612733D01*
X201005557Y-126815008D01*
X200912460Y-127039764D01*
X200865000Y-127278363D01*
X199037256Y-127278363D01*
X199024348Y-127147312D01*
X198950642Y-126904335D01*
X198830949Y-126680405D01*
X198669870Y-126484130D01*
X198473595Y-126323051D01*
X198249665Y-126203358D01*
X198006688Y-126129652D01*
X197817314Y-126111000D01*
X196382686Y-126111000D01*
X196193312Y-126129652D01*
X195950335Y-126203358D01*
X195726405Y-126323051D01*
X195530130Y-126484130D01*
X195369051Y-126680405D01*
X195249358Y-126904335D01*
X195175652Y-127147312D01*
X195150764Y-127400000D01*
X171927000Y-127400000D01*
X171927000Y-120050000D01*
X171926388Y-120037552D01*
X171907173Y-119842462D01*
X171902317Y-119818044D01*
X171845412Y-119630451D01*
X171835884Y-119607450D01*
X171743474Y-119434563D01*
X171729642Y-119413862D01*
X171605279Y-119262325D01*
X171587675Y-119244721D01*
X171436138Y-119120358D01*
X171415437Y-119106526D01*
X171242550Y-119014116D01*
X171219549Y-119004588D01*
X171031956Y-118947683D01*
X171007538Y-118942827D01*
X170812448Y-118923612D01*
X170800000Y-118923000D01*
X157523559Y-118923000D01*
X157433564Y-118632274D01*
X157410384Y-118577131D01*
X157387975Y-118521666D01*
X157383648Y-118513529D01*
X157030911Y-117861155D01*
X156997466Y-117811571D01*
X156964706Y-117761508D01*
X156958881Y-117754367D01*
X156486149Y-117182931D01*
X156443713Y-117140791D01*
X156401850Y-117098041D01*
X156394749Y-117092168D01*
X155820027Y-116623436D01*
X155770219Y-116590343D01*
X155720845Y-116556536D01*
X155712739Y-116552153D01*
X155057918Y-116203979D01*
X155002603Y-116181180D01*
X154947631Y-116157619D01*
X154938828Y-116154894D01*
X154228852Y-115940539D01*
X154170175Y-115928921D01*
X154111660Y-115916483D01*
X154102497Y-115915520D01*
X154102495Y-115915520D01*
X153364404Y-115843150D01*
X153364402Y-115843150D01*
X153332419Y-115840000D01*
X150927000Y-115840000D01*
X150927000Y-110553740D01*
X161705000Y-110553740D01*
X161705000Y-110846260D01*
X161762068Y-111133158D01*
X161874010Y-111403411D01*
X162036525Y-111646632D01*
X162243368Y-111853475D01*
X162486589Y-112015990D01*
X162756842Y-112127932D01*
X163001049Y-112176508D01*
X162998773Y-112177780D01*
X162659905Y-112466179D01*
X162383508Y-112814905D01*
X162180110Y-113210676D01*
X162057457Y-113638416D01*
X162020222Y-114081834D01*
X162069823Y-114524039D01*
X162204371Y-114948188D01*
X162418741Y-115338125D01*
X162704768Y-115678998D01*
X163051556Y-115957823D01*
X163445897Y-116163979D01*
X163872771Y-116289615D01*
X164315917Y-116329944D01*
X164758458Y-116283432D01*
X165183536Y-116151848D01*
X165574960Y-115940206D01*
X165917821Y-115656566D01*
X166199060Y-115311733D01*
X166407965Y-114918840D01*
X166536578Y-114492854D01*
X166580000Y-114050000D01*
X166579111Y-113986339D01*
X166523341Y-113544869D01*
X166382884Y-113122640D01*
X166163090Y-112735734D01*
X165872333Y-112398888D01*
X165585924Y-112175121D01*
X165823158Y-112127932D01*
X166093411Y-112015990D01*
X166336632Y-111853475D01*
X166490000Y-111700107D01*
X166643368Y-111853475D01*
X166886589Y-112015990D01*
X167156842Y-112127932D01*
X167443740Y-112185000D01*
X167736260Y-112185000D01*
X168023158Y-112127932D01*
X168293411Y-112015990D01*
X168536632Y-111853475D01*
X168690000Y-111700107D01*
X168843368Y-111853475D01*
X169086589Y-112015990D01*
X169356842Y-112127932D01*
X169643740Y-112185000D01*
X169936260Y-112185000D01*
X170223158Y-112127932D01*
X170493411Y-112015990D01*
X170736632Y-111853475D01*
X170890000Y-111700107D01*
X171043368Y-111853475D01*
X171286589Y-112015990D01*
X171556842Y-112127932D01*
X171843740Y-112185000D01*
X172136260Y-112185000D01*
X172423158Y-112127932D01*
X172693411Y-112015990D01*
X172936632Y-111853475D01*
X173143475Y-111646632D01*
X173305990Y-111403411D01*
X173417932Y-111133158D01*
X173475000Y-110846260D01*
X173475000Y-110553740D01*
X185905000Y-110553740D01*
X185905000Y-110846260D01*
X185962068Y-111133158D01*
X186074010Y-111403411D01*
X186236525Y-111646632D01*
X186443368Y-111853475D01*
X186686589Y-112015990D01*
X186956842Y-112127932D01*
X187243740Y-112185000D01*
X187536260Y-112185000D01*
X187823158Y-112127932D01*
X188093411Y-112015990D01*
X188336632Y-111853475D01*
X188490000Y-111700107D01*
X188643368Y-111853475D01*
X188886589Y-112015990D01*
X189156842Y-112127932D01*
X189443740Y-112185000D01*
X189736260Y-112185000D01*
X190023158Y-112127932D01*
X190293411Y-112015990D01*
X190536632Y-111853475D01*
X190690000Y-111700107D01*
X190843368Y-111853475D01*
X191086589Y-112015990D01*
X191202417Y-112063967D01*
X190998773Y-112177780D01*
X190659905Y-112466179D01*
X190383508Y-112814905D01*
X190180110Y-113210676D01*
X190057457Y-113638416D01*
X190020222Y-114081834D01*
X190069823Y-114524039D01*
X190204371Y-114948188D01*
X190418741Y-115338125D01*
X190704768Y-115678998D01*
X191051556Y-115957823D01*
X191445897Y-116163979D01*
X191872771Y-116289615D01*
X192315917Y-116329944D01*
X192758458Y-116283432D01*
X193183536Y-116151848D01*
X193574960Y-115940206D01*
X193917821Y-115656566D01*
X194199060Y-115311733D01*
X194407965Y-114918840D01*
X194536578Y-114492854D01*
X194580000Y-114050000D01*
X194579111Y-113986339D01*
X194523341Y-113544869D01*
X194382884Y-113122640D01*
X194163090Y-112735734D01*
X193872333Y-112398888D01*
X193521685Y-112124932D01*
X193394518Y-112060695D01*
X193556842Y-112127932D01*
X193843740Y-112185000D01*
X194136260Y-112185000D01*
X194423158Y-112127932D01*
X194693411Y-112015990D01*
X194936632Y-111853475D01*
X195143475Y-111646632D01*
X195305990Y-111403411D01*
X195417932Y-111133158D01*
X195475000Y-110846260D01*
X195475000Y-110553740D01*
X195417932Y-110266842D01*
X195305990Y-109996589D01*
X195143475Y-109753368D01*
X194936632Y-109546525D01*
X194693411Y-109384010D01*
X194423158Y-109272068D01*
X194136260Y-109215000D01*
X193843740Y-109215000D01*
X193556842Y-109272068D01*
X193286589Y-109384010D01*
X193043368Y-109546525D01*
X192890000Y-109699893D01*
X192736632Y-109546525D01*
X192493411Y-109384010D01*
X192223158Y-109272068D01*
X191936260Y-109215000D01*
X191643740Y-109215000D01*
X191356842Y-109272068D01*
X191086589Y-109384010D01*
X190843368Y-109546525D01*
X190690000Y-109699893D01*
X190536632Y-109546525D01*
X190293411Y-109384010D01*
X190023158Y-109272068D01*
X189736260Y-109215000D01*
X189443740Y-109215000D01*
X189156842Y-109272068D01*
X188886589Y-109384010D01*
X188643368Y-109546525D01*
X188490000Y-109699893D01*
X188336632Y-109546525D01*
X188093411Y-109384010D01*
X187823158Y-109272068D01*
X187536260Y-109215000D01*
X187243740Y-109215000D01*
X186956842Y-109272068D01*
X186686589Y-109384010D01*
X186443368Y-109546525D01*
X186236525Y-109753368D01*
X186074010Y-109996589D01*
X185962068Y-110266842D01*
X185905000Y-110553740D01*
X173475000Y-110553740D01*
X173417932Y-110266842D01*
X173305990Y-109996589D01*
X173143475Y-109753368D01*
X172936632Y-109546525D01*
X172693411Y-109384010D01*
X172423158Y-109272068D01*
X172136260Y-109215000D01*
X171843740Y-109215000D01*
X171556842Y-109272068D01*
X171286589Y-109384010D01*
X171043368Y-109546525D01*
X170890000Y-109699893D01*
X170736632Y-109546525D01*
X170493411Y-109384010D01*
X170223158Y-109272068D01*
X169936260Y-109215000D01*
X169643740Y-109215000D01*
X169356842Y-109272068D01*
X169086589Y-109384010D01*
X168843368Y-109546525D01*
X168690000Y-109699893D01*
X168536632Y-109546525D01*
X168293411Y-109384010D01*
X168023158Y-109272068D01*
X167736260Y-109215000D01*
X167443740Y-109215000D01*
X167156842Y-109272068D01*
X166886589Y-109384010D01*
X166643368Y-109546525D01*
X166490000Y-109699893D01*
X166336632Y-109546525D01*
X166093411Y-109384010D01*
X165823158Y-109272068D01*
X165536260Y-109215000D01*
X165243740Y-109215000D01*
X164956842Y-109272068D01*
X164686589Y-109384010D01*
X164443368Y-109546525D01*
X164290000Y-109699893D01*
X164136632Y-109546525D01*
X163893411Y-109384010D01*
X163623158Y-109272068D01*
X163336260Y-109215000D01*
X163043740Y-109215000D01*
X162756842Y-109272068D01*
X162486589Y-109384010D01*
X162243368Y-109546525D01*
X162036525Y-109753368D01*
X161874010Y-109996589D01*
X161762068Y-110266842D01*
X161705000Y-110553740D01*
X150927000Y-110553740D01*
X150927000Y-107553740D01*
X161705000Y-107553740D01*
X161705000Y-107846260D01*
X161762068Y-108133158D01*
X161874010Y-108403411D01*
X162036525Y-108646632D01*
X162243368Y-108853475D01*
X162486589Y-109015990D01*
X162756842Y-109127932D01*
X163043740Y-109185000D01*
X163336260Y-109185000D01*
X163623158Y-109127932D01*
X163893411Y-109015990D01*
X164136632Y-108853475D01*
X164290000Y-108700107D01*
X164443368Y-108853475D01*
X164686589Y-109015990D01*
X164956842Y-109127932D01*
X165243740Y-109185000D01*
X165536260Y-109185000D01*
X165823158Y-109127932D01*
X166093411Y-109015990D01*
X166336632Y-108853475D01*
X166490000Y-108700107D01*
X166643368Y-108853475D01*
X166886589Y-109015990D01*
X167156842Y-109127932D01*
X167443740Y-109185000D01*
X167736260Y-109185000D01*
X168023158Y-109127932D01*
X168293411Y-109015990D01*
X168536632Y-108853475D01*
X168690000Y-108700107D01*
X168843368Y-108853475D01*
X169086589Y-109015990D01*
X169356842Y-109127932D01*
X169643740Y-109185000D01*
X169936260Y-109185000D01*
X170223158Y-109127932D01*
X170493411Y-109015990D01*
X170736632Y-108853475D01*
X170890000Y-108700107D01*
X171043368Y-108853475D01*
X171286589Y-109015990D01*
X171556842Y-109127932D01*
X171843740Y-109185000D01*
X172136260Y-109185000D01*
X172423158Y-109127932D01*
X172693411Y-109015990D01*
X172936632Y-108853475D01*
X173090000Y-108700107D01*
X173243368Y-108853475D01*
X173486589Y-109015990D01*
X173756842Y-109127932D01*
X174043740Y-109185000D01*
X174336260Y-109185000D01*
X174623158Y-109127932D01*
X174893411Y-109015990D01*
X175136632Y-108853475D01*
X175290000Y-108700107D01*
X175443368Y-108853475D01*
X175686589Y-109015990D01*
X175956842Y-109127932D01*
X176243740Y-109185000D01*
X176536260Y-109185000D01*
X176823158Y-109127932D01*
X177093411Y-109015990D01*
X177336632Y-108853475D01*
X177490000Y-108700107D01*
X177643368Y-108853475D01*
X177886589Y-109015990D01*
X178156842Y-109127932D01*
X178443740Y-109185000D01*
X178736260Y-109185000D01*
X179023158Y-109127932D01*
X179293411Y-109015990D01*
X179536632Y-108853475D01*
X179690000Y-108700107D01*
X179843368Y-108853475D01*
X180086589Y-109015990D01*
X180356842Y-109127932D01*
X180643740Y-109185000D01*
X180936260Y-109185000D01*
X181223158Y-109127932D01*
X181493411Y-109015990D01*
X181736632Y-108853475D01*
X181890000Y-108700107D01*
X182043368Y-108853475D01*
X182286589Y-109015990D01*
X182556842Y-109127932D01*
X182843740Y-109185000D01*
X183136260Y-109185000D01*
X183423158Y-109127932D01*
X183693411Y-109015990D01*
X183936632Y-108853475D01*
X184090000Y-108700107D01*
X184243368Y-108853475D01*
X184486589Y-109015990D01*
X184756842Y-109127932D01*
X185043740Y-109185000D01*
X185336260Y-109185000D01*
X185623158Y-109127932D01*
X185893411Y-109015990D01*
X186136632Y-108853475D01*
X186261710Y-108728397D01*
X186541208Y-108728397D01*
X186618843Y-108977472D01*
X186882883Y-109103371D01*
X187166411Y-109175339D01*
X187458531Y-109190611D01*
X187748019Y-109148599D01*
X188023747Y-109050919D01*
X188161157Y-108977472D01*
X188238792Y-108728397D01*
X187390000Y-107879605D01*
X186541208Y-108728397D01*
X186261710Y-108728397D01*
X186343475Y-108646632D01*
X186503988Y-108406407D01*
X187210395Y-107700000D01*
X187569605Y-107700000D01*
X188276012Y-108406407D01*
X188436525Y-108646632D01*
X188643368Y-108853475D01*
X188886589Y-109015990D01*
X189156842Y-109127932D01*
X189443740Y-109185000D01*
X189736260Y-109185000D01*
X190023158Y-109127932D01*
X190293411Y-109015990D01*
X190536632Y-108853475D01*
X190690000Y-108700107D01*
X190843368Y-108853475D01*
X191086589Y-109015990D01*
X191356842Y-109127932D01*
X191643740Y-109185000D01*
X191936260Y-109185000D01*
X192223158Y-109127932D01*
X192493411Y-109015990D01*
X192736632Y-108853475D01*
X192890000Y-108700107D01*
X193043368Y-108853475D01*
X193286589Y-109015990D01*
X193556842Y-109127932D01*
X193843740Y-109185000D01*
X194136260Y-109185000D01*
X194423158Y-109127932D01*
X194693411Y-109015990D01*
X194936632Y-108853475D01*
X195143475Y-108646632D01*
X195305990Y-108403411D01*
X195417932Y-108133158D01*
X195475000Y-107846260D01*
X195475000Y-107553740D01*
X195417932Y-107266842D01*
X195305990Y-106996589D01*
X195143475Y-106753368D01*
X194936632Y-106546525D01*
X194693411Y-106384010D01*
X194423158Y-106272068D01*
X194136260Y-106215000D01*
X193843740Y-106215000D01*
X193556842Y-106272068D01*
X193286589Y-106384010D01*
X193043368Y-106546525D01*
X192890000Y-106699893D01*
X192736632Y-106546525D01*
X192493411Y-106384010D01*
X192223158Y-106272068D01*
X191936260Y-106215000D01*
X191643740Y-106215000D01*
X191356842Y-106272068D01*
X191086589Y-106384010D01*
X190843368Y-106546525D01*
X190690000Y-106699893D01*
X190536632Y-106546525D01*
X190293411Y-106384010D01*
X190023158Y-106272068D01*
X189736260Y-106215000D01*
X189443740Y-106215000D01*
X189156842Y-106272068D01*
X188886589Y-106384010D01*
X188643368Y-106546525D01*
X188436525Y-106753368D01*
X188276012Y-106993593D01*
X187569605Y-107700000D01*
X187210395Y-107700000D01*
X186503988Y-106993593D01*
X186343475Y-106753368D01*
X186261710Y-106671603D01*
X186541208Y-106671603D01*
X187390000Y-107520395D01*
X188238792Y-106671603D01*
X188161157Y-106422528D01*
X187897117Y-106296629D01*
X187613589Y-106224661D01*
X187321469Y-106209389D01*
X187031981Y-106251401D01*
X186756253Y-106349081D01*
X186618843Y-106422528D01*
X186541208Y-106671603D01*
X186261710Y-106671603D01*
X186136632Y-106546525D01*
X185893411Y-106384010D01*
X185623158Y-106272068D01*
X185336260Y-106215000D01*
X185043740Y-106215000D01*
X184756842Y-106272068D01*
X184486589Y-106384010D01*
X184243368Y-106546525D01*
X184090000Y-106699893D01*
X183936632Y-106546525D01*
X183693411Y-106384010D01*
X183423158Y-106272068D01*
X183136260Y-106215000D01*
X182843740Y-106215000D01*
X182556842Y-106272068D01*
X182286589Y-106384010D01*
X182043368Y-106546525D01*
X181890000Y-106699893D01*
X181736632Y-106546525D01*
X181493411Y-106384010D01*
X181223158Y-106272068D01*
X180936260Y-106215000D01*
X180643740Y-106215000D01*
X180356842Y-106272068D01*
X180086589Y-106384010D01*
X179843368Y-106546525D01*
X179690000Y-106699893D01*
X179536632Y-106546525D01*
X179293411Y-106384010D01*
X179023158Y-106272068D01*
X178736260Y-106215000D01*
X178443740Y-106215000D01*
X178156842Y-106272068D01*
X177886589Y-106384010D01*
X177643368Y-106546525D01*
X177490000Y-106699893D01*
X177336632Y-106546525D01*
X177093411Y-106384010D01*
X176823158Y-106272068D01*
X176536260Y-106215000D01*
X176243740Y-106215000D01*
X175956842Y-106272068D01*
X175686589Y-106384010D01*
X175443368Y-106546525D01*
X175290000Y-106699893D01*
X175136632Y-106546525D01*
X174893411Y-106384010D01*
X174623158Y-106272068D01*
X174336260Y-106215000D01*
X174043740Y-106215000D01*
X173756842Y-106272068D01*
X173486589Y-106384010D01*
X173243368Y-106546525D01*
X173090000Y-106699893D01*
X172936632Y-106546525D01*
X172693411Y-106384010D01*
X172423158Y-106272068D01*
X172136260Y-106215000D01*
X171843740Y-106215000D01*
X171556842Y-106272068D01*
X171286589Y-106384010D01*
X171043368Y-106546525D01*
X170890000Y-106699893D01*
X170736632Y-106546525D01*
X170493411Y-106384010D01*
X170223158Y-106272068D01*
X169936260Y-106215000D01*
X169643740Y-106215000D01*
X169356842Y-106272068D01*
X169086589Y-106384010D01*
X168843368Y-106546525D01*
X168690000Y-106699893D01*
X168536632Y-106546525D01*
X168293411Y-106384010D01*
X168023158Y-106272068D01*
X167736260Y-106215000D01*
X167443740Y-106215000D01*
X167156842Y-106272068D01*
X166886589Y-106384010D01*
X166643368Y-106546525D01*
X166490000Y-106699893D01*
X166336632Y-106546525D01*
X166093411Y-106384010D01*
X165823158Y-106272068D01*
X165536260Y-106215000D01*
X165243740Y-106215000D01*
X164956842Y-106272068D01*
X164686589Y-106384010D01*
X164443368Y-106546525D01*
X164290000Y-106699893D01*
X164136632Y-106546525D01*
X163893411Y-106384010D01*
X163623158Y-106272068D01*
X163336260Y-106215000D01*
X163043740Y-106215000D01*
X162756842Y-106272068D01*
X162486589Y-106384010D01*
X162243368Y-106546525D01*
X162036525Y-106753368D01*
X161874010Y-106996589D01*
X161762068Y-107266842D01*
X161705000Y-107553740D01*
X150927000Y-107553740D01*
X150927000Y-101556234D01*
X150944376Y-101379811D01*
X150994022Y-101216150D01*
X151074638Y-101065328D01*
X151183130Y-100933130D01*
X151315328Y-100824638D01*
X151466150Y-100744022D01*
X151629811Y-100694376D01*
X151806234Y-100677000D01*
X155425313Y-100677000D01*
X155426440Y-100679721D01*
G36*
X169470189Y-120694376D02*
G01*
X169633850Y-120744022D01*
X169784672Y-120824638D01*
X169916870Y-120933130D01*
X170025362Y-121065328D01*
X170105978Y-121216150D01*
X170155624Y-121379811D01*
X170173000Y-121556234D01*
X170173000Y-132050000D01*
X170173612Y-132062448D01*
X170192827Y-132257538D01*
X170197683Y-132281956D01*
X170254588Y-132469549D01*
X170264116Y-132492550D01*
X170356526Y-132665437D01*
X170370358Y-132686138D01*
X170494721Y-132837675D01*
X170512325Y-132855279D01*
X170663862Y-132979642D01*
X170684563Y-132993474D01*
X170857450Y-133085884D01*
X170880451Y-133095412D01*
X171068044Y-133152317D01*
X171092462Y-133157173D01*
X171287552Y-133176388D01*
X171300000Y-133177000D01*
X186793766Y-133177000D01*
X186970189Y-133194376D01*
X187133850Y-133244022D01*
X187284672Y-133324638D01*
X187416870Y-133433130D01*
X187525362Y-133565328D01*
X187605978Y-133716150D01*
X187655624Y-133879811D01*
X187673000Y-134056234D01*
X187673000Y-154543766D01*
X187655624Y-154720189D01*
X187605978Y-154883850D01*
X187525362Y-155034672D01*
X187416870Y-155166870D01*
X187284672Y-155275362D01*
X187133850Y-155355978D01*
X186970189Y-155405624D01*
X186793766Y-155423000D01*
X151806234Y-155423000D01*
X151629811Y-155405624D01*
X151466150Y-155355978D01*
X151315328Y-155275362D01*
X151183130Y-155166870D01*
X151074638Y-155034672D01*
X150994022Y-154883850D01*
X150944376Y-154720189D01*
X150927000Y-154543766D01*
X150927000Y-152004249D01*
X172005000Y-152004249D01*
X172005000Y-153715752D01*
X172021423Y-153882499D01*
X172086325Y-154096447D01*
X172191717Y-154293623D01*
X172333552Y-154466449D01*
X172506378Y-154608284D01*
X172703554Y-154713676D01*
X172917502Y-154778577D01*
X173140000Y-154800491D01*
X173362499Y-154778577D01*
X173576447Y-154713676D01*
X173773623Y-154608284D01*
X173946449Y-154466449D01*
X174088284Y-154293623D01*
X174193676Y-154096447D01*
X174258577Y-153882499D01*
X174268593Y-153780802D01*
X174392337Y-153965998D01*
X174634002Y-154207663D01*
X174918169Y-154397537D01*
X175233919Y-154528325D01*
X175569117Y-154595000D01*
X175910883Y-154595000D01*
X176246081Y-154528325D01*
X176561831Y-154397537D01*
X176845998Y-154207663D01*
X177087663Y-153965998D01*
X177277537Y-153681831D01*
X177408325Y-153366081D01*
X177475000Y-153030883D01*
X177475000Y-152689117D01*
X179205000Y-152689117D01*
X179205000Y-153030883D01*
X179271675Y-153366081D01*
X179402463Y-153681831D01*
X179592337Y-153965998D01*
X179834002Y-154207663D01*
X180118169Y-154397537D01*
X180433919Y-154528325D01*
X180769117Y-154595000D01*
X181110883Y-154595000D01*
X181446081Y-154528325D01*
X181761831Y-154397537D01*
X182045998Y-154207663D01*
X182287663Y-153965998D01*
X182411407Y-153780802D01*
X182421423Y-153882499D01*
X182486325Y-154096447D01*
X182591717Y-154293623D01*
X182733552Y-154466449D01*
X182906378Y-154608284D01*
X183103554Y-154713676D01*
X183317502Y-154778577D01*
X183540000Y-154800491D01*
X183762499Y-154778577D01*
X183976447Y-154713676D01*
X184173623Y-154608284D01*
X184346449Y-154466449D01*
X184488284Y-154293623D01*
X184593676Y-154096447D01*
X184658577Y-153882499D01*
X184675000Y-153715752D01*
X184675000Y-152004248D01*
X184658577Y-151837501D01*
X184593676Y-151623553D01*
X184488284Y-151426377D01*
X184346449Y-151253551D01*
X184173623Y-151111716D01*
X183976446Y-151006324D01*
X183762498Y-150941423D01*
X183540000Y-150919509D01*
X183317501Y-150941423D01*
X183103553Y-151006324D01*
X182906377Y-151111716D01*
X182733551Y-151253551D01*
X182591716Y-151426377D01*
X182486324Y-151623554D01*
X182421423Y-151837502D01*
X182411407Y-151939198D01*
X182287663Y-151754002D01*
X182045998Y-151512337D01*
X181761831Y-151322463D01*
X181446081Y-151191675D01*
X181110883Y-151125000D01*
X180769117Y-151125000D01*
X180433919Y-151191675D01*
X180118169Y-151322463D01*
X179834002Y-151512337D01*
X179592337Y-151754002D01*
X179402463Y-152038169D01*
X179271675Y-152353919D01*
X179205000Y-152689117D01*
X177475000Y-152689117D01*
X177408325Y-152353919D01*
X177277537Y-152038169D01*
X177087663Y-151754002D01*
X176845998Y-151512337D01*
X176561831Y-151322463D01*
X176246081Y-151191675D01*
X175910883Y-151125000D01*
X175569117Y-151125000D01*
X175233919Y-151191675D01*
X174918169Y-151322463D01*
X174634002Y-151512337D01*
X174392337Y-151754002D01*
X174268593Y-151939198D01*
X174258577Y-151837501D01*
X174193676Y-151623553D01*
X174088284Y-151426377D01*
X173946449Y-151253551D01*
X173773623Y-151111716D01*
X173576446Y-151006324D01*
X173362498Y-150941423D01*
X173140000Y-150919509D01*
X172917501Y-150941423D01*
X172703553Y-151006324D01*
X172506377Y-151111716D01*
X172333551Y-151253551D01*
X172191716Y-151426377D01*
X172086324Y-151623554D01*
X172021423Y-151837502D01*
X172005000Y-152004249D01*
X150927000Y-152004249D01*
X150927000Y-145904249D01*
X172005000Y-145904249D01*
X172005000Y-147815752D01*
X172021424Y-147982499D01*
X172086325Y-148196447D01*
X172191717Y-148393623D01*
X172333552Y-148566449D01*
X172506378Y-148708284D01*
X172703554Y-148813676D01*
X172917502Y-148878577D01*
X173140000Y-148900491D01*
X173362499Y-148878577D01*
X173576447Y-148813676D01*
X173773623Y-148708284D01*
X173946449Y-148566449D01*
X174088284Y-148393623D01*
X174193676Y-148196447D01*
X174258577Y-147982499D01*
X174275000Y-147815752D01*
X174275000Y-145904249D01*
X182405000Y-145904249D01*
X182405000Y-147815752D01*
X182421424Y-147982499D01*
X182486325Y-148196447D01*
X182591717Y-148393623D01*
X182733552Y-148566449D01*
X182906378Y-148708284D01*
X183103554Y-148813676D01*
X183317502Y-148878577D01*
X183540000Y-148900491D01*
X183762499Y-148878577D01*
X183976447Y-148813676D01*
X184173623Y-148708284D01*
X184346449Y-148566449D01*
X184488284Y-148393623D01*
X184593676Y-148196447D01*
X184658577Y-147982499D01*
X184675000Y-147815752D01*
X184675000Y-145904248D01*
X184658577Y-145737501D01*
X184593676Y-145523553D01*
X184488284Y-145326377D01*
X184346449Y-145153551D01*
X184173623Y-145011716D01*
X183976446Y-144906324D01*
X183762498Y-144841423D01*
X183540000Y-144819509D01*
X183317501Y-144841423D01*
X183103553Y-144906324D01*
X182906377Y-145011716D01*
X182733551Y-145153551D01*
X182591716Y-145326377D01*
X182486324Y-145523554D01*
X182421423Y-145737502D01*
X182405000Y-145904249D01*
X174275000Y-145904249D01*
X174275000Y-145904248D01*
X174258577Y-145737501D01*
X174193676Y-145523553D01*
X174088284Y-145326377D01*
X173946449Y-145153551D01*
X173773623Y-145011716D01*
X173576446Y-144906324D01*
X173362498Y-144841423D01*
X173140000Y-144819509D01*
X172917501Y-144841423D01*
X172703553Y-144906324D01*
X172506377Y-145011716D01*
X172333551Y-145153551D01*
X172191716Y-145326377D01*
X172086324Y-145523554D01*
X172021423Y-145737502D01*
X172005000Y-145904249D01*
X150927000Y-145904249D01*
X150927000Y-139334159D01*
X158317000Y-139334159D01*
X158317000Y-139785841D01*
X158405119Y-140228843D01*
X158577970Y-140646143D01*
X158828910Y-141021702D01*
X159148298Y-141341090D01*
X159523857Y-141592030D01*
X159941157Y-141764881D01*
X160384159Y-141853000D01*
X160835841Y-141853000D01*
X161278843Y-141764881D01*
X161696143Y-141592030D01*
X162071702Y-141341090D01*
X162171263Y-141241529D01*
X162057457Y-141638416D01*
X162020222Y-142081834D01*
X162069823Y-142524039D01*
X162204371Y-142948188D01*
X162418741Y-143338125D01*
X162704768Y-143678998D01*
X163051556Y-143957823D01*
X163445897Y-144163979D01*
X163872771Y-144289615D01*
X164315917Y-144329944D01*
X164758458Y-144283432D01*
X165183536Y-144151848D01*
X165574960Y-143940206D01*
X165917821Y-143656566D01*
X166199060Y-143311733D01*
X166407965Y-142918840D01*
X166536578Y-142492854D01*
X166580000Y-142050000D01*
X166579111Y-141986339D01*
X166523341Y-141544869D01*
X166382884Y-141122640D01*
X166163090Y-140735734D01*
X165872333Y-140398888D01*
X165521685Y-140124932D01*
X165124504Y-139924302D01*
X164695918Y-139804638D01*
X164252251Y-139770500D01*
X163810403Y-139823187D01*
X163387204Y-139960693D01*
X162998773Y-140177780D01*
X162747427Y-140391692D01*
X162814881Y-140228843D01*
X162903000Y-139785841D01*
X162903000Y-139334159D01*
X162814881Y-138891157D01*
X162642030Y-138473857D01*
X162391090Y-138098298D01*
X162071702Y-137778910D01*
X161696143Y-137527970D01*
X161438554Y-137421273D01*
X162568332Y-137421273D01*
X162629491Y-137656470D01*
X162870326Y-137768768D01*
X163128441Y-137831924D01*
X163393919Y-137843511D01*
X163656555Y-137803082D01*
X163906258Y-137712193D01*
X164010509Y-137656470D01*
X164071668Y-137421273D01*
X163320000Y-136669605D01*
X162568332Y-137421273D01*
X161438554Y-137421273D01*
X161278843Y-137355119D01*
X160835841Y-137267000D01*
X160384159Y-137267000D01*
X159941157Y-137355119D01*
X159523857Y-137527970D01*
X159148298Y-137778910D01*
X158828910Y-138098298D01*
X158577970Y-138473857D01*
X158405119Y-138891157D01*
X158317000Y-139334159D01*
X150927000Y-139334159D01*
X150927000Y-136563919D01*
X161966489Y-136563919D01*
X162006918Y-136826555D01*
X162097807Y-137076258D01*
X162153530Y-137180509D01*
X162388727Y-137241668D01*
X163140395Y-136490000D01*
X163499605Y-136490000D01*
X164251273Y-137241668D01*
X164486470Y-137180509D01*
X164598768Y-136939674D01*
X164661924Y-136681559D01*
X164673511Y-136416081D01*
X164633082Y-136153445D01*
X164542193Y-135903742D01*
X164486470Y-135799491D01*
X164251273Y-135738332D01*
X163499605Y-136490000D01*
X163140395Y-136490000D01*
X162388727Y-135738332D01*
X162153530Y-135799491D01*
X162041232Y-136040326D01*
X161978076Y-136298441D01*
X161966489Y-136563919D01*
X150927000Y-136563919D01*
X150927000Y-128776000D01*
X161967928Y-128776000D01*
X161967928Y-130204000D01*
X161980188Y-130328482D01*
X162016498Y-130448180D01*
X162075463Y-130558494D01*
X162154815Y-130655185D01*
X162251506Y-130734537D01*
X162361820Y-130793502D01*
X162481518Y-130829812D01*
X162606000Y-130842072D01*
X162609860Y-130842072D01*
X162460063Y-130942163D01*
X162272163Y-131130063D01*
X162124532Y-131351009D01*
X162022842Y-131596511D01*
X161971000Y-131857135D01*
X161971000Y-132122865D01*
X162022842Y-132383489D01*
X162124532Y-132628991D01*
X162272163Y-132849937D01*
X162412226Y-132990000D01*
X162272163Y-133130063D01*
X162124532Y-133351009D01*
X162022842Y-133596511D01*
X161971000Y-133857135D01*
X161971000Y-134122865D01*
X162022842Y-134383489D01*
X162124532Y-134628991D01*
X162272163Y-134849937D01*
X162460063Y-135037837D01*
X162681009Y-135185468D01*
X162811481Y-135239511D01*
X162733742Y-135267807D01*
X162629491Y-135323530D01*
X162568332Y-135558727D01*
X163320000Y-136310395D01*
X164071668Y-135558727D01*
X164010509Y-135323530D01*
X163829474Y-135239116D01*
X163958991Y-135185468D01*
X164179937Y-135037837D01*
X164367837Y-134849937D01*
X164422414Y-134768257D01*
X169858349Y-140204193D01*
X169881365Y-140232238D01*
X169909409Y-140255253D01*
X169993283Y-140324087D01*
X170120969Y-140392337D01*
X170259518Y-140434365D01*
X170403603Y-140448556D01*
X170439708Y-140445000D01*
X176005552Y-140445000D01*
X176224784Y-140664233D01*
X176091716Y-140826377D01*
X175986324Y-141023553D01*
X175921423Y-141237501D01*
X175899509Y-141460000D01*
X175921423Y-141682499D01*
X175986324Y-141896447D01*
X176091716Y-142093623D01*
X176233551Y-142266449D01*
X176406377Y-142408284D01*
X176603553Y-142513676D01*
X176817501Y-142578577D01*
X176984248Y-142595000D01*
X179695752Y-142595000D01*
X179862499Y-142578577D01*
X180076447Y-142513676D01*
X180273623Y-142408284D01*
X180446449Y-142266449D01*
X180588284Y-142093623D01*
X180693676Y-141896447D01*
X180758577Y-141682499D01*
X180780491Y-141460000D01*
X180758577Y-141237501D01*
X180693676Y-141023553D01*
X180588284Y-140826377D01*
X180446449Y-140653551D01*
X180273623Y-140511716D01*
X180076447Y-140406324D01*
X180042673Y-140396079D01*
X180191013Y-140296962D01*
X180376962Y-140111013D01*
X180523061Y-139892359D01*
X180623696Y-139649405D01*
X180675000Y-139391486D01*
X180675000Y-139128514D01*
X180623696Y-138870595D01*
X180523061Y-138627641D01*
X180376962Y-138408987D01*
X180191013Y-138223038D01*
X179987352Y-138086957D01*
X179340000Y-137439605D01*
X178692648Y-138086957D01*
X178488987Y-138223038D01*
X178340000Y-138372025D01*
X178227975Y-138260000D01*
X178376962Y-138111013D01*
X178513043Y-137907352D01*
X179160395Y-137260000D01*
X178513043Y-136612648D01*
X178376962Y-136408987D01*
X178306706Y-136338731D01*
X178598336Y-136338731D01*
X179340000Y-137080395D01*
X179354143Y-137066253D01*
X179533748Y-137245858D01*
X179519605Y-137260000D01*
X180261269Y-138001664D01*
X180495037Y-137942203D01*
X180605934Y-137703758D01*
X180668183Y-137448260D01*
X180679390Y-137185527D01*
X180639125Y-136925656D01*
X180630192Y-136901189D01*
X180653553Y-136913676D01*
X180867501Y-136978577D01*
X181034248Y-136995000D01*
X183045752Y-136995000D01*
X183212499Y-136978577D01*
X183426447Y-136913676D01*
X183623623Y-136808284D01*
X183796449Y-136666449D01*
X183938284Y-136493623D01*
X184043676Y-136296447D01*
X184108577Y-136082499D01*
X184130491Y-135860000D01*
X184108577Y-135637501D01*
X184043676Y-135423553D01*
X183938284Y-135226377D01*
X183796449Y-135053551D01*
X183623623Y-134911716D01*
X183426447Y-134806324D01*
X183212499Y-134741423D01*
X183045752Y-134725000D01*
X181034248Y-134725000D01*
X180867501Y-134741423D01*
X180653553Y-134806324D01*
X180456377Y-134911716D01*
X180283551Y-135053551D01*
X180141716Y-135226377D01*
X180036324Y-135423553D01*
X179971423Y-135637501D01*
X179949509Y-135860000D01*
X179971304Y-136081291D01*
X179783758Y-135994066D01*
X179528260Y-135931817D01*
X179265527Y-135920610D01*
X179005656Y-135960875D01*
X178758634Y-136051065D01*
X178657797Y-136104963D01*
X178598336Y-136338731D01*
X178306706Y-136338731D01*
X178191013Y-136223038D01*
X177972359Y-136076939D01*
X177729405Y-135976304D01*
X177471486Y-135925000D01*
X177208514Y-135925000D01*
X176950595Y-135976304D01*
X176709188Y-136076298D01*
X176730491Y-135860000D01*
X176708577Y-135637501D01*
X176643676Y-135423553D01*
X176538284Y-135226377D01*
X176396449Y-135053551D01*
X176223623Y-134911716D01*
X176026447Y-134806324D01*
X175812499Y-134741423D01*
X175645752Y-134725000D01*
X173634248Y-134725000D01*
X173467501Y-134741423D01*
X173253553Y-134806324D01*
X173056377Y-134911716D01*
X172883551Y-135053551D01*
X172741716Y-135226377D01*
X172636324Y-135423553D01*
X172571423Y-135637501D01*
X172549509Y-135860000D01*
X172571423Y-136082499D01*
X172636324Y-136296447D01*
X172741716Y-136493623D01*
X172883551Y-136666449D01*
X173056377Y-136808284D01*
X173253553Y-136913676D01*
X173467501Y-136978577D01*
X173634248Y-136995000D01*
X175645752Y-136995000D01*
X175812499Y-136978577D01*
X176026447Y-136913676D01*
X176050267Y-136900944D01*
X176005000Y-137128514D01*
X176005000Y-137391486D01*
X176056304Y-137649405D01*
X176156939Y-137892359D01*
X176303038Y-138111013D01*
X176452025Y-138260000D01*
X176303038Y-138408987D01*
X176225521Y-138525000D01*
X170894447Y-138525000D01*
X164639685Y-132270239D01*
X164669000Y-132122865D01*
X164669000Y-131857135D01*
X164617158Y-131596511D01*
X164515468Y-131351009D01*
X164367837Y-131130063D01*
X164179937Y-130942163D01*
X164030140Y-130842072D01*
X164034000Y-130842072D01*
X164158482Y-130829812D01*
X164278180Y-130793502D01*
X164388494Y-130734537D01*
X164485185Y-130655185D01*
X164564537Y-130558494D01*
X164623502Y-130448180D01*
X164659812Y-130328482D01*
X164672072Y-130204000D01*
X164672072Y-128776000D01*
X164659812Y-128651518D01*
X164623502Y-128531820D01*
X164564537Y-128421506D01*
X164485185Y-128324815D01*
X164388494Y-128245463D01*
X164278180Y-128186498D01*
X164158482Y-128150188D01*
X164034000Y-128137928D01*
X162606000Y-128137928D01*
X162481518Y-128150188D01*
X162361820Y-128186498D01*
X162251506Y-128245463D01*
X162154815Y-128324815D01*
X162075463Y-128421506D01*
X162016498Y-128531820D01*
X161980188Y-128651518D01*
X161967928Y-128776000D01*
X150927000Y-128776000D01*
X150927000Y-126194159D01*
X158317000Y-126194159D01*
X158317000Y-126645841D01*
X158405119Y-127088843D01*
X158577970Y-127506143D01*
X158828910Y-127881702D01*
X159148298Y-128201090D01*
X159523857Y-128452030D01*
X159941157Y-128624881D01*
X160384159Y-128713000D01*
X160835841Y-128713000D01*
X161278843Y-128624881D01*
X161696143Y-128452030D01*
X162071702Y-128201090D01*
X162391090Y-127881702D01*
X162642030Y-127506143D01*
X162814881Y-127088843D01*
X162903000Y-126645841D01*
X162903000Y-126194159D01*
X162814881Y-125751157D01*
X162642030Y-125333857D01*
X162391090Y-124958298D01*
X162071702Y-124638910D01*
X161696143Y-124387970D01*
X161278843Y-124215119D01*
X160835841Y-124127000D01*
X160384159Y-124127000D01*
X159941157Y-124215119D01*
X159523857Y-124387970D01*
X159148298Y-124638910D01*
X158828910Y-124958298D01*
X158577970Y-125333857D01*
X158405119Y-125751157D01*
X158317000Y-126194159D01*
X150927000Y-126194159D01*
X150927000Y-124760000D01*
X153332419Y-124760000D01*
X153334714Y-124759774D01*
X153357658Y-124759614D01*
X153387477Y-124756480D01*
X153417461Y-124756480D01*
X153426626Y-124755517D01*
X154163634Y-124672848D01*
X154222131Y-124660414D01*
X154280825Y-124648792D01*
X154289628Y-124646067D01*
X154996543Y-124421820D01*
X155051515Y-124398259D01*
X155106830Y-124375460D01*
X155114936Y-124371077D01*
X155764833Y-124013793D01*
X155814169Y-123980012D01*
X155864015Y-123946895D01*
X155871115Y-123941020D01*
X156439236Y-123464311D01*
X156481099Y-123421561D01*
X156523535Y-123379421D01*
X156529359Y-123372279D01*
X156994067Y-122794298D01*
X157026804Y-122744271D01*
X157060272Y-122694653D01*
X157064598Y-122686516D01*
X157408193Y-122029281D01*
X157430599Y-121973823D01*
X157453783Y-121918672D01*
X157456446Y-121909850D01*
X157665839Y-121198394D01*
X157677037Y-121139693D01*
X157689077Y-121081037D01*
X157689976Y-121071866D01*
X157725911Y-120677000D01*
X169293766Y-120677000D01*
X169470189Y-120694376D01*
X169470189Y-120694376D01*
G37*
X169470189Y-120694376D02*
X169633850Y-120744022D01*
X169784672Y-120824638D01*
X169916870Y-120933130D01*
X170025362Y-121065328D01*
X170105978Y-121216150D01*
X170155624Y-121379811D01*
X170173000Y-121556234D01*
X170173000Y-132050000D01*
X170173612Y-132062448D01*
X170192827Y-132257538D01*
X170197683Y-132281956D01*
X170254588Y-132469549D01*
X170264116Y-132492550D01*
X170356526Y-132665437D01*
X170370358Y-132686138D01*
X170494721Y-132837675D01*
X170512325Y-132855279D01*
X170663862Y-132979642D01*
X170684563Y-132993474D01*
X170857450Y-133085884D01*
X170880451Y-133095412D01*
X171068044Y-133152317D01*
X171092462Y-133157173D01*
X171287552Y-133176388D01*
X171300000Y-133177000D01*
X186793766Y-133177000D01*
X186970189Y-133194376D01*
X187133850Y-133244022D01*
X187284672Y-133324638D01*
X187416870Y-133433130D01*
X187525362Y-133565328D01*
X187605978Y-133716150D01*
X187655624Y-133879811D01*
X187673000Y-134056234D01*
X187673000Y-154543766D01*
X187655624Y-154720189D01*
X187605978Y-154883850D01*
X187525362Y-155034672D01*
X187416870Y-155166870D01*
X187284672Y-155275362D01*
X187133850Y-155355978D01*
X186970189Y-155405624D01*
X186793766Y-155423000D01*
X151806234Y-155423000D01*
X151629811Y-155405624D01*
X151466150Y-155355978D01*
X151315328Y-155275362D01*
X151183130Y-155166870D01*
X151074638Y-155034672D01*
X150994022Y-154883850D01*
X150944376Y-154720189D01*
X150927000Y-154543766D01*
X150927000Y-152004249D01*
X172005000Y-152004249D01*
X172005000Y-153715752D01*
X172021423Y-153882499D01*
X172086325Y-154096447D01*
X172191717Y-154293623D01*
X172333552Y-154466449D01*
X172506378Y-154608284D01*
X172703554Y-154713676D01*
X172917502Y-154778577D01*
X173140000Y-154800491D01*
X173362499Y-154778577D01*
X173576447Y-154713676D01*
X173773623Y-154608284D01*
X173946449Y-154466449D01*
X174088284Y-154293623D01*
X174193676Y-154096447D01*
X174258577Y-153882499D01*
X174268593Y-153780802D01*
X174392337Y-153965998D01*
X174634002Y-154207663D01*
X174918169Y-154397537D01*
X175233919Y-154528325D01*
X175569117Y-154595000D01*
X175910883Y-154595000D01*
X176246081Y-154528325D01*
X176561831Y-154397537D01*
X176845998Y-154207663D01*
X177087663Y-153965998D01*
X177277537Y-153681831D01*
X177408325Y-153366081D01*
X177475000Y-153030883D01*
X177475000Y-152689117D01*
X179205000Y-152689117D01*
X179205000Y-153030883D01*
X179271675Y-153366081D01*
X179402463Y-153681831D01*
X179592337Y-153965998D01*
X179834002Y-154207663D01*
X180118169Y-154397537D01*
X180433919Y-154528325D01*
X180769117Y-154595000D01*
X181110883Y-154595000D01*
X181446081Y-154528325D01*
X181761831Y-154397537D01*
X182045998Y-154207663D01*
X182287663Y-153965998D01*
X182411407Y-153780802D01*
X182421423Y-153882499D01*
X182486325Y-154096447D01*
X182591717Y-154293623D01*
X182733552Y-154466449D01*
X182906378Y-154608284D01*
X183103554Y-154713676D01*
X183317502Y-154778577D01*
X183540000Y-154800491D01*
X183762499Y-154778577D01*
X183976447Y-154713676D01*
X184173623Y-154608284D01*
X184346449Y-154466449D01*
X184488284Y-154293623D01*
X184593676Y-154096447D01*
X184658577Y-153882499D01*
X184675000Y-153715752D01*
X184675000Y-152004248D01*
X184658577Y-151837501D01*
X184593676Y-151623553D01*
X184488284Y-151426377D01*
X184346449Y-151253551D01*
X184173623Y-151111716D01*
X183976446Y-151006324D01*
X183762498Y-150941423D01*
X183540000Y-150919509D01*
X183317501Y-150941423D01*
X183103553Y-151006324D01*
X182906377Y-151111716D01*
X182733551Y-151253551D01*
X182591716Y-151426377D01*
X182486324Y-151623554D01*
X182421423Y-151837502D01*
X182411407Y-151939198D01*
X182287663Y-151754002D01*
X182045998Y-151512337D01*
X181761831Y-151322463D01*
X181446081Y-151191675D01*
X181110883Y-151125000D01*
X180769117Y-151125000D01*
X180433919Y-151191675D01*
X180118169Y-151322463D01*
X179834002Y-151512337D01*
X179592337Y-151754002D01*
X179402463Y-152038169D01*
X179271675Y-152353919D01*
X179205000Y-152689117D01*
X177475000Y-152689117D01*
X177408325Y-152353919D01*
X177277537Y-152038169D01*
X177087663Y-151754002D01*
X176845998Y-151512337D01*
X176561831Y-151322463D01*
X176246081Y-151191675D01*
X175910883Y-151125000D01*
X175569117Y-151125000D01*
X175233919Y-151191675D01*
X174918169Y-151322463D01*
X174634002Y-151512337D01*
X174392337Y-151754002D01*
X174268593Y-151939198D01*
X174258577Y-151837501D01*
X174193676Y-151623553D01*
X174088284Y-151426377D01*
X173946449Y-151253551D01*
X173773623Y-151111716D01*
X173576446Y-151006324D01*
X173362498Y-150941423D01*
X173140000Y-150919509D01*
X172917501Y-150941423D01*
X172703553Y-151006324D01*
X172506377Y-151111716D01*
X172333551Y-151253551D01*
X172191716Y-151426377D01*
X172086324Y-151623554D01*
X172021423Y-151837502D01*
X172005000Y-152004249D01*
X150927000Y-152004249D01*
X150927000Y-145904249D01*
X172005000Y-145904249D01*
X172005000Y-147815752D01*
X172021424Y-147982499D01*
X172086325Y-148196447D01*
X172191717Y-148393623D01*
X172333552Y-148566449D01*
X172506378Y-148708284D01*
X172703554Y-148813676D01*
X172917502Y-148878577D01*
X173140000Y-148900491D01*
X173362499Y-148878577D01*
X173576447Y-148813676D01*
X173773623Y-148708284D01*
X173946449Y-148566449D01*
X174088284Y-148393623D01*
X174193676Y-148196447D01*
X174258577Y-147982499D01*
X174275000Y-147815752D01*
X174275000Y-145904249D01*
X182405000Y-145904249D01*
X182405000Y-147815752D01*
X182421424Y-147982499D01*
X182486325Y-148196447D01*
X182591717Y-148393623D01*
X182733552Y-148566449D01*
X182906378Y-148708284D01*
X183103554Y-148813676D01*
X183317502Y-148878577D01*
X183540000Y-148900491D01*
X183762499Y-148878577D01*
X183976447Y-148813676D01*
X184173623Y-148708284D01*
X184346449Y-148566449D01*
X184488284Y-148393623D01*
X184593676Y-148196447D01*
X184658577Y-147982499D01*
X184675000Y-147815752D01*
X184675000Y-145904248D01*
X184658577Y-145737501D01*
X184593676Y-145523553D01*
X184488284Y-145326377D01*
X184346449Y-145153551D01*
X184173623Y-145011716D01*
X183976446Y-144906324D01*
X183762498Y-144841423D01*
X183540000Y-144819509D01*
X183317501Y-144841423D01*
X183103553Y-144906324D01*
X182906377Y-145011716D01*
X182733551Y-145153551D01*
X182591716Y-145326377D01*
X182486324Y-145523554D01*
X182421423Y-145737502D01*
X182405000Y-145904249D01*
X174275000Y-145904249D01*
X174275000Y-145904248D01*
X174258577Y-145737501D01*
X174193676Y-145523553D01*
X174088284Y-145326377D01*
X173946449Y-145153551D01*
X173773623Y-145011716D01*
X173576446Y-144906324D01*
X173362498Y-144841423D01*
X173140000Y-144819509D01*
X172917501Y-144841423D01*
X172703553Y-144906324D01*
X172506377Y-145011716D01*
X172333551Y-145153551D01*
X172191716Y-145326377D01*
X172086324Y-145523554D01*
X172021423Y-145737502D01*
X172005000Y-145904249D01*
X150927000Y-145904249D01*
X150927000Y-139334159D01*
X158317000Y-139334159D01*
X158317000Y-139785841D01*
X158405119Y-140228843D01*
X158577970Y-140646143D01*
X158828910Y-141021702D01*
X159148298Y-141341090D01*
X159523857Y-141592030D01*
X159941157Y-141764881D01*
X160384159Y-141853000D01*
X160835841Y-141853000D01*
X161278843Y-141764881D01*
X161696143Y-141592030D01*
X162071702Y-141341090D01*
X162171263Y-141241529D01*
X162057457Y-141638416D01*
X162020222Y-142081834D01*
X162069823Y-142524039D01*
X162204371Y-142948188D01*
X162418741Y-143338125D01*
X162704768Y-143678998D01*
X163051556Y-143957823D01*
X163445897Y-144163979D01*
X163872771Y-144289615D01*
X164315917Y-144329944D01*
X164758458Y-144283432D01*
X165183536Y-144151848D01*
X165574960Y-143940206D01*
X165917821Y-143656566D01*
X166199060Y-143311733D01*
X166407965Y-142918840D01*
X166536578Y-142492854D01*
X166580000Y-142050000D01*
X166579111Y-141986339D01*
X166523341Y-141544869D01*
X166382884Y-141122640D01*
X166163090Y-140735734D01*
X165872333Y-140398888D01*
X165521685Y-140124932D01*
X165124504Y-139924302D01*
X164695918Y-139804638D01*
X164252251Y-139770500D01*
X163810403Y-139823187D01*
X163387204Y-139960693D01*
X162998773Y-140177780D01*
X162747427Y-140391692D01*
X162814881Y-140228843D01*
X162903000Y-139785841D01*
X162903000Y-139334159D01*
X162814881Y-138891157D01*
X162642030Y-138473857D01*
X162391090Y-138098298D01*
X162071702Y-137778910D01*
X161696143Y-137527970D01*
X161438554Y-137421273D01*
X162568332Y-137421273D01*
X162629491Y-137656470D01*
X162870326Y-137768768D01*
X163128441Y-137831924D01*
X163393919Y-137843511D01*
X163656555Y-137803082D01*
X163906258Y-137712193D01*
X164010509Y-137656470D01*
X164071668Y-137421273D01*
X163320000Y-136669605D01*
X162568332Y-137421273D01*
X161438554Y-137421273D01*
X161278843Y-137355119D01*
X160835841Y-137267000D01*
X160384159Y-137267000D01*
X159941157Y-137355119D01*
X159523857Y-137527970D01*
X159148298Y-137778910D01*
X158828910Y-138098298D01*
X158577970Y-138473857D01*
X158405119Y-138891157D01*
X158317000Y-139334159D01*
X150927000Y-139334159D01*
X150927000Y-136563919D01*
X161966489Y-136563919D01*
X162006918Y-136826555D01*
X162097807Y-137076258D01*
X162153530Y-137180509D01*
X162388727Y-137241668D01*
X163140395Y-136490000D01*
X163499605Y-136490000D01*
X164251273Y-137241668D01*
X164486470Y-137180509D01*
X164598768Y-136939674D01*
X164661924Y-136681559D01*
X164673511Y-136416081D01*
X164633082Y-136153445D01*
X164542193Y-135903742D01*
X164486470Y-135799491D01*
X164251273Y-135738332D01*
X163499605Y-136490000D01*
X163140395Y-136490000D01*
X162388727Y-135738332D01*
X162153530Y-135799491D01*
X162041232Y-136040326D01*
X161978076Y-136298441D01*
X161966489Y-136563919D01*
X150927000Y-136563919D01*
X150927000Y-128776000D01*
X161967928Y-128776000D01*
X161967928Y-130204000D01*
X161980188Y-130328482D01*
X162016498Y-130448180D01*
X162075463Y-130558494D01*
X162154815Y-130655185D01*
X162251506Y-130734537D01*
X162361820Y-130793502D01*
X162481518Y-130829812D01*
X162606000Y-130842072D01*
X162609860Y-130842072D01*
X162460063Y-130942163D01*
X162272163Y-131130063D01*
X162124532Y-131351009D01*
X162022842Y-131596511D01*
X161971000Y-131857135D01*
X161971000Y-132122865D01*
X162022842Y-132383489D01*
X162124532Y-132628991D01*
X162272163Y-132849937D01*
X162412226Y-132990000D01*
X162272163Y-133130063D01*
X162124532Y-133351009D01*
X162022842Y-133596511D01*
X161971000Y-133857135D01*
X161971000Y-134122865D01*
X162022842Y-134383489D01*
X162124532Y-134628991D01*
X162272163Y-134849937D01*
X162460063Y-135037837D01*
X162681009Y-135185468D01*
X162811481Y-135239511D01*
X162733742Y-135267807D01*
X162629491Y-135323530D01*
X162568332Y-135558727D01*
X163320000Y-136310395D01*
X164071668Y-135558727D01*
X164010509Y-135323530D01*
X163829474Y-135239116D01*
X163958991Y-135185468D01*
X164179937Y-135037837D01*
X164367837Y-134849937D01*
X164422414Y-134768257D01*
X169858349Y-140204193D01*
X169881365Y-140232238D01*
X169909409Y-140255253D01*
X169993283Y-140324087D01*
X170120969Y-140392337D01*
X170259518Y-140434365D01*
X170403603Y-140448556D01*
X170439708Y-140445000D01*
X176005552Y-140445000D01*
X176224784Y-140664233D01*
X176091716Y-140826377D01*
X175986324Y-141023553D01*
X175921423Y-141237501D01*
X175899509Y-141460000D01*
X175921423Y-141682499D01*
X175986324Y-141896447D01*
X176091716Y-142093623D01*
X176233551Y-142266449D01*
X176406377Y-142408284D01*
X176603553Y-142513676D01*
X176817501Y-142578577D01*
X176984248Y-142595000D01*
X179695752Y-142595000D01*
X179862499Y-142578577D01*
X180076447Y-142513676D01*
X180273623Y-142408284D01*
X180446449Y-142266449D01*
X180588284Y-142093623D01*
X180693676Y-141896447D01*
X180758577Y-141682499D01*
X180780491Y-141460000D01*
X180758577Y-141237501D01*
X180693676Y-141023553D01*
X180588284Y-140826377D01*
X180446449Y-140653551D01*
X180273623Y-140511716D01*
X180076447Y-140406324D01*
X180042673Y-140396079D01*
X180191013Y-140296962D01*
X180376962Y-140111013D01*
X180523061Y-139892359D01*
X180623696Y-139649405D01*
X180675000Y-139391486D01*
X180675000Y-139128514D01*
X180623696Y-138870595D01*
X180523061Y-138627641D01*
X180376962Y-138408987D01*
X180191013Y-138223038D01*
X179987352Y-138086957D01*
X179340000Y-137439605D01*
X178692648Y-138086957D01*
X178488987Y-138223038D01*
X178340000Y-138372025D01*
X178227975Y-138260000D01*
X178376962Y-138111013D01*
X178513043Y-137907352D01*
X179160395Y-137260000D01*
X178513043Y-136612648D01*
X178376962Y-136408987D01*
X178306706Y-136338731D01*
X178598336Y-136338731D01*
X179340000Y-137080395D01*
X179354143Y-137066253D01*
X179533748Y-137245858D01*
X179519605Y-137260000D01*
X180261269Y-138001664D01*
X180495037Y-137942203D01*
X180605934Y-137703758D01*
X180668183Y-137448260D01*
X180679390Y-137185527D01*
X180639125Y-136925656D01*
X180630192Y-136901189D01*
X180653553Y-136913676D01*
X180867501Y-136978577D01*
X181034248Y-136995000D01*
X183045752Y-136995000D01*
X183212499Y-136978577D01*
X183426447Y-136913676D01*
X183623623Y-136808284D01*
X183796449Y-136666449D01*
X183938284Y-136493623D01*
X184043676Y-136296447D01*
X184108577Y-136082499D01*
X184130491Y-135860000D01*
X184108577Y-135637501D01*
X184043676Y-135423553D01*
X183938284Y-135226377D01*
X183796449Y-135053551D01*
X183623623Y-134911716D01*
X183426447Y-134806324D01*
X183212499Y-134741423D01*
X183045752Y-134725000D01*
X181034248Y-134725000D01*
X180867501Y-134741423D01*
X180653553Y-134806324D01*
X180456377Y-134911716D01*
X180283551Y-135053551D01*
X180141716Y-135226377D01*
X180036324Y-135423553D01*
X179971423Y-135637501D01*
X179949509Y-135860000D01*
X179971304Y-136081291D01*
X179783758Y-135994066D01*
X179528260Y-135931817D01*
X179265527Y-135920610D01*
X179005656Y-135960875D01*
X178758634Y-136051065D01*
X178657797Y-136104963D01*
X178598336Y-136338731D01*
X178306706Y-136338731D01*
X178191013Y-136223038D01*
X177972359Y-136076939D01*
X177729405Y-135976304D01*
X177471486Y-135925000D01*
X177208514Y-135925000D01*
X176950595Y-135976304D01*
X176709188Y-136076298D01*
X176730491Y-135860000D01*
X176708577Y-135637501D01*
X176643676Y-135423553D01*
X176538284Y-135226377D01*
X176396449Y-135053551D01*
X176223623Y-134911716D01*
X176026447Y-134806324D01*
X175812499Y-134741423D01*
X175645752Y-134725000D01*
X173634248Y-134725000D01*
X173467501Y-134741423D01*
X173253553Y-134806324D01*
X173056377Y-134911716D01*
X172883551Y-135053551D01*
X172741716Y-135226377D01*
X172636324Y-135423553D01*
X172571423Y-135637501D01*
X172549509Y-135860000D01*
X172571423Y-136082499D01*
X172636324Y-136296447D01*
X172741716Y-136493623D01*
X172883551Y-136666449D01*
X173056377Y-136808284D01*
X173253553Y-136913676D01*
X173467501Y-136978577D01*
X173634248Y-136995000D01*
X175645752Y-136995000D01*
X175812499Y-136978577D01*
X176026447Y-136913676D01*
X176050267Y-136900944D01*
X176005000Y-137128514D01*
X176005000Y-137391486D01*
X176056304Y-137649405D01*
X176156939Y-137892359D01*
X176303038Y-138111013D01*
X176452025Y-138260000D01*
X176303038Y-138408987D01*
X176225521Y-138525000D01*
X170894447Y-138525000D01*
X164639685Y-132270239D01*
X164669000Y-132122865D01*
X164669000Y-131857135D01*
X164617158Y-131596511D01*
X164515468Y-131351009D01*
X164367837Y-131130063D01*
X164179937Y-130942163D01*
X164030140Y-130842072D01*
X164034000Y-130842072D01*
X164158482Y-130829812D01*
X164278180Y-130793502D01*
X164388494Y-130734537D01*
X164485185Y-130655185D01*
X164564537Y-130558494D01*
X164623502Y-130448180D01*
X164659812Y-130328482D01*
X164672072Y-130204000D01*
X164672072Y-128776000D01*
X164659812Y-128651518D01*
X164623502Y-128531820D01*
X164564537Y-128421506D01*
X164485185Y-128324815D01*
X164388494Y-128245463D01*
X164278180Y-128186498D01*
X164158482Y-128150188D01*
X164034000Y-128137928D01*
X162606000Y-128137928D01*
X162481518Y-128150188D01*
X162361820Y-128186498D01*
X162251506Y-128245463D01*
X162154815Y-128324815D01*
X162075463Y-128421506D01*
X162016498Y-128531820D01*
X161980188Y-128651518D01*
X161967928Y-128776000D01*
X150927000Y-128776000D01*
X150927000Y-126194159D01*
X158317000Y-126194159D01*
X158317000Y-126645841D01*
X158405119Y-127088843D01*
X158577970Y-127506143D01*
X158828910Y-127881702D01*
X159148298Y-128201090D01*
X159523857Y-128452030D01*
X159941157Y-128624881D01*
X160384159Y-128713000D01*
X160835841Y-128713000D01*
X161278843Y-128624881D01*
X161696143Y-128452030D01*
X162071702Y-128201090D01*
X162391090Y-127881702D01*
X162642030Y-127506143D01*
X162814881Y-127088843D01*
X162903000Y-126645841D01*
X162903000Y-126194159D01*
X162814881Y-125751157D01*
X162642030Y-125333857D01*
X162391090Y-124958298D01*
X162071702Y-124638910D01*
X161696143Y-124387970D01*
X161278843Y-124215119D01*
X160835841Y-124127000D01*
X160384159Y-124127000D01*
X159941157Y-124215119D01*
X159523857Y-124387970D01*
X159148298Y-124638910D01*
X158828910Y-124958298D01*
X158577970Y-125333857D01*
X158405119Y-125751157D01*
X158317000Y-126194159D01*
X150927000Y-126194159D01*
X150927000Y-124760000D01*
X153332419Y-124760000D01*
X153334714Y-124759774D01*
X153357658Y-124759614D01*
X153387477Y-124756480D01*
X153417461Y-124756480D01*
X153426626Y-124755517D01*
X154163634Y-124672848D01*
X154222131Y-124660414D01*
X154280825Y-124648792D01*
X154289628Y-124646067D01*
X154996543Y-124421820D01*
X155051515Y-124398259D01*
X155106830Y-124375460D01*
X155114936Y-124371077D01*
X155764833Y-124013793D01*
X155814169Y-123980012D01*
X155864015Y-123946895D01*
X155871115Y-123941020D01*
X156439236Y-123464311D01*
X156481099Y-123421561D01*
X156523535Y-123379421D01*
X156529359Y-123372279D01*
X156994067Y-122794298D01*
X157026804Y-122744271D01*
X157060272Y-122694653D01*
X157064598Y-122686516D01*
X157408193Y-122029281D01*
X157430599Y-121973823D01*
X157453783Y-121918672D01*
X157456446Y-121909850D01*
X157665839Y-121198394D01*
X157677037Y-121139693D01*
X157689077Y-121081037D01*
X157689976Y-121071866D01*
X157725911Y-120677000D01*
X169293766Y-120677000D01*
X169470189Y-120694376D01*
M02*
